<?xml version="1.0" encoding="UTF-8" standalone="no"?>
<!-- Created with Inkscape (http://www.inkscape.org/) -->

<svg
   xmlns:svg="http://www.w3.org/2000/svg"
   xmlns="http://www.w3.org/2000/svg"
   version="1.1"
   width="102.611"
   height="67.588997"
   viewBox="0 0 102.611 67.589"
   id="Calque_1"
   xml:space="preserve"><defs
   id="defs4012" />
<path
   d="M 0.1,33.974 V 7.535 C 0.1,3.4 3.475,0.06 7.493,0.06 h 87.384 c 4.139,0 7.513,3.339 7.513,7.475 l 0.081,26.439 0.081,25.962 c 0,4.135 -3.576,7.594 -7.715,7.594 H 7.493 C 3.435,67.53 0.06,64.19 0.06,60.135 v -26.32 l 0.04,0.159 z"
   id="path3980"
   style="fill:#00a650" />
<path
   d="M 0.1,33.974 V 7.535 C 0.1,3.4 3.475,0.06 7.493,0.06 h 87.384 c 4.139,0 7.513,3.339 7.513,7.475 l 0.081,26.439 0.081,25.962 c 0,4.135 -3.576,7.594 -7.715,7.594 H 7.493 C 3.435,67.53 0.06,64.19 0.06,60.135 v -26.32 l 0.04,0.159 z"
   id="path3982"
   style="fill:none;stroke:#00a650;stroke-width:0.12;stroke-miterlimit:3.86299992" />
<path
   d="m 100.623,33.854 0.04,26.161 c 0,3.062 -2.691,5.726 -5.786,5.726 H 7.493 c -3.054,0 -5.545,-2.664 -5.545,-5.726 L 1.988,34.014 V 7.137 c 0,-2.903 2.29,-5.249 5.183,-5.249 h 87.706 c 3.054,0 5.786,2.465 5.786,5.607 v 26.359 h -0.04 z"
   id="path3984"
   style="fill:#ffffff" />
<path
   d="m 100.623,33.854 0.04,26.161 c 0,3.062 -2.691,5.726 -5.786,5.726 H 7.493 c -3.054,0 -5.545,-2.664 -5.545,-5.726 L 1.988,34.014 V 7.137 c 0,-2.903 2.29,-5.249 5.183,-5.249 h 87.706 c 3.054,0 5.786,2.465 5.786,5.607 v 26.359 h -0.04 z"
   id="path3986"
   style="fill:none;stroke:#ffffff;stroke-width:0.2;stroke-miterlimit:3.86299992" />
<path
   d="m 98.976,33.815 0.04,26.16 c 0,2.148 -1.929,4.017 -4.058,4.017 H 7.572 c -2.129,0 -3.937,-1.789 -3.937,-3.937 V 33.974 L 3.675,7.535 c 0,-2.147 1.808,-3.937 3.937,-3.937 h 87.426 c 2.129,0 3.857,1.829 3.857,3.977 l 0.081,26.24 z"
   id="path3988"
   style="fill:#00a650" />
<path
   d="m 98.976,33.815 0.04,26.16 c 0,2.148 -1.929,4.017 -4.058,4.017 H 7.572 c -2.129,0 -3.937,-1.789 -3.937,-3.937 V 33.974 L 3.675,7.535 c 0,-2.147 1.808,-3.937 3.937,-3.937 h 87.426 c 2.129,0 3.857,1.829 3.857,3.977 l 0.081,26.24 z"
   id="path3990"
   style="fill:none;stroke:#00a650;stroke-width:0.2;stroke-miterlimit:3.86299992" />

<g
   transform="translate(5.4414873,0)"
   id="g4104"><path
     d="m 8.698,55.721 0,-43.813 21.133,0 0,5.248 -14.866,0 0,13.24 9.482,0 0,5.725 -9.281,-0.04 0,14.273 14.584,0 0,5.367 z"
     id="polygon3992"
     style="fill:#ffffff" /><path
     d="m 8.698,55.721 0,-43.813 21.133,0 0,5.248 -14.866,0 0,13.24 9.482,0 0,5.725 -9.281,-0.04 0,14.273 14.584,0 0,5.367 z"
     id="polygon3994"
     style="fill:none;stroke:#ffffff;stroke-width:0.12;stroke-miterlimit:3.86299992" /></g>





<polygon
   points="56.269,42.401 46.866,42.401 56.269,23.555 "
   id="polygon4006"
   style="fill:#00a650" />
<polygon
   points="56.269,42.401 46.866,42.401 56.269,23.555 "
   id="polygon4008"
   style="fill:none;stroke:#00a650;stroke-width:0.12;stroke-miterlimit:3.86299992" />
<g
   id="text4061"
   style="font-size:12px;font-style:normal;font-variant:normal;font-weight:normal;font-stretch:normal;text-align:start;line-height:100%;writing-mode:lr-tb;text-anchor:start;fill:#ffffff;fill-opacity:1;stroke:none;font-family:Drogowskaz;-inkscape-font-specification:Drogowskaz"><path
     d="m 55.562366,11.191074 0,44.655762 -6.379394,0 0,-34.088867 -3.729492,0 0,-3.794922 3.729492,-6.771973 z"
     id="path4109"
     style="font-size:67px;fill:#ffffff;font-family:Snv Becker Reg Cond;-inkscape-font-specification:Snv Becker Reg Cond" /><path
     d="m 80.752796,34.713047 c -1.112323,0.567078 -1.973813,0.959656 -2.584472,1.177734 -0.959652,0.348978 -2.061051,0.523457 -3.3042,0.523438 -3.533213,1.9e-5 -6.303067,-1.221334 -8.30957,-3.664063 -1.592126,-1.941055 -2.388187,-4.176567 -2.388184,-6.706543 l 0,-3.794921 c -3e-6,-2.9443 0.905107,-5.474245 2.715332,-7.589844 2.333651,-2.748003 5.267079,-4.122025 8.800293,-4.122071 2.878889,4.6e-5 5.387025,0.905156 7.524414,2.715333 2.617163,2.18103 3.925756,5.179887 3.925782,8.996582 l 0,22.638671 c -2.6e-5,2.420907 -0.534368,4.50375 -1.603028,6.248536 -0.937849,1.548505 -2.246441,2.802573 -3.925781,3.762207 -1.87567,1.068684 -3.849463,1.603026 -5.921387,1.603027 -2.748058,-1e-6 -5.179859,-0.872396 -7.29541,-2.617188 -2.813481,-2.290034 -4.220218,-5.288892 -4.220215,-8.996582 l 0,-1.766601 6.379395,0 0,2.519043 c -1e-5,1.177743 0.392568,2.246427 1.177734,3.206055 1.003244,1.264979 2.311836,1.897466 3.925782,1.89746 1.853824,6e-6 3.293276,-0.730625 4.318359,-2.191894 0.523418,-0.741528 0.785136,-1.712068 0.785156,-2.911621 z m 0,-8.669434 0,-4.351074 c -2e-5,-1.286748 -0.305358,-2.377242 -0.916015,-3.271484 -0.981464,-1.417605 -2.366391,-2.126425 -4.154786,-2.126465 -1.679375,4e-5 -3.031587,0.654336 -4.05664,1.962891 -0.719737,0.916052 -1.0796,2.06107 -1.07959,3.435058 l 0,4.351074 c -1e-5,1.112334 0.359853,2.170113 1.07959,3.17334 0.981433,1.395859 2.355456,2.093775 4.12207,2.09375 1.134099,2.5e-5 2.137353,-0.327123 3.009766,-0.981445 1.330384,-1.003229 1.995585,-2.431775 1.995605,-4.285645 z"
     id="path4111"
     style="font-size:67px;fill:#ffffff;font-family:Snv Becker Reg Cond;-inkscape-font-specification:Snv Becker Reg Cond" /></g></svg>