<?xml version="1.0" encoding="UTF-8" standalone="no"?>
<!-- Created with Inkscape (http://www.inkscape.org/) -->

<svg
   xmlns:svg="http://www.w3.org/2000/svg"
   xmlns="http://www.w3.org/2000/svg"
   version="1.1"
   width="102.611"
   height="67.588997"
   viewBox="0 0 102.611 67.589"
   id="Calque_1"
   xml:space="preserve"><defs
   id="defs4012" />
<path
   d="M 0.1,33.974 V 7.535 C 0.1,3.4 3.475,0.06 7.493,0.06 h 87.384 c 4.139,0 7.513,3.339 7.513,7.475 l 0.081,26.439 0.081,25.962 c 0,4.135 -3.576,7.594 -7.715,7.594 H 7.493 C 3.435,67.53 0.06,64.19 0.06,60.135 v -26.32 l 0.04,0.159 z"
   id="path3980"
   style="fill:#00a650" />
<path
   d="M 0.1,33.974 V 7.535 C 0.1,3.4 3.475,0.06 7.493,0.06 h 87.384 c 4.139,0 7.513,3.339 7.513,7.475 l 0.081,26.439 0.081,25.962 c 0,4.135 -3.576,7.594 -7.715,7.594 H 7.493 C 3.435,67.53 0.06,64.19 0.06,60.135 v -26.32 l 0.04,0.159 z"
   id="path3982"
   style="fill:none;stroke:#00a650;stroke-width:0.12;stroke-miterlimit:3.86299992" />
<path
   d="m 100.623,33.854 0.04,26.161 c 0,3.062 -2.691,5.726 -5.786,5.726 H 7.493 c -3.054,0 -5.545,-2.664 -5.545,-5.726 L 1.988,34.014 V 7.137 c 0,-2.903 2.29,-5.249 5.183,-5.249 h 87.706 c 3.054,0 5.786,2.465 5.786,5.607 v 26.359 h -0.04 z"
   id="path3984"
   style="fill:#ffffff" />
<path
   d="m 100.623,33.854 0.04,26.161 c 0,3.062 -2.691,5.726 -5.786,5.726 H 7.493 c -3.054,0 -5.545,-2.664 -5.545,-5.726 L 1.988,34.014 V 7.137 c 0,-2.903 2.29,-5.249 5.183,-5.249 h 87.706 c 3.054,0 5.786,2.465 5.786,5.607 v 26.359 h -0.04 z"
   id="path3986"
   style="fill:none;stroke:#ffffff;stroke-width:0.2;stroke-miterlimit:3.86299992" />
<path
   d="m 98.976,33.815 0.04,26.16 c 0,2.148 -1.929,4.017 -4.058,4.017 H 7.572 c -2.129,0 -3.937,-1.789 -3.937,-3.937 V 33.974 L 3.675,7.535 c 0,-2.147 1.808,-3.937 3.937,-3.937 h 87.426 c 2.129,0 3.857,1.829 3.857,3.977 l 0.081,26.24 z"
   id="path3988"
   style="fill:#00a650" />
<path
   d="m 98.976,33.815 0.04,26.16 c 0,2.148 -1.929,4.017 -4.058,4.017 H 7.572 c -2.129,0 -3.937,-1.789 -3.937,-3.937 V 33.974 L 3.675,7.535 c 0,-2.147 1.808,-3.937 3.937,-3.937 h 87.426 c 2.129,0 3.857,1.829 3.857,3.977 l 0.081,26.24 z"
   id="path3990"
   style="fill:none;stroke:#00a650;stroke-width:0.2;stroke-miterlimit:3.86299992" />
<polygon
   points="8.698,55.721 8.698,11.908 29.831,11.908 29.831,17.156 14.965,17.156 14.965,30.396 24.447,30.396 24.447,36.121 15.166,36.081 15.166,50.354 29.75,50.354 29.75,55.721 "
   id="polygon3992"
   style="fill:#ffffff" />
<polygon
   points="8.698,55.721 8.698,11.908 29.831,11.908 29.831,17.156 14.965,17.156 14.965,30.396 24.447,30.396 24.447,36.121 15.166,36.081 15.166,50.354 29.75,50.354 29.75,55.721 "
   id="polygon3994"
   style="fill:none;stroke:#ffffff;stroke-width:0.12;stroke-miterlimit:3.86299992" />





<polygon
   points="56.269,42.401 46.866,42.401 56.269,23.555 "
   id="polygon4006"
   style="fill:#00a650" />
<polygon
   points="56.269,42.401 46.866,42.401 56.269,23.555 "
   id="polygon4008"
   style="fill:none;stroke:#00a650;stroke-width:0.12;stroke-miterlimit:3.86299992" />
<g
   id="text4061"
   style="font-size:12px;font-style:normal;font-variant:normal;font-weight:normal;font-stretch:normal;text-align:start;line-height:100%;writing-mode:lr-tb;text-anchor:start;fill:#ffffff;fill-opacity:1;stroke:none;font-family:Drogowskaz;-inkscape-font-specification:Drogowskaz"><path
     d="m 54.700958,48.911289 -16.586426,0 0,-5.757812 14.688965,-31.962403 8.276856,0 0,31.962403 1.930176,0 0,5.757812 -1.930176,0 0,6.935547 -6.379395,0 z m 0,-5.757812 0,-20.872071 -9.618164,20.872071 z"
     id="path4090"
     style="font-size:67px;fill:#ffffff;font-family:Snv Becker Reg Cond;-inkscape-font-specification:Snv Becker Reg Cond" /><path
     d="m 69.880646,44.887363 0,-22.704101 c -4e-6,-2.377243 0.588862,-4.470991 1.766601,-6.28125 1.068678,-1.635701 2.519035,-2.944293 4.351075,-3.925781 1.766589,-0.959591 3.609523,-1.439408 5.528808,-1.439454 2.857078,4.6e-5 5.365213,0.948775 7.524414,2.846192 2.529922,2.246459 3.794895,5.179887 3.794922,8.800293 l 0,22.704101 c -2.7e-5,2.704436 -0.752468,5.059902 -2.257324,7.066407 -2.268252,3.031576 -5.354349,4.547362 -9.258301,4.547363 -3.489595,-1e-6 -6.379404,-1.297688 -8.669434,-3.893066 -1.853846,-2.115555 -2.780765,-4.68912 -2.780761,-7.720704 z m 16.586426,0 0,-23.391113 c -2.1e-5,-1.373988 -0.501648,-2.606245 -1.504883,-3.696777 -0.916034,-1.003216 -2.082862,-1.504843 -3.500489,-1.504883 -1.897474,4e-5 -3.369641,0.785195 -4.416503,2.355469 -0.523449,0.785192 -0.785167,1.733922 -0.785157,2.846191 l 0,24.04541 c -1e-5,1.134124 0.370758,2.180998 1.112305,3.140625 1.025052,1.37403 2.377265,2.061041 4.056641,2.061035 1.810203,6e-6 3.19513,-0.774245 4.154785,-2.322753 0.588847,-0.916008 0.88328,-2.093741 0.883301,-3.533204 z"
     id="path4092"
     style="font-size:67px;fill:#ffffff;font-family:Snv Becker Reg Cond;-inkscape-font-specification:Snv Becker Reg Cond" /></g></svg>