<?xml version="1.0" encoding="UTF-8" standalone="no"?>
<!-- Created with Inkscape (http://www.inkscape.org/) -->

<svg
   xmlns:svg="http://www.w3.org/2000/svg"
   xmlns="http://www.w3.org/2000/svg"
   version="1.1"
   width="102.611"
   height="67.588997"
   viewBox="0 0 102.611 67.589"
   id="Calque_1"
   xml:space="preserve"><defs
   id="defs4012" />
<path
   d="M 0.1,33.974 V 7.535 C 0.1,3.4 3.475,0.06 7.493,0.06 h 87.384 c 4.139,0 7.513,3.339 7.513,7.475 l 0.081,26.439 0.081,25.962 c 0,4.135 -3.576,7.594 -7.715,7.594 H 7.493 C 3.435,67.53 0.06,64.19 0.06,60.135 v -26.32 l 0.04,0.159 z"
   id="path3980"
   style="fill:#00a650" />
<path
   d="M 0.1,33.974 V 7.535 C 0.1,3.4 3.475,0.06 7.493,0.06 h 87.384 c 4.139,0 7.513,3.339 7.513,7.475 l 0.081,26.439 0.081,25.962 c 0,4.135 -3.576,7.594 -7.715,7.594 H 7.493 C 3.435,67.53 0.06,64.19 0.06,60.135 v -26.32 l 0.04,0.159 z"
   id="path3982"
   style="fill:none;stroke:#00a650;stroke-width:0.12;stroke-miterlimit:3.86299992" />
<path
   d="m 100.623,33.854 0.04,26.161 c 0,3.062 -2.691,5.726 -5.786,5.726 H 7.493 c -3.054,0 -5.545,-2.664 -5.545,-5.726 L 1.988,34.014 V 7.137 c 0,-2.903 2.29,-5.249 5.183,-5.249 h 87.706 c 3.054,0 5.786,2.465 5.786,5.607 v 26.359 h -0.04 z"
   id="path3984"
   style="fill:#ffffff" />
<path
   d="m 100.623,33.854 0.04,26.161 c 0,3.062 -2.691,5.726 -5.786,5.726 H 7.493 c -3.054,0 -5.545,-2.664 -5.545,-5.726 L 1.988,34.014 V 7.137 c 0,-2.903 2.29,-5.249 5.183,-5.249 h 87.706 c 3.054,0 5.786,2.465 5.786,5.607 v 26.359 h -0.04 z"
   id="path3986"
   style="fill:none;stroke:#ffffff;stroke-width:0.2;stroke-miterlimit:3.86299992" />
<path
   d="m 98.976,33.815 0.04,26.16 c 0,2.148 -1.929,4.017 -4.058,4.017 H 7.572 c -2.129,0 -3.937,-1.789 -3.937,-3.937 V 33.974 L 3.675,7.535 c 0,-2.147 1.808,-3.937 3.937,-3.937 h 87.426 c 2.129,0 3.857,1.829 3.857,3.977 l 0.081,26.24 z"
   id="path3988"
   style="fill:#00a650" />
<path
   d="m 98.976,33.815 0.04,26.16 c 0,2.148 -1.929,4.017 -4.058,4.017 H 7.572 c -2.129,0 -3.937,-1.789 -3.937,-3.937 V 33.974 L 3.675,7.535 c 0,-2.147 1.808,-3.937 3.937,-3.937 h 87.426 c 2.129,0 3.857,1.829 3.857,3.977 l 0.081,26.24 z"
   id="path3990"
   style="fill:none;stroke:#00a650;stroke-width:0.2;stroke-miterlimit:3.86299992" />
<polygon
   points="8.698,55.721 8.698,11.908 29.831,11.908 29.831,17.156 14.965,17.156 14.965,30.396 24.447,30.396 24.447,36.121 15.166,36.081 15.166,50.354 29.75,50.354 29.75,55.721 "
   id="polygon3992"
   style="fill:#ffffff" />
<polygon
   points="8.698,55.721 8.698,11.908 29.831,11.908 29.831,17.156 14.965,17.156 14.965,30.396 24.447,30.396 24.447,36.121 15.166,36.081 15.166,50.354 29.75,50.354 29.75,55.721 "
   id="polygon3994"
   style="fill:none;stroke:#ffffff;stroke-width:0.12;stroke-miterlimit:3.86299992" />





<polygon
   points="56.269,42.401 46.866,42.401 56.269,23.555 "
   id="polygon4006"
   style="fill:#00a650" />
<polygon
   points="56.269,42.401 46.866,42.401 56.269,23.555 "
   id="polygon4008"
   style="fill:none;stroke:#00a650;stroke-width:0.12;stroke-miterlimit:3.86299992" />
<g
   id="text4061"
   style="font-size:12px;font-style:normal;font-variant:normal;font-weight:normal;font-stretch:normal;text-align:start;line-height:100%;writing-mode:lr-tb;text-anchor:start;fill:#ffffff;fill-opacity:1;stroke:none;font-family:Drogowskaz;-inkscape-font-specification:Drogowskaz"><path
     d="m 54.700958,48.911289 -16.586426,0 0,-5.757812 14.688965,-31.962403 8.276856,0 0,31.962403 1.930176,0 0,5.757812 -1.930176,0 0,6.935547 -6.379395,0 z m 0,-5.757812 0,-20.872071 -9.618164,20.872071 z"
     id="path4095"
     style="font-size:67px;fill:#ffffff;font-family:Snv Becker Reg Cond;-inkscape-font-specification:Snv Becker Reg Cond" /><path
     d="m 76.3909,50.089024 15.048828,0 0,5.757812 -22.311524,0 0,-5.757812 14.590821,-26.139161 c 0.523419,-0.915982 0.785137,-1.908332 0.785156,-2.97705 -1.9e-5,-1.068649 -0.294452,-2.006474 -0.883301,-2.813477 -0.937842,-1.243125 -2.21372,-1.864706 -3.827637,-1.864746 -1.286796,4e-5 -2.35548,0.436237 -3.206054,1.308594 -1.155934,1.155961 -1.733896,2.584508 -1.733887,4.285644 l 0,0.850586 -6.379395,0 0,-0.850586 c -2e-6,-2.508101 0.741533,-4.754518 2.22461,-6.739258 1.025059,-1.373981 2.322746,-2.47538 3.893066,-3.304199 1.657542,-0.872351 3.380522,-1.308548 5.168946,-1.308594 2.202783,4.6e-5 4.231101,0.632532 6.084961,1.897461 1.67934,1.134157 2.955217,2.628134 3.827636,4.481934 0.741512,1.54854 1.11228,3.184281 1.112305,4.907227 -2.5e-5,1.941112 -0.523462,3.827667 -1.570313,5.659668 z"
     id="path4097"
     style="font-size:67px;fill:#ffffff;font-family:Snv Becker Reg Cond;-inkscape-font-specification:Snv Becker Reg Cond" /></g></svg>