<?xml version="1.0" encoding="UTF-8" standalone="no"?>
<!-- Created with Inkscape (http://www.inkscape.org/) -->

<svg
   xmlns:svg="http://www.w3.org/2000/svg"
   xmlns="http://www.w3.org/2000/svg"
   version="1.1"
   width="119.42223"
   height="67.587753"
   viewBox="0 0 119.42222 67.587757"
   id="Calque_1"
   xml:space="preserve"><defs
   id="defs4012" />
<path
   d="m 0.11361326,33.972817 0,-26.4297803 c 0,-4.1335581 3.92808294,-7.47239344 8.60453844,-7.47239344 l 101.7041683,0 c 4.81729,0 8.74421,3.33783564 8.74421,7.47239344 l 0.0943,26.4297803 0.0943,25.952947 c 0,4.133558 -4.16202,7.591352 -8.97931,7.591352 l -101.6576183,0 c -4.7230105,0 -8.6510935,-3.338835 -8.6510935,-7.392421 l 0,-26.310822 0.04655506,0.158944 z"
   id="path3980"
   style="fill:#00a650" />
<path
   d="m 0.11123768,33.972848 0,-26.4344178 c 0,-4.1342834 3.92823952,-7.47370466 8.60488142,-7.47370466 l 101.7082209,0 c 4.81749,0 8.74456,3.33842136 8.74456,7.47370466 l 0.0943,26.4344178 0.0943,25.957502 c 0,4.134283 -4.16219,7.592684 -8.97967,7.592684 l -101.6616709,0 c -4.7231988,0 -8.65143834,-3.339421 -8.65143834,-7.393718 l 0,-26.315439 0.04655692,0.158971 z"
   id="path3982"
   style="fill:none;stroke:#00a650;stroke-width:0.12945108;stroke-miterlimit:3.86299992" />
<path
   d="m 117.43008,33.852859 0.0465,26.151877 c 0,3.060933 -3.13289,5.724004 -6.73612,5.724004 l -101.7332849,0 c -3.5554962,0 -6.4555424,-2.663071 -6.4555424,-5.724004 l 0.046569,-25.991932 0,-26.8676285 c 0,-2.9019877 2.66604,-5.2471696 6.0340985,-5.2471696 l 102.1081598,0 c 3.5555,0 6.73612,2.4641404 6.73612,5.6050447 l 0,26.3498084 -0.0465,0 z"
   id="path3984"
   style="fill:#ffffff" />
<path
   d="m 117.11225,33.852869 0.0465,26.156466 c 0,3.061471 -3.13212,5.725009 -6.73446,5.725009 l -101.7082251,0 c -3.5546203,0 -6.4539521,-2.663538 -6.4539521,-5.725009 l 0.046557,-25.996493 0,-26.8723428 c 0,-2.9024969 2.6653833,-5.2480904 6.032612,-5.2480904 l 102.0830082,0 c 3.55463,0 6.73446,2.4645728 6.73446,5.6060283 l 0,26.3544319 -0.0465,0 z"
   id="path3986"
   style="fill:none;stroke:#ffffff;stroke-width:0.21575181;stroke-miterlimit:3.86299992" />
<path
   d="m 115.19527,33.813877 0.0465,26.155465 c 0,2.147629 -2.24521,4.016304 -4.7232,4.016304 l -101.710555,0 c -2.477992,0 -4.5823644,-1.788689 -4.5823644,-3.936317 l 0,-26.076481 0.046557,-26.4344178 c 0,-2.146628 2.1043724,-3.9363177 4.5823643,-3.9363177 l 101.7571081,0 c 2.478,0 4.48925,1.828683 4.48925,3.9763107 l 0.0943,26.2354538 z"
   id="path3988"
   style="fill:#00a650" />
<path
   d="m 115.19527,33.813877 0.0465,26.155465 c 0,2.147629 -2.24521,4.016304 -4.7232,4.016304 l -101.710555,0 c -2.477992,0 -4.5823644,-1.788689 -4.5823644,-3.936317 l 0,-26.076481 0.046557,-26.4344178 c 0,-2.146628 2.1043724,-3.9363177 4.5823634,-3.9363177 l 101.757109,0 c 2.478,0 4.48925,1.828683 4.48925,3.9763107 l 0.0943,26.2354538 z"
   id="path3990"
   style="fill:none;stroke:#00a650;stroke-width:0.21575181;stroke-miterlimit:3.86299992" />

<g
   transform="translate(4.6933581,0.60641241)"
   id="g4104"
   style="fill:#ffffff"><path
     d="m 8.698,55.721 0,-43.813 21.133,0 0,5.248 -14.866,0 0,13.24 9.482,0 0,5.725 -9.281,-0.04 0,14.273 14.584,0 0,5.367 z"
     id="polygon3992"
     style="fill:#ffffff" /><path
     d="m 8.698,55.721 0,-43.813 21.133,0 0,5.248 -14.866,0 0,13.24 9.482,0 0,5.725 -9.281,-0.04 0,14.273 14.584,0 0,5.367 z"
     id="polygon3994"
     style="fill:#ffffff;stroke:#ffffff;stroke-width:0.12;stroke-miterlimit:3.86299992" /></g>





<path
   d="m 61.664629,42.396878 12.374524,-18.839428 0,18.839428 z"
   id="polygon4006"
   style="fill:#00a650" />
<path
   d="m 61.664629,42.396878 12.374524,-18.839428 0,18.839428 z"
   id="polygon4008"
   style="fill:none;stroke:#00a650;stroke-width:0.13763742;stroke-miterlimit:3.86299992" />
<g
   transform="translate(-0.00175812,0.00182455)"
   id="text4061"
   style="font-size:12px;font-style:normal;font-variant:normal;font-weight:normal;font-stretch:normal;text-align:start;line-height:100%;writing-mode:lr-tb;text-anchor:start;fill:#ffffff;fill-opacity:1;stroke:none;font-family:Drogowskaz;-inkscape-font-specification:Drogowskaz" /><g
   id="text4061-1"
   style="font-size:12.00000095px;font-style:normal;font-variant:normal;font-weight:normal;font-stretch:normal;text-align:start;line-height:100%;writing-mode:lr-tb;text-anchor:start;fill:#ffffff;fill-opacity:1;stroke:none;font-family:Drogowskaz;-inkscape-font-specification:Drogowskaz"><path
     d="m 59.75803,49.758984 -16.586426,0 0,-5.757813 14.688965,-31.962402 8.276855,0 0,31.962402 1.930176,0 0,5.757813 -1.930176,0 0,6.935546 -6.379394,0 z m 0,-5.757813 0,-20.87207 -9.618164,20.87207 z"
     id="path4187"
     style="font-size:67px;fill:#ffffff;font-family:Snv Becker Reg Cond;-inkscape-font-specification:Snv Becker Reg Cond" /><path
     d="m 83.705296,12.038769 0,44.655761 -6.379395,0 0,-34.088867 -3.729492,0 0,-3.794922 3.729492,-6.771972 z"
     id="path4189"
     style="font-size:67px;fill:#ffffff;font-family:Snv Becker Reg Cond;-inkscape-font-specification:Snv Becker Reg Cond" /><path
     d="m 102.02561,12.038769 0,44.655761 -6.379396,0 0,-34.088867 -3.729493,0 0,-3.794922 3.729493,-6.771972 z"
     id="path4191"
     style="font-size:67px;fill:#ffffff;font-family:Snv Becker Reg Cond;-inkscape-font-specification:Snv Becker Reg Cond" /></g></svg>