<?xml version="1.0" encoding="UTF-8" standalone="no"?>
<!-- Created with Inkscape (http://www.inkscape.org/) -->

<svg
   xmlns:svg="http://www.w3.org/2000/svg"
   xmlns="http://www.w3.org/2000/svg"
   version="1.1"
   width="135.01901"
   height="67.584106"
   viewBox="0 0 135.01901 67.58411"
   id="Calque_1"
   xml:space="preserve"><defs
   id="defs4012" />
<path
   d="m 0.12145707,33.970992 0,-26.4297799 c 0,-4.1335581 4.44156293,-7.47239339 9.72932593,-7.47239339 l 114.998967,0 c 5.44701,0 9.88725,3.33783559 9.88725,7.47239339 l 0.1066,26.4297799 0.1066,25.952947 c 0,4.133558 -4.70608,7.591352 -10.15309,7.591352 l -114.946327,0 c -5.3404037,0 -9.78196668,-3.338835 -9.78196668,-7.392421 l 0,-26.310822 0.05264075,0.158944 z"
   id="path3980"
   style="fill:#00a650" />
<path
   d="m 0.12145707,33.970992 0,-26.4297799 c 0,-4.1335581 4.44156293,-7.47239339 9.72932593,-7.47239339 l 114.998967,0 c 5.44701,0 9.88725,3.33783559 9.88725,7.47239339 l 0.1066,26.4297799 0.1066,25.952947 c 0,4.133558 -4.70608,7.591352 -10.15309,7.591352 l -114.946327,0 c -5.3404037,0 -9.78196668,-3.338835 -9.78196668,-7.392421 l 0,-26.310822 0.05264075,0.158944 z"
   id="path3982"
   style="fill:none;stroke:#00a650;stroke-width:0.13763742;stroke-miterlimit:3.86299992" />
<path
   d="m 132.4116,33.851034 0.0526,26.151877 c 0,3.060933 -3.54141,5.724004 -7.61449,5.724004 l -114.9989657,0 c -4.019121,0 -7.2973235,-2.663071 -7.2973235,-5.724004 l 0.052641,-25.991932 0,-26.8676281 c 0,-2.9019877 3.0136827,-5.2471696 6.8209247,-5.2471696 l 115.4227235,0 c 4.01913,0 7.61449,2.4641404 7.61449,5.6050447 l 0,26.349808 -0.0526,0 z"
   id="path3984"
   style="fill:#ffffff" />
<path
   d="m 132.4116,33.851034 0.0526,26.151877 c 0,3.060933 -3.54141,5.724004 -7.61449,5.724004 l -114.9989657,0 c -4.019121,0 -7.2973235,-2.663071 -7.2973235,-5.724004 l 0.052641,-25.991932 0,-26.8676281 c 0,-2.9019877 3.0136827,-5.2471696 6.8209247,-5.2471696 l 115.4227235,0 c 4.01913,0 7.61449,2.4641404 7.61449,5.6050447 l 0,26.349808 -0.0526,0 z"
   id="path3986"
   style="fill:none;stroke:#ffffff;stroke-width:0.2293957;stroke-miterlimit:3.86299992" />
<path
   d="m 130.24412,33.812048 0.0526,26.150877 c 0,2.147252 -2.53861,4.015599 -5.34041,4.015599 l -115.0016,0 c -2.801804,0 -5.1811657,-1.788375 -5.1811657,-3.935626 l 0,-26.071906 0.052641,-26.4297799 c 0,-2.1462514 2.3793617,-3.9356271 5.1811657,-3.9356271 l 115.054239,0 c 2.80181,0 5.07589,1.8283622 5.07589,3.9756131 l 0.1066,26.2308499 z"
   id="path3988"
   style="fill:#00a650" />
<path
   d="m 130.24412,33.812048 0.0526,26.150877 c 0,2.147252 -2.53861,4.015599 -5.34041,4.015599 l -115.0016,0 c -2.801804,0 -5.1811657,-1.788375 -5.1811657,-3.935626 l 0,-26.071906 0.052641,-26.4297799 c 0,-2.1462514 2.3793617,-3.9356271 5.1811647,-3.9356271 l 115.05424,0 c 2.80181,0 5.07589,1.8283622 5.07589,3.9756131 l 0.1066,26.2308499 z"
   id="path3990"
   style="fill:none;stroke:#00a650;stroke-width:0.2293957;stroke-miterlimit:3.86299992" />

<g
   transform="translate(4.6951162,0.60458786)"
   id="g4104"
   style="fill:#ffffff"><polygon
     points="8.698,11.908 29.831,11.908 29.831,17.156 14.965,17.156 14.965,30.396 24.447,30.396 24.447,36.121 15.166,36.081 15.166,50.354 29.75,50.354 29.75,55.721 8.698,55.721 "
     id="polygon3992"
     style="fill:#ffffff" /><polygon
     points="8.698,11.908 29.831,11.908 29.831,17.156 14.965,17.156 14.965,30.396 24.447,30.396 24.447,36.121 15.166,36.081 15.166,50.354 29.75,50.354 29.75,55.721 8.698,55.721 "
     id="polygon3994"
     style="fill:#ffffff;stroke:#ffffff;stroke-width:0.12;stroke-miterlimit:3.86299992" /></g>





<polygon
   points="56.269,23.555 56.269,42.401 46.866,42.401 "
   transform="matrix(1.3160187,0,0,0.99965128,-0.01014479,0.00883963)"
   id="polygon4006"
   style="fill:#00a650" />
<polygon
   points="56.269,23.555 56.269,42.401 46.866,42.401 "
   transform="matrix(1.3160187,0,0,0.99965128,-0.01014479,0.00883963)"
   id="polygon4008"
   style="fill:none;stroke:#00a650;stroke-width:0.12;stroke-miterlimit:3.86299992" />
<g
   id="text4061"
   style="font-size:12px;font-style:normal;font-variant:normal;font-weight:normal;font-stretch:normal;text-align:start;line-height:100%;writing-mode:lr-tb;text-anchor:start;fill:#ffffff;fill-opacity:1;stroke:none;font-family:Drogowskaz;-inkscape-font-specification:Drogowskaz"><path
     d="m 57.718418,49.515869 -16.586426,0 0,-5.757812 14.688965,-31.962403 8.276856,0 0,31.962403 1.930175,0 0,5.757812 -1.930175,0 0,6.935547 -6.379395,0 z m 0,-5.757812 0,-20.872071 -9.618164,20.872071 z"
     id="path4208"
     style="font-size:67px;fill:#ffffff;font-family:Snv Becker Reg Cond;-inkscape-font-specification:Snv Becker Reg Cond" /><path
     d="m 79.40836,50.693604 15.048828,0 0,5.757812 -22.311524,0 0,-5.757812 14.590821,-26.139161 c 0.523419,-0.915982 0.785137,-1.908332 0.785156,-2.97705 -1.9e-5,-1.068649 -0.294452,-2.006474 -0.883301,-2.813477 -0.937842,-1.243125 -2.21372,-1.864707 -3.827637,-1.864746 -1.286796,3.9e-5 -2.35548,0.436237 -3.206054,1.308594 -1.155935,1.155961 -1.733896,2.584508 -1.733887,4.285644 l 0,0.850586 -6.379395,0 0,-0.850586 c -2e-6,-2.508101 0.741533,-4.754518 2.22461,-6.739258 1.025059,-1.373981 2.322746,-2.47538 3.893066,-3.304199 1.657542,-0.872351 3.380522,-1.308548 5.168945,-1.308594 2.202784,4.6e-5 4.231102,0.632532 6.084961,1.897461 1.679341,1.134157 2.955218,2.628134 3.827637,4.481934 0.741512,1.54854 1.11228,3.18428 1.112305,4.907227 -2.5e-5,1.941112 -0.523462,3.827666 -1.570313,5.659667 z"
     id="path4210"
     style="font-size:67px;fill:#ffffff;font-family:Snv Becker Reg Cond;-inkscape-font-specification:Snv Becker Reg Cond" /><path
     d="m 117.06314,35.317627 c -1.11232,0.567078 -1.97381,0.959656 -2.58447,1.177734 -0.95965,0.348978 -2.06105,0.523457 -3.3042,0.523438 -3.53321,1.9e-5 -6.30306,-1.221334 -8.30957,-3.664063 -1.59212,-1.941055 -2.38818,-4.176567 -2.38818,-6.706543 l 0,-3.794922 c 0,-2.944299 0.90511,-5.474244 2.71533,-7.589843 2.33365,-2.748003 5.26708,-4.122025 8.80029,-4.122071 2.87889,4.6e-5 5.38703,0.905156 7.52442,2.715332 2.61716,2.18103 3.92575,5.179888 3.92578,8.996582 l 0,22.638672 c -3e-5,2.420907 -0.53437,4.50375 -1.60303,6.248536 -0.93785,1.548505 -2.24644,2.802573 -3.92578,3.762207 -1.87567,1.068684 -3.84946,1.603026 -5.92139,1.603027 -2.74805,-1e-6 -5.17986,-0.872396 -7.29541,-2.617188 -2.81348,-2.290034 -4.22021,-5.288892 -4.22021,-8.996582 l 0,-1.766601 6.37939,0 0,2.519043 c -1e-5,1.177743 0.39257,2.246427 1.17774,3.206054 1.00324,1.26498 2.31183,1.897466 3.92578,1.897461 1.85382,5e-6 3.29328,-0.730625 4.31836,-2.191894 0.52342,-0.741529 0.78513,-1.712068 0.78515,-2.911621 z m 0,-8.669434 0,-4.351074 c -2e-5,-1.286748 -0.30535,-2.377242 -0.91601,-3.271484 -0.98146,-1.417605 -2.36639,-2.126426 -4.15479,-2.126465 -1.67937,3.9e-5 -3.03158,0.654336 -4.05664,1.962891 -0.71973,0.916052 -1.0796,2.06107 -1.07959,3.435058 l 0,4.351074 c -1e-5,1.112334 0.35986,2.170113 1.07959,3.17334 0.98144,1.395859 2.35546,2.093775 4.12207,2.09375 1.1341,2.5e-5 2.13736,-0.327123 3.00977,-0.981445 1.33038,-1.003229 1.99558,-2.431776 1.9956,-4.285645 z"
     id="path4212"
     style="font-size:67px;fill:#ffffff;font-family:Snv Becker Reg Cond;-inkscape-font-specification:Snv Becker Reg Cond" /></g></svg>