<?xml version="1.0" encoding="UTF-8" standalone="no"?>
<!-- Created with Inkscape (http://www.inkscape.org/) -->

<svg
   xmlns:dc="http://purl.org/dc/elements/1.1/"
   xmlns:cc="http://creativecommons.org/ns#"
   xmlns:rdf="http://www.w3.org/1999/02/22-rdf-syntax-ns#"
   xmlns:svg="http://www.w3.org/2000/svg"
   xmlns="http://www.w3.org/2000/svg"
   xmlns:sodipodi="http://sodipodi.sourceforge.net/DTD/sodipodi-0.dtd"
   xmlns:inkscape="http://www.inkscape.org/namespaces/inkscape"
   version="1.1"
   width="119.42223"
   height="67.587753"
   viewBox="0 0 119.42222 67.587757"
   id="Calque_1"
   xml:space="preserve"
   inkscape:version="0.48.0 r9654"
   sodipodi:docname="BE-E313.svg"><metadata
   id="metadata21"><rdf:RDF><cc:Work
       rdf:about=""><dc:format>image/svg+xml</dc:format><dc:type
         rdf:resource="http://purl.org/dc/dcmitype/StillImage" /><dc:title></dc:title></cc:Work></rdf:RDF></metadata><sodipodi:namedview
   pagecolor="#ffffff"
   bordercolor="#666666"
   borderopacity="1"
   objecttolerance="10"
   gridtolerance="10"
   guidetolerance="10"
   inkscape:pageopacity="0"
   inkscape:pageshadow="2"
   inkscape:window-width="640"
   inkscape:window-height="480"
   id="namedview19"
   showgrid="false"
   inkscape:zoom="4.0193521"
   inkscape:cx="59.711117"
   inkscape:cy="33.793877"
   inkscape:window-x="0"
   inkscape:window-y="0"
   inkscape:window-maximized="0"
   inkscape:current-layer="Calque_1" /><defs
   id="defs4012" />
<path
   d="m 0.11361326,33.972817 0,-26.4297803 c 0,-4.1335581 3.92808294,-7.47239344 8.60453844,-7.47239344 l 101.7041683,0 c 4.81729,0 8.74421,3.33783564 8.74421,7.47239344 l 0.0943,26.4297803 0.0943,25.952947 c 0,4.133558 -4.16202,7.591352 -8.97931,7.591352 l -101.6576183,0 c -4.7230105,0 -8.6510935,-3.338835 -8.6510935,-7.392421 l 0,-26.310822 0.04655506,0.158944 z"
   id="path3980"
   style="fill:#00a650" />
<path
   d="m 0.11123768,33.972848 0,-26.4344178 c 0,-4.1342834 3.92823952,-7.47370466 8.60488142,-7.47370466 l 101.7082209,0 c 4.81749,0 8.74456,3.33842136 8.74456,7.47370466 l 0.0943,26.4344178 0.0943,25.957502 c 0,4.134283 -4.16219,7.592684 -8.97967,7.592684 l -101.6616709,0 c -4.7231988,0 -8.65143834,-3.339421 -8.65143834,-7.393718 l 0,-26.315439 0.04655692,0.158971 z"
   id="path3982"
   style="fill:none;stroke:#00a650;stroke-width:0.12945108;stroke-miterlimit:3.86299992" />
<path
   d="m 117.43008,33.852859 0.0465,26.151877 c 0,3.060933 -3.13289,5.724004 -6.73612,5.724004 l -101.7332849,0 c -3.5554962,0 -6.4555424,-2.663071 -6.4555424,-5.724004 l 0.046569,-25.991932 0,-26.8676285 c 0,-2.9019877 2.66604,-5.2471696 6.0340985,-5.2471696 l 102.1081598,0 c 3.5555,0 6.73612,2.4641404 6.73612,5.6050447 l 0,26.3498084 -0.0465,0 z"
   id="path3984"
   style="fill:#ffffff" />
<path
   d="m 117.11225,33.852869 0.0465,26.156466 c 0,3.061471 -3.13212,5.725009 -6.73446,5.725009 l -101.7082251,0 c -3.5546203,0 -6.4539521,-2.663538 -6.4539521,-5.725009 l 0.046557,-25.996493 0,-26.8723428 c 0,-2.9024969 2.6653833,-5.2480904 6.032612,-5.2480904 l 102.0830082,0 c 3.55463,0 6.73446,2.4645728 6.73446,5.6060283 l 0,26.3544319 -0.0465,0 z"
   id="path3986"
   style="fill:none;stroke:#ffffff;stroke-width:0.21575181;stroke-miterlimit:3.86299992" />
<path
   d="m 115.19527,33.813877 0.0465,26.155465 c 0,2.147629 -2.24521,4.016304 -4.7232,4.016304 l -101.710555,0 c -2.477992,0 -4.5823644,-1.788689 -4.5823644,-3.936317 l 0,-26.076481 0.046557,-26.4344178 c 0,-2.146628 2.1043724,-3.9363177 4.5823643,-3.9363177 l 101.7571081,0 c 2.478,0 4.48925,1.828683 4.48925,3.9763107 l 0.0943,26.2354538 z"
   id="path3988"
   style="fill:#00a650" />
<path
   d="m 115.19527,33.813877 0.0465,26.155465 c 0,2.147629 -2.24521,4.016304 -4.7232,4.016304 l -101.710555,0 c -2.477992,0 -4.5823644,-1.788689 -4.5823644,-3.936317 l 0,-26.076481 0.046557,-26.4344178 c 0,-2.146628 2.1043724,-3.9363177 4.5823634,-3.9363177 l 101.757109,0 c 2.478,0 4.48925,1.828683 4.48925,3.9763107 l 0.0943,26.2354538 z"
   id="path3990"
   style="fill:none;stroke:#00a650;stroke-width:0.21575181;stroke-miterlimit:3.86299992" />

<g
   transform="translate(4.6933581,0.60641241)"
   id="g4104"
   style="fill:#ffffff"><path
     d="m 8.698,55.721 0,-43.813 21.133,0 0,5.248 -14.866,0 0,13.24 9.482,0 0,5.725 -9.281,-0.04 0,14.273 14.584,0 0,5.367 z"
     id="polygon3992"
     style="fill:#ffffff" /><path
     d="m 8.698,55.721 0,-43.813 21.133,0 0,5.248 -14.866,0 0,13.24 9.482,0 0,5.725 -9.281,-0.04 0,14.273 14.584,0 0,5.367 z"
     id="polygon3994"
     style="fill:#ffffff;stroke:#ffffff;stroke-width:0.12;stroke-miterlimit:3.86299992" /></g>





<path
   d="m 61.664629,42.396878 12.374524,-18.839428 0,18.839428 z"
   id="polygon4006"
   style="fill:#00a650" />
<path
   d="m 61.664629,42.396878 12.374524,-18.839428 0,18.839428 z"
   id="polygon4008"
   style="fill:none;stroke:#00a650;stroke-width:0.13763742;stroke-miterlimit:3.86299992" />
<path
   inkscape:connector-curvature="0"
   d="m 106.31454,11.921166 0,44.655764 -6.379394,0 0,-34.088868 -3.729492,0 0,-3.794923 3.729492,-6.771973 z"
   id="path4130-1"
   style="font-size:67px;font-style:normal;font-variant:normal;font-weight:normal;font-stretch:normal;text-align:start;line-height:100%;writing-mode:lr-tb;text-anchor:start;fill:#ffffff;fill-opacity:1;stroke:none;font-family:Snv Becker Reg Cond;-inkscape-font-specification:Snv Becker Reg Cond" /><path
   d="m 76.297695,50.89747 15.048829,0 0,5.757812 -22.311525,0 0,-5.757812 14.590822,-26.139162 c 0.523419,-0.915982 0.785137,-1.908332 0.785156,-2.97705 -1.9e-5,-1.068649 -0.294452,-2.006474 -0.883301,-2.813477 -0.937842,-1.243126 -2.21372,-1.864708 -3.827637,-1.864747 -1.286797,3.9e-5 -2.355481,0.436237 -3.206055,1.308595 -1.155935,1.155961 -1.733896,2.584508 -1.733887,4.285644 l 0,0.850586 -6.379395,0 0,-0.850586 c -2e-6,-2.508101 0.741533,-4.754518 2.22461,-6.739259 1.025059,-1.373981 2.322746,-2.47538 3.893066,-3.304199 1.657542,-0.872351 3.380523,-1.308548 5.168946,-1.308594 2.202784,4.6e-5 4.231102,0.632532 6.084961,1.897461 1.679341,1.134157 2.955218,2.628134 3.827637,4.481934 0.741512,1.548541 1.11228,3.184281 1.112305,4.907228 -2.5e-5,1.941112 -0.523462,3.827666 -1.570313,5.659667 z"
   id="path4210"
   style="font-size:67px;font-style:normal;font-variant:normal;font-weight:normal;font-stretch:normal;text-align:start;line-height:100%;writing-mode:lr-tb;text-anchor:start;fill:#ffffff;fill-opacity:1;stroke:none;font-family:Snv Becker Reg Cond;-inkscape-font-specification:Snv Becker Reg Cond"
   inkscape:connector-curvature="0"
   inkscape:transform-center-y="9.7030565" /><path
   d="m 55.390464,49.890179 -16.586427,0 0,-5.757812 14.688966,-31.962405 8.276856,0 0,31.962405 1.930175,0 0,5.757812 -1.930175,0 0,6.935547 -6.379395,0 z m 0,-5.757812 0,-20.872072 -9.618165,20.872072 z"
   id="path4208"
   style="font-size:67px;font-style:normal;font-variant:normal;font-weight:normal;font-stretch:normal;text-align:start;line-height:100%;writing-mode:lr-tb;text-anchor:start;fill:#ffffff;fill-opacity:1;stroke:none;font-family:Snv Becker Reg Cond;-inkscape-font-specification:Snv Becker Reg Cond"
   inkscape:connector-curvature="0" /></svg>