<?xml version="1.0" encoding="UTF-8" standalone="no"?>
<!-- Created with Inkscape (http://www.inkscape.org/) -->

<svg
   xmlns:svg="http://www.w3.org/2000/svg"
   xmlns="http://www.w3.org/2000/svg"
   version="1.1"
   width="119.42223"
   height="67.587753"
   viewBox="0 0 119.42222 67.587757"
   id="Calque_1"
   xml:space="preserve"><defs
   id="defs4012" />
<path
   d="m 0.11361326,33.972817 0,-26.4297803 c 0,-4.1335581 3.92808294,-7.47239344 8.60453844,-7.47239344 l 101.7041683,0 c 4.81729,0 8.74421,3.33783564 8.74421,7.47239344 l 0.0943,26.4297803 0.0943,25.952947 c 0,4.133558 -4.16202,7.591352 -8.97931,7.591352 l -101.6576183,0 c -4.7230105,0 -8.6510935,-3.338835 -8.6510935,-7.392421 l 0,-26.310822 0.04655506,0.158944 z"
   id="path3980"
   style="fill:#00a650" />
<path
   d="m 0.11123768,33.972848 0,-26.4344178 c 0,-4.1342834 3.92823952,-7.47370466 8.60488142,-7.47370466 l 101.7082209,0 c 4.81749,0 8.74456,3.33842136 8.74456,7.47370466 l 0.0943,26.4344178 0.0943,25.957502 c 0,4.134283 -4.16219,7.592684 -8.97967,7.592684 l -101.6616709,0 c -4.7231988,0 -8.65143834,-3.339421 -8.65143834,-7.393718 l 0,-26.315439 0.04655692,0.158971 z"
   id="path3982"
   style="fill:none;stroke:#00a650;stroke-width:0.12945108;stroke-miterlimit:3.86299992" />
<path
   d="m 117.43008,33.852859 0.0465,26.151877 c 0,3.060933 -3.13289,5.724004 -6.73612,5.724004 l -101.7332849,0 c -3.5554962,0 -6.4555424,-2.663071 -6.4555424,-5.724004 l 0.046569,-25.991932 0,-26.8676285 c 0,-2.9019877 2.66604,-5.2471696 6.0340985,-5.2471696 l 102.1081598,0 c 3.5555,0 6.73612,2.4641404 6.73612,5.6050447 l 0,26.3498084 -0.0465,0 z"
   id="path3984"
   style="fill:#ffffff" />
<path
   d="m 117.11225,33.852869 0.0465,26.156466 c 0,3.061471 -3.13212,5.725009 -6.73446,5.725009 l -101.7082251,0 c -3.5546203,0 -6.4539521,-2.663538 -6.4539521,-5.725009 l 0.046557,-25.996493 0,-26.8723428 c 0,-2.9024969 2.6653833,-5.2480904 6.032612,-5.2480904 l 102.0830082,0 c 3.55463,0 6.73446,2.4645728 6.73446,5.6060283 l 0,26.3544319 -0.0465,0 z"
   id="path3986"
   style="fill:none;stroke:#ffffff;stroke-width:0.21575181;stroke-miterlimit:3.86299992" />
<path
   d="m 115.19527,33.813877 0.0465,26.155465 c 0,2.147629 -2.24521,4.016304 -4.7232,4.016304 l -101.710555,0 c -2.477992,0 -4.5823644,-1.788689 -4.5823644,-3.936317 l 0,-26.076481 0.046557,-26.4344178 c 0,-2.146628 2.1043724,-3.9363177 4.5823643,-3.9363177 l 101.7571081,0 c 2.478,0 4.48925,1.828683 4.48925,3.9763107 l 0.0943,26.2354538 z"
   id="path3988"
   style="fill:#00a650" />
<path
   d="m 115.19527,33.813877 0.0465,26.155465 c 0,2.147629 -2.24521,4.016304 -4.7232,4.016304 l -101.710555,0 c -2.477992,0 -4.5823644,-1.788689 -4.5823644,-3.936317 l 0,-26.076481 0.046557,-26.4344178 c 0,-2.146628 2.1043724,-3.9363177 4.5823634,-3.9363177 l 101.757109,0 c 2.478,0 4.48925,1.828683 4.48925,3.9763107 l 0.0943,26.2354538 z"
   id="path3990"
   style="fill:none;stroke:#00a650;stroke-width:0.21575181;stroke-miterlimit:3.86299992" />

<g
   transform="translate(4.6933581,0.60641241)"
   id="g4104"
   style="fill:#ffffff"><path
     d="m 8.698,55.721 0,-43.813 21.133,0 0,5.248 -14.866,0 0,13.24 9.482,0 0,5.725 -9.281,-0.04 0,14.273 14.584,0 0,5.367 z"
     id="polygon3992"
     style="fill:#ffffff" /><path
     d="m 8.698,55.721 0,-43.813 21.133,0 0,5.248 -14.866,0 0,13.24 9.482,0 0,5.725 -9.281,-0.04 0,14.273 14.584,0 0,5.367 z"
     id="polygon3994"
     style="fill:#ffffff;stroke:#ffffff;stroke-width:0.12;stroke-miterlimit:3.86299992" /></g>





<path
   d="m 61.664629,42.396878 12.374524,-18.839428 0,18.839428 z"
   id="polygon4006"
   style="fill:#00a650" />
<path
   d="m 61.664629,42.396878 12.374524,-18.839428 0,18.839428 z"
   id="polygon4008"
   style="fill:none;stroke:#00a650;stroke-width:0.13763742;stroke-miterlimit:3.86299992" />
<g
   transform="translate(-0.00175812,0.00182455)"
   id="text4061"
   style="font-size:12px;font-style:normal;font-variant:normal;font-weight:normal;font-stretch:normal;text-align:start;line-height:100%;writing-mode:lr-tb;text-anchor:start;fill:#ffffff;fill-opacity:1;stroke:none;font-family:Drogowskaz;-inkscape-font-specification:Drogowskaz"><path
     d="m 47.190655,30.377686 2.649902,0 c 1.09048,0.02183 2.050115,-0.316218 2.878906,-1.014161 1.003238,-0.872367 1.504865,-1.984671 1.504883,-3.336914 l 0,-4.612793 c -1.8e-5,-1.243127 -0.403501,-2.279096 -1.210449,-3.10791 -0.916032,-0.959596 -1.99562,-1.439413 -3.23877,-1.439453 -1.548514,4e-5 -2.791677,0.676146 -3.729492,2.02832 -0.501637,0.719764 -0.75245,1.559444 -0.752441,2.519043 l 0,1.864746 -6.34668,0 0,-1.079589 c -3e-6,-2.377242 0.610674,-4.460085 1.832031,-6.248536 0.98144,-1.439411 2.213698,-2.573524 3.696778,-3.402343 1.635732,-0.937781 3.391427,-1.406693 5.26709,-1.406739 2.529931,4.6e-5 4.798158,0.796106 6.804687,2.388184 2.704404,2.15922 4.056616,5.049029 4.056641,8.669434 l 0,3.827636 c -2.5e-5,1.592152 -0.414412,3.129748 -1.243164,4.612793 -0.63251,1.09052 -1.483095,2.017439 -2.551758,2.780762 1.134093,0.56708 2.115537,1.42857 2.944336,2.584473 1.00323,1.483092 1.504858,3.173357 1.504883,5.0708 l 0,4.776368 c -2.5e-5,2.617195 -0.93785,5.005376 -2.813477,7.16455 -2.333679,2.726238 -5.288917,4.089355 -8.865723,4.089356 -3.598642,-1e-6 -6.57569,-1.493977 -8.931152,-4.481934 -1.570315,-2.006504 -2.355471,-4.263826 -2.355469,-6.771972 l 0,-2.09375 6.379395,0 0,2.09375 c -9e-6,1.83204 0.621573,3.282396 1.864746,4.351074 0.916004,0.763352 1.984688,1.145024 3.206055,1.145019 2.028304,5e-6 3.500471,-0.883294 4.416503,-2.649902 0.4798,-0.916007 0.719708,-1.864736 0.719727,-2.846191 l 0,-4.645508 c -1.9e-5,-1.264958 -0.414406,-2.377261 -1.243164,-3.336914 -1.003272,-1.155905 -2.290054,-1.733867 -3.860352,-1.733887 l -2.584472,0 z"
     id="path4128"
     style="font-size:67px;fill:#ffffff;font-family:Snv Becker Reg Cond;-inkscape-font-specification:Snv Becker Reg Cond" /></g><g
   transform="translate(0,-0.85916641)"
   id="text4237"
   style="font-size:12px;font-style:normal;font-variant:normal;font-weight:normal;font-stretch:normal;text-align:start;line-height:100%;writing-mode:lr-tb;text-anchor:start;fill:#ffffff;fill-opacity:1;stroke:none;font-family:Drogowskaz;-inkscape-font-specification:Drogowskaz"><path
     d="m 77.554245,11.85424 0,45.322266 -6.474609,0 0,-34.597656 -3.785157,0 0,-3.851563 3.785157,-6.873047 z"
     id="path4242"
     style="font-size:68px;fill:#ffffff;font-family:Snv Becker Reg Cond;-inkscape-font-specification:Snv Becker Reg Cond" /><path
     d="m 100.79643,50.137444 -16.833982,0 0,-5.84375 14.908203,-32.439454 8.400389,0 0,32.439454 1.95899,0 0,5.84375 -1.95899,0 0,7.039062 -6.47461,0 z m 0,-5.84375 0,-21.183594 -9.761716,21.183594 z"
     id="path4244"
     style="font-size:68px;fill:#ffffff;font-family:Snv Becker Reg Cond;-inkscape-font-specification:Snv Becker Reg Cond" /></g></svg>