<?xml version="1.0" encoding="UTF-8" standalone="no"?>
<!-- Created with Inkscape (http://www.inkscape.org/) -->

<svg
   xmlns:svg="http://www.w3.org/2000/svg"
   xmlns="http://www.w3.org/2000/svg"
   version="1.1"
   width="102.611"
   height="67.588997"
   viewBox="0 0 102.611 67.589"
   id="Calque_1"
   xml:space="preserve"><defs
   id="defs4012" />
<path
   d="M 0.1,33.974 V 7.535 C 0.1,3.4 3.475,0.06 7.493,0.06 h 87.384 c 4.139,0 7.513,3.339 7.513,7.475 l 0.081,26.439 0.081,25.962 c 0,4.135 -3.576,7.594 -7.715,7.594 H 7.493 C 3.435,67.53 0.06,64.19 0.06,60.135 v -26.32 l 0.04,0.159 z"
   id="path3980"
   style="fill:#00a650" />
<path
   d="M 0.1,33.974 V 7.535 C 0.1,3.4 3.475,0.06 7.493,0.06 h 87.384 c 4.139,0 7.513,3.339 7.513,7.475 l 0.081,26.439 0.081,25.962 c 0,4.135 -3.576,7.594 -7.715,7.594 H 7.493 C 3.435,67.53 0.06,64.19 0.06,60.135 v -26.32 l 0.04,0.159 z"
   id="path3982"
   style="fill:none;stroke:#00a650;stroke-width:0.12;stroke-miterlimit:3.86299992" />
<path
   d="m 100.623,33.854 0.04,26.161 c 0,3.062 -2.691,5.726 -5.786,5.726 H 7.493 c -3.054,0 -5.545,-2.664 -5.545,-5.726 L 1.988,34.014 V 7.137 c 0,-2.903 2.29,-5.249 5.183,-5.249 h 87.706 c 3.054,0 5.786,2.465 5.786,5.607 v 26.359 h -0.04 z"
   id="path3984"
   style="fill:#ffffff" />
<path
   d="m 100.623,33.854 0.04,26.161 c 0,3.062 -2.691,5.726 -5.786,5.726 H 7.493 c -3.054,0 -5.545,-2.664 -5.545,-5.726 L 1.988,34.014 V 7.137 c 0,-2.903 2.29,-5.249 5.183,-5.249 h 87.706 c 3.054,0 5.786,2.465 5.786,5.607 v 26.359 h -0.04 z"
   id="path3986"
   style="fill:none;stroke:#ffffff;stroke-width:0.2;stroke-miterlimit:3.86299992" />
<path
   d="m 98.976,33.815 0.04,26.16 c 0,2.148 -1.929,4.017 -4.058,4.017 H 7.572 c -2.129,0 -3.937,-1.789 -3.937,-3.937 V 33.974 L 3.675,7.535 c 0,-2.147 1.808,-3.937 3.937,-3.937 h 87.426 c 2.129,0 3.857,1.829 3.857,3.977 l 0.081,26.24 z"
   id="path3988"
   style="fill:#00a650" />
<path
   d="m 98.976,33.815 0.04,26.16 c 0,2.148 -1.929,4.017 -4.058,4.017 H 7.572 c -2.129,0 -3.937,-1.789 -3.937,-3.937 V 33.974 L 3.675,7.535 c 0,-2.147 1.808,-3.937 3.937,-3.937 h 87.426 c 2.129,0 3.857,1.829 3.857,3.977 l 0.081,26.24 z"
   id="path3990"
   style="fill:none;stroke:#00a650;stroke-width:0.2;stroke-miterlimit:3.86299992" />

<g
   transform="translate(5.4414873,0)"
   id="g4104"><polygon
     points="8.698,11.908 29.831,11.908 29.831,17.156 14.965,17.156 14.965,30.396 24.447,30.396 24.447,36.121 15.166,36.081 15.166,50.354 29.75,50.354 29.75,55.721 8.698,55.721 "
     id="polygon3992"
     style="fill:#ffffff" /><polygon
     points="8.698,11.908 29.831,11.908 29.831,17.156 14.965,17.156 14.965,30.396 24.447,30.396 24.447,36.121 15.166,36.081 15.166,50.354 29.75,50.354 29.75,55.721 8.698,55.721 "
     id="polygon3994"
     style="fill:none;stroke:#ffffff;stroke-width:0.12;stroke-miterlimit:3.86299992" /></g>





<polygon
   points="56.269,42.401 46.866,42.401 56.269,23.555 "
   id="polygon4006"
   style="fill:#00a650" />
<polygon
   points="56.269,42.401 46.866,42.401 56.269,23.555 "
   id="polygon4008"
   style="fill:none;stroke:#00a650;stroke-width:0.12;stroke-miterlimit:3.86299992" />
<g
   id="text4061"
   style="font-size:12px;font-style:normal;font-variant:normal;font-weight:normal;font-stretch:normal;text-align:start;line-height:100%;writing-mode:lr-tb;text-anchor:start;fill:#ffffff;fill-opacity:1;stroke:none;font-family:Drogowskaz;-inkscape-font-specification:Drogowskaz"><path
     d="m 55.562366,11.191074 0,44.655762 -6.379394,0 0,-34.088867 -3.729492,0 0,-3.794922 3.729492,-6.771973 z"
     id="path4116"
     style="font-size:67px;fill:#ffffff;font-family:Snv Becker Reg Cond;-inkscape-font-specification:Snv Becker Reg Cond" /><path
     d="m 80.098499,16.948887 -9.749023,0 0,2.911621 -6.379395,0 0,-8.669434 22.965821,0 0,5.757813 -16.586426,38.897949 -6.575684,0 z"
     id="path4118"
     style="font-size:67px;fill:#ffffff;font-family:Snv Becker Reg Cond;-inkscape-font-specification:Snv Becker Reg Cond" /></g></svg>