<?xml version="1.0" encoding="UTF-8" standalone="no"?>
<!-- Created with Inkscape (http://www.inkscape.org/) -->

<svg
   xmlns:svg="http://www.w3.org/2000/svg"
   xmlns="http://www.w3.org/2000/svg"
   version="1.1"
   width="102.611"
   height="67.588997"
   viewBox="0 0 102.611 67.589"
   id="Calque_1"
   xml:space="preserve"><defs
   id="defs4012" />
<path
   d="M 0.1,33.974 V 7.535 C 0.1,3.4 3.475,0.06 7.493,0.06 h 87.384 c 4.139,0 7.513,3.339 7.513,7.475 l 0.081,26.439 0.081,25.962 c 0,4.135 -3.576,7.594 -7.715,7.594 H 7.493 C 3.435,67.53 0.06,64.19 0.06,60.135 v -26.32 l 0.04,0.159 z"
   id="path3980"
   style="fill:#00a650" />
<path
   d="M 0.1,33.974 V 7.535 C 0.1,3.4 3.475,0.06 7.493,0.06 h 87.384 c 4.139,0 7.513,3.339 7.513,7.475 l 0.081,26.439 0.081,25.962 c 0,4.135 -3.576,7.594 -7.715,7.594 H 7.493 C 3.435,67.53 0.06,64.19 0.06,60.135 v -26.32 l 0.04,0.159 z"
   id="path3982"
   style="fill:none;stroke:#00a650;stroke-width:0.12;stroke-miterlimit:3.86299992" />
<path
   d="m 100.623,33.854 0.04,26.161 c 0,3.062 -2.691,5.726 -5.786,5.726 H 7.493 c -3.054,0 -5.545,-2.664 -5.545,-5.726 L 1.988,34.014 V 7.137 c 0,-2.903 2.29,-5.249 5.183,-5.249 h 87.706 c 3.054,0 5.786,2.465 5.786,5.607 v 26.359 h -0.04 z"
   id="path3984"
   style="fill:#ffffff" />
<path
   d="m 100.623,33.854 0.04,26.161 c 0,3.062 -2.691,5.726 -5.786,5.726 H 7.493 c -3.054,0 -5.545,-2.664 -5.545,-5.726 L 1.988,34.014 V 7.137 c 0,-2.903 2.29,-5.249 5.183,-5.249 h 87.706 c 3.054,0 5.786,2.465 5.786,5.607 v 26.359 h -0.04 z"
   id="path3986"
   style="fill:none;stroke:#ffffff;stroke-width:0.2;stroke-miterlimit:3.86299992" />
<path
   d="m 98.976,33.815 0.04,26.16 c 0,2.148 -1.929,4.017 -4.058,4.017 H 7.572 c -2.129,0 -3.937,-1.789 -3.937,-3.937 V 33.974 L 3.675,7.535 c 0,-2.147 1.808,-3.937 3.937,-3.937 h 87.426 c 2.129,0 3.857,1.829 3.857,3.977 l 0.081,26.24 z"
   id="path3988"
   style="fill:#00a650" />
<path
   d="m 98.976,33.815 0.04,26.16 c 0,2.148 -1.929,4.017 -4.058,4.017 H 7.572 c -2.129,0 -3.937,-1.789 -3.937,-3.937 V 33.974 L 3.675,7.535 c 0,-2.147 1.808,-3.937 3.937,-3.937 h 87.426 c 2.129,0 3.857,1.829 3.857,3.977 l 0.081,26.24 z"
   id="path3990"
   style="fill:none;stroke:#00a650;stroke-width:0.2;stroke-miterlimit:3.86299992" />
<polygon
   points="8.698,55.721 8.698,11.908 29.831,11.908 29.831,17.156 14.965,17.156 14.965,30.396 24.447,30.396 24.447,36.121 15.166,36.081 15.166,50.354 29.75,50.354 29.75,55.721 "
   id="polygon3992"
   style="fill:#ffffff" />
<polygon
   points="8.698,55.721 8.698,11.908 29.831,11.908 29.831,17.156 14.965,17.156 14.965,30.396 24.447,30.396 24.447,36.121 15.166,36.081 15.166,50.354 29.75,50.354 29.75,55.721 "
   id="polygon3994"
   style="fill:none;stroke:#ffffff;stroke-width:0.12;stroke-miterlimit:3.86299992" />





<polygon
   points="56.269,42.401 46.866,42.401 56.269,23.555 "
   id="polygon4006"
   style="fill:#00a650" />
<polygon
   points="56.269,42.401 46.866,42.401 56.269,23.555 "
   id="polygon4008"
   style="fill:none;stroke:#00a650;stroke-width:0.12;stroke-miterlimit:3.86299992" />
<g
   id="text4061"
   style="font-size:12px;font-style:normal;font-variant:normal;font-weight:normal;font-stretch:normal;text-align:start;line-height:100%;writing-mode:lr-tb;text-anchor:start;fill:#ffffff;fill-opacity:1;stroke:none;font-family:Drogowskaz;-inkscape-font-specification:Drogowskaz"><path
     d="m 48.223419,30.918682 2.649903,0 c 1.09048,0.02184 2.050114,-0.316217 2.878906,-1.01416 1.003237,-0.872368 1.504865,-1.984672 1.504883,-3.336914 l 0,-4.612793 c -1.8e-5,-1.243128 -0.403501,-2.279097 -1.21045,-3.10791 -0.916031,-0.959597 -1.99562,-1.439414 -3.238769,-1.439453 -1.548515,3.9e-5 -2.791678,0.676145 -3.729492,2.02832 -0.501637,0.719763 -0.752451,1.559443 -0.752442,2.519043 l 0,1.864746 -6.346679,0 0,-1.07959 c -3e-6,-2.377242 0.610673,-4.460085 1.832031,-6.248535 0.98144,-1.439411 2.213697,-2.573525 3.696777,-3.402344 1.635732,-0.93778 3.391427,-1.406693 5.26709,-1.406738 2.529932,4.5e-5 4.798159,0.796106 6.804688,2.388184 2.704404,2.15922 4.056616,5.049028 4.05664,8.669433 l 0,3.827637 c -2.4e-5,1.592151 -0.414412,3.129747 -1.243164,4.612793 -0.632509,1.090519 -1.483095,2.017439 -2.551758,2.780762 1.134093,0.567079 2.115537,1.428569 2.944336,2.584472 1.003231,1.483092 1.504858,3.173357 1.504883,5.070801 l 0,4.776367 c -2.5e-5,2.617196 -0.93785,5.005377 -2.813477,7.164551 -2.333678,2.726238 -5.288916,4.089355 -8.865722,4.089355 -3.598643,0 -6.575691,-1.493977 -8.931153,-4.481933 -1.570315,-2.006505 -2.35547,-4.263827 -2.355468,-6.771973 l 0,-2.09375 6.379394,0 0,2.09375 c -8e-6,1.83204 0.621573,3.282397 1.864746,4.351074 0.916005,0.763352 1.984689,1.145025 3.206055,1.14502 2.028305,5e-6 3.500471,-0.883295 4.416504,-2.649902 0.479799,-0.916007 0.719708,-1.864737 0.719726,-2.846192 l 0,-4.645508 c -1.8e-5,-1.264957 -0.414406,-2.377261 -1.243164,-3.336914 -1.003271,-1.155904 -2.290054,-1.733866 -3.860351,-1.733886 l -2.584473,0 z"
     id="path4080"
     style="font-size:67px;fill:#ffffff;font-family:Snv Becker Reg Cond;-inkscape-font-specification:Snv Becker Reg Cond" /><path
     d="m 82.966583,50.056866 -16.586426,0 0,-5.757813 14.688965,-31.962402 8.276856,0 0,31.962402 1.930176,0 0,5.757813 -1.930176,0 0,6.935547 -6.379395,0 z m 0,-5.757813 0,-20.87207 -9.618164,20.87207 z"
     id="path4082"
     style="font-size:67px;fill:#ffffff;font-family:Snv Becker Reg Cond;-inkscape-font-specification:Snv Becker Reg Cond" /></g></svg>