<?xml version="1.0" encoding="UTF-8" standalone="no"?>
<!-- Created with Inkscape (http://www.inkscape.org/) -->

<svg
   xmlns:svg="http://www.w3.org/2000/svg"
   xmlns="http://www.w3.org/2000/svg"
   version="1.1"
   width="135.01901"
   height="67.584106"
   viewBox="0 0 135.01901 67.58411"
   id="Calque_1"
   xml:space="preserve"><defs
   id="defs4012" />
<path
   d="m 0.12145707,33.970992 0,-26.4297799 c 0,-4.1335581 4.44156293,-7.47239339 9.72932593,-7.47239339 l 114.998967,0 c 5.44701,0 9.88725,3.33783559 9.88725,7.47239339 l 0.1066,26.4297799 0.1066,25.952947 c 0,4.133558 -4.70608,7.591352 -10.15309,7.591352 l -114.946327,0 c -5.3404037,0 -9.78196668,-3.338835 -9.78196668,-7.392421 l 0,-26.310822 0.05264075,0.158944 z"
   id="path3980"
   style="fill:#00a650" />
<path
   d="m 0.12145707,33.970992 0,-26.4297799 c 0,-4.1335581 4.44156293,-7.47239339 9.72932593,-7.47239339 l 114.998967,0 c 5.44701,0 9.88725,3.33783559 9.88725,7.47239339 l 0.1066,26.4297799 0.1066,25.952947 c 0,4.133558 -4.70608,7.591352 -10.15309,7.591352 l -114.946327,0 c -5.3404037,0 -9.78196668,-3.338835 -9.78196668,-7.392421 l 0,-26.310822 0.05264075,0.158944 z"
   id="path3982"
   style="fill:none;stroke:#00a650;stroke-width:0.13763742;stroke-miterlimit:3.86299992" />
<path
   d="m 132.4116,33.851034 0.0526,26.151877 c 0,3.060933 -3.54141,5.724004 -7.61449,5.724004 l -114.9989657,0 c -4.019121,0 -7.2973235,-2.663071 -7.2973235,-5.724004 l 0.052641,-25.991932 0,-26.8676281 c 0,-2.9019877 3.0136827,-5.2471696 6.8209247,-5.2471696 l 115.4227235,0 c 4.01913,0 7.61449,2.4641404 7.61449,5.6050447 l 0,26.349808 -0.0526,0 z"
   id="path3984"
   style="fill:#ffffff" />
<path
   d="m 132.4116,33.851034 0.0526,26.151877 c 0,3.060933 -3.54141,5.724004 -7.61449,5.724004 l -114.9989657,0 c -4.019121,0 -7.2973235,-2.663071 -7.2973235,-5.724004 l 0.052641,-25.991932 0,-26.8676281 c 0,-2.9019877 3.0136827,-5.2471696 6.8209247,-5.2471696 l 115.4227235,0 c 4.01913,0 7.61449,2.4641404 7.61449,5.6050447 l 0,26.349808 -0.0526,0 z"
   id="path3986"
   style="fill:none;stroke:#ffffff;stroke-width:0.2293957;stroke-miterlimit:3.86299992" />
<path
   d="m 130.24412,33.812048 0.0526,26.150877 c 0,2.147252 -2.53861,4.015599 -5.34041,4.015599 l -115.0016,0 c -2.801804,0 -5.1811657,-1.788375 -5.1811657,-3.935626 l 0,-26.071906 0.052641,-26.4297799 c 0,-2.1462514 2.3793617,-3.9356271 5.1811657,-3.9356271 l 115.054239,0 c 2.80181,0 5.07589,1.8283622 5.07589,3.9756131 l 0.1066,26.2308499 z"
   id="path3988"
   style="fill:#00a650" />
<path
   d="m 130.24412,33.812048 0.0526,26.150877 c 0,2.147252 -2.53861,4.015599 -5.34041,4.015599 l -115.0016,0 c -2.801804,0 -5.1811657,-1.788375 -5.1811657,-3.935626 l 0,-26.071906 0.052641,-26.4297799 c 0,-2.1462514 2.3793617,-3.9356271 5.1811647,-3.9356271 l 115.05424,0 c 2.80181,0 5.07589,1.8283622 5.07589,3.9756131 l 0.1066,26.2308499 z"
   id="path3990"
   style="fill:none;stroke:#00a650;stroke-width:0.2293957;stroke-miterlimit:3.86299992" />

<g
   transform="translate(4.6951162,0.60458786)"
   id="g4104"
   style="fill:#ffffff"><polygon
     points="8.698,11.908 29.831,11.908 29.831,17.156 14.965,17.156 14.965,30.396 24.447,30.396 24.447,36.121 15.166,36.081 15.166,50.354 29.75,50.354 29.75,55.721 8.698,55.721 "
     id="polygon3992"
     style="fill:#ffffff" /><polygon
     points="8.698,11.908 29.831,11.908 29.831,17.156 14.965,17.156 14.965,30.396 24.447,30.396 24.447,36.121 15.166,36.081 15.166,50.354 29.75,50.354 29.75,55.721 8.698,55.721 "
     id="polygon3994"
     style="fill:#ffffff;stroke:#ffffff;stroke-width:0.12;stroke-miterlimit:3.86299992" /></g>





<polygon
   points="56.269,23.555 56.269,42.401 46.866,42.401 "
   transform="matrix(1.3160187,0,0,0.99965128,-0.01014479,0.00883963)"
   id="polygon4006"
   style="fill:#00a650" />
<polygon
   points="56.269,23.555 56.269,42.401 46.866,42.401 "
   transform="matrix(1.3160187,0,0,0.99965128,-0.01014479,0.00883963)"
   id="polygon4008"
   style="fill:none;stroke:#00a650;stroke-width:0.12;stroke-miterlimit:3.86299992" />
<g
   id="text4061"
   style="font-size:12px;font-style:normal;font-variant:normal;font-weight:normal;font-stretch:normal;text-align:start;line-height:100%;writing-mode:lr-tb;text-anchor:start;fill:#ffffff;fill-opacity:1;stroke:none;font-family:Drogowskaz;-inkscape-font-specification:Drogowskaz"><path
     d="m 53.668194,49.515869 -16.586426,0 0,-5.757812 14.688965,-31.962403 8.276855,0 0,31.962403 1.930176,0 0,5.757812 -1.930176,0 0,6.935547 -6.379394,0 z m 0,-5.757812 0,-20.872071 -9.618164,20.872071 z"
     id="path4121"
     style="font-size:67px;fill:#ffffff;font-family:Snv Becker Reg Cond;-inkscape-font-specification:Snv Becker Reg Cond" /><path
     d="m 68.847881,45.491943 0,-22.704101 c -4e-6,-2.377243 0.588863,-4.470991 1.766602,-6.28125 1.068678,-1.635701 2.519034,-2.944293 4.351074,-3.925781 1.76659,-0.959591 3.609524,-1.439408 5.528809,-1.439454 2.857077,4.6e-5 5.365213,0.948775 7.524414,2.846192 2.529922,2.246459 3.794895,5.179887 3.794922,8.800293 l 0,22.704101 c -2.7e-5,2.704436 -0.752468,5.059902 -2.257325,7.066407 -2.268251,3.031576 -5.354348,4.547362 -9.2583,4.547363 -3.489596,-1e-6 -6.379404,-1.297688 -8.669434,-3.893067 -1.853846,-2.115554 -2.780766,-4.689119 -2.780762,-7.720703 z m 16.586426,0 0,-23.391113 c -2.1e-5,-1.373988 -0.501648,-2.606246 -1.504883,-3.696777 -0.916034,-1.003216 -2.082862,-1.504844 -3.500488,-1.504883 -1.897475,3.9e-5 -3.369641,0.785195 -4.416504,2.355469 -0.523448,0.785192 -0.785167,1.733922 -0.785156,2.846191 l 0,24.04541 c -1.1e-5,1.134124 0.370757,2.180998 1.112305,3.140625 1.025052,1.374029 2.377264,2.06104 4.05664,2.061035 1.810204,5e-6 3.195131,-0.774245 4.154785,-2.322754 0.588847,-0.916007 0.88328,-2.09374 0.883301,-3.533203 z"
     id="path4123"
     style="font-size:67px;fill:#ffffff;font-family:Snv Becker Reg Cond;-inkscape-font-specification:Snv Becker Reg Cond" /><path
     d="m 106.86253,30.377686 2.6499,0 c 1.09048,0.02183 2.05012,-0.316218 2.87891,-1.014161 1.00324,-0.872367 1.50486,-1.984671 1.50488,-3.336914 l 0,-4.612793 c -2e-5,-1.243127 -0.4035,-2.279096 -1.21045,-3.10791 -0.91603,-0.959596 -1.99562,-1.439413 -3.23877,-1.439453 -1.54851,4e-5 -2.79168,0.676146 -3.72949,2.02832 -0.50164,0.719764 -0.75245,1.559444 -0.75244,2.519043 l 0,1.864746 -6.346681,0 0,-1.079589 c -3e-6,-2.377242 0.610674,-4.460085 1.832031,-6.248536 0.98144,-1.439411 2.2137,-2.573524 3.69678,-3.402343 1.63573,-0.937781 3.39142,-1.406693 5.26709,-1.406739 2.52993,4.6e-5 4.79816,0.796106 6.80469,2.388184 2.7044,2.15922 4.05661,5.049029 4.05664,8.669434 l 0,3.827636 c -3e-5,1.592152 -0.41442,3.129748 -1.24317,4.612793 -0.63251,1.09052 -1.48309,2.017439 -2.55176,2.780762 1.1341,0.56708 2.11554,1.42857 2.94434,2.584473 1.00323,1.483092 1.50486,3.173357 1.50488,5.0708 l 0,4.776368 c -2e-5,2.617195 -0.93785,5.005376 -2.81347,7.16455 -2.33368,2.726238 -5.28892,4.089355 -8.86573,4.089356 -3.59864,-1e-6 -6.57569,-1.493977 -8.93115,-4.481934 -1.570314,-2.006504 -2.35547,-4.263826 -2.355468,-6.771972 l 0,-2.09375 6.379398,0 0,2.09375 c -1e-5,1.83204 0.62157,3.282396 1.86474,4.351074 0.91601,0.763352 1.98469,1.145024 3.20606,1.145019 2.0283,5e-6 3.50047,-0.883294 4.4165,-2.649902 0.4798,-0.916007 0.71971,-1.864736 0.71973,-2.846191 l 0,-4.645508 c -2e-5,-1.264958 -0.41441,-2.377261 -1.24317,-3.336914 -1.00327,-1.155905 -2.29005,-1.733867 -3.86035,-1.733887 l -2.58447,0 z"
     id="path4125"
     style="font-size:67px;fill:#ffffff;font-family:Snv Becker Reg Cond;-inkscape-font-specification:Snv Becker Reg Cond" /></g></svg>