<?xml version="1.0" encoding="UTF-8" standalone="no"?>
<!-- Created with Inkscape (http://www.inkscape.org/) -->

<svg
   xmlns:dc="http://purl.org/dc/elements/1.1/"
   xmlns:cc="http://creativecommons.org/ns#"
   xmlns:rdf="http://www.w3.org/1999/02/22-rdf-syntax-ns#"
   xmlns:svg="http://www.w3.org/2000/svg"
   xmlns="http://www.w3.org/2000/svg"
   xmlns:sodipodi="http://sodipodi.sourceforge.net/DTD/sodipodi-0.dtd"
   xmlns:inkscape="http://www.inkscape.org/namespaces/inkscape"
   version="1.1"
   width="135.01901"
   height="67.584106"
   viewBox="0 0 135.01901 67.58411"
   id="Calque_1"
   xml:space="preserve"
   inkscape:version="0.48.0 r9654"
   sodipodi:docname="BE-E429.svg"><metadata
   id="metadata21"><rdf:RDF><cc:Work
       rdf:about=""><dc:format>image/svg+xml</dc:format><dc:type
         rdf:resource="http://purl.org/dc/dcmitype/StillImage" /><dc:title></dc:title></cc:Work></rdf:RDF></metadata><sodipodi:namedview
   pagecolor="#ffffff"
   bordercolor="#666666"
   borderopacity="1"
   objecttolerance="10"
   gridtolerance="10"
   guidetolerance="10"
   inkscape:pageopacity="0"
   inkscape:pageshadow="2"
   inkscape:window-width="640"
   inkscape:window-height="480"
   id="namedview19"
   showgrid="false"
   inkscape:zoom="3.5550549"
   inkscape:cx="67.509506"
   inkscape:cy="33.792053"
   inkscape:window-x="0"
   inkscape:window-y="0"
   inkscape:window-maximized="0"
   inkscape:current-layer="Calque_1" /><defs
   id="defs4012" />
<path
   d="m 0.12145707,33.970992 0,-26.4297799 c 0,-4.1335581 4.44156293,-7.47239339 9.72932593,-7.47239339 l 114.998967,0 c 5.44701,0 9.88725,3.33783559 9.88725,7.47239339 l 0.1066,26.4297799 0.1066,25.952947 c 0,4.133558 -4.70608,7.591352 -10.15309,7.591352 l -114.946327,0 c -5.3404037,0 -9.78196668,-3.338835 -9.78196668,-7.392421 l 0,-26.310822 0.05264075,0.158944 z"
   id="path3980"
   style="fill:#00a650" />
<path
   d="m 0.12145707,33.970992 0,-26.4297799 c 0,-4.1335581 4.44156293,-7.47239339 9.72932593,-7.47239339 l 114.998967,0 c 5.44701,0 9.88725,3.33783559 9.88725,7.47239339 l 0.1066,26.4297799 0.1066,25.952947 c 0,4.133558 -4.70608,7.591352 -10.15309,7.591352 l -114.946327,0 c -5.3404037,0 -9.78196668,-3.338835 -9.78196668,-7.392421 l 0,-26.310822 0.05264075,0.158944 z"
   id="path3982"
   style="fill:none;stroke:#00a650;stroke-width:0.13763742;stroke-miterlimit:3.86299992" />
<path
   d="m 132.4116,33.851034 0.0526,26.151877 c 0,3.060933 -3.54141,5.724004 -7.61449,5.724004 l -114.9989657,0 c -4.019121,0 -7.2973235,-2.663071 -7.2973235,-5.724004 l 0.052641,-25.991932 0,-26.8676281 c 0,-2.9019877 3.0136827,-5.2471696 6.8209247,-5.2471696 l 115.4227235,0 c 4.01913,0 7.61449,2.4641404 7.61449,5.6050447 l 0,26.349808 -0.0526,0 z"
   id="path3984"
   style="fill:#ffffff" />
<path
   d="m 132.4116,33.851034 0.0526,26.151877 c 0,3.060933 -3.54141,5.724004 -7.61449,5.724004 l -114.9989657,0 c -4.019121,0 -7.2973235,-2.663071 -7.2973235,-5.724004 l 0.052641,-25.991932 0,-26.8676281 c 0,-2.9019877 3.0136827,-5.2471696 6.8209247,-5.2471696 l 115.4227235,0 c 4.01913,0 7.61449,2.4641404 7.61449,5.6050447 l 0,26.349808 -0.0526,0 z"
   id="path3986"
   style="fill:none;stroke:#ffffff;stroke-width:0.2293957;stroke-miterlimit:3.86299992" />
<path
   d="m 130.24412,33.812048 0.0526,26.150877 c 0,2.147252 -2.53861,4.015599 -5.34041,4.015599 l -115.0016,0 c -2.801804,0 -5.1811657,-1.788375 -5.1811657,-3.935626 l 0,-26.071906 0.052641,-26.4297799 c 0,-2.1462514 2.3793617,-3.9356271 5.1811657,-3.9356271 l 115.054239,0 c 2.80181,0 5.07589,1.8283622 5.07589,3.9756131 l 0.1066,26.2308499 z"
   id="path3988"
   style="fill:#00a650" />
<path
   d="m 130.24412,33.812048 0.0526,26.150877 c 0,2.147252 -2.53861,4.015599 -5.34041,4.015599 l -115.0016,0 c -2.801804,0 -5.1811657,-1.788375 -5.1811657,-3.935626 l 0,-26.071906 0.052641,-26.4297799 c 0,-2.1462514 2.3793617,-3.9356271 5.1811647,-3.9356271 l 115.05424,0 c 2.80181,0 5.07589,1.8283622 5.07589,3.9756131 l 0.1066,26.2308499 z"
   id="path3990"
   style="fill:none;stroke:#00a650;stroke-width:0.2293957;stroke-miterlimit:3.86299992" />

<g
   transform="translate(4.6951162,0.60458786)"
   id="g4104"
   style="fill:#ffffff"><polygon
     points="8.698,11.908 29.831,11.908 29.831,17.156 14.965,17.156 14.965,30.396 24.447,30.396 24.447,36.121 15.166,36.081 15.166,50.354 29.75,50.354 29.75,55.721 8.698,55.721 "
     id="polygon3992"
     style="fill:#ffffff" /><polygon
     points="8.698,11.908 29.831,11.908 29.831,17.156 14.965,17.156 14.965,30.396 24.447,30.396 24.447,36.121 15.166,36.081 15.166,50.354 29.75,50.354 29.75,55.721 8.698,55.721 "
     id="polygon3994"
     style="fill:#ffffff;stroke:#ffffff;stroke-width:0.12;stroke-miterlimit:3.86299992" /></g>





<polygon
   points="56.269,23.555 56.269,42.401 46.866,42.401 "
   transform="matrix(1.3160187,0,0,0.99965128,-0.01014479,0.00883963)"
   id="polygon4006"
   style="fill:#00a650" />
<polygon
   points="56.269,23.555 56.269,42.401 46.866,42.401 "
   transform="matrix(1.3160187,0,0,0.99965128,-0.01014479,0.00883963)"
   id="polygon4008"
   style="fill:none;stroke:#00a650;stroke-width:0.12;stroke-miterlimit:3.86299992" />
<g
   id="text4061"
   style="font-size:12px;font-style:normal;font-variant:normal;font-weight:normal;font-stretch:normal;text-align:start;line-height:100%;writing-mode:lr-tb;text-anchor:start;fill:#ffffff;fill-opacity:1;stroke:none;font-family:Drogowskaz;-inkscape-font-specification:Drogowskaz"><path
     d="m 57.718418,49.515869 -16.586426,0 0,-5.757812 14.688965,-31.962403 8.276856,0 0,31.962403 1.930175,0 0,5.757812 -1.930175,0 0,6.935547 -6.379395,0 z m 0,-5.757812 0,-20.872071 -9.618164,20.872071 z"
     id="path4208"
     style="font-size:67px;fill:#ffffff;font-family:Snv Becker Reg Cond;-inkscape-font-specification:Snv Becker Reg Cond" /><path
     d="m 79.40836,50.693604 15.048828,0 0,5.757812 -22.311524,0 0,-5.757812 14.590821,-26.139161 c 0.523419,-0.915982 0.785137,-1.908332 0.785156,-2.97705 -1.9e-5,-1.068649 -0.294452,-2.006474 -0.883301,-2.813477 -0.937842,-1.243125 -2.21372,-1.864707 -3.827637,-1.864746 -1.286796,3.9e-5 -2.35548,0.436237 -3.206054,1.308594 -1.155935,1.155961 -1.733896,2.584508 -1.733887,4.285644 l 0,0.850586 -6.379395,0 0,-0.850586 c -2e-6,-2.508101 0.741533,-4.754518 2.22461,-6.739258 1.025059,-1.373981 2.322746,-2.47538 3.893066,-3.304199 1.657542,-0.872351 3.380522,-1.308548 5.168945,-1.308594 2.202784,4.6e-5 4.231102,0.632532 6.084961,1.897461 1.679341,1.134157 2.955218,2.628134 3.827637,4.481934 0.741512,1.54854 1.11228,3.18428 1.112305,4.907227 -2.5e-5,1.941112 -0.523462,3.827666 -1.570313,5.659667 z"
     id="path4210"
     style="font-size:67px;fill:#ffffff;font-family:Snv Becker Reg Cond;-inkscape-font-specification:Snv Becker Reg Cond" /></g><path
   inkscape:connector-curvature="0"
   d="m 100.47035,45.760343 0,-22.704102 c 0,-2.377243 0.58887,-4.470991 1.76661,-6.28125 1.06868,-1.635702 2.51903,-2.944294 4.35107,-3.925782 1.76659,-0.959591 3.60952,-1.439408 5.52881,-1.439454 2.85707,4.6e-5 5.36521,0.948775 7.52441,2.846192 2.52992,2.24646 3.7949,5.179888 3.79492,8.800294 l 0,22.704102 c -2e-5,2.704436 -0.75247,5.059902 -2.25732,7.066407 -2.26825,3.031576 -5.35435,4.547362 -9.2583,4.547363 -3.4896,-1e-6 -6.37941,-1.297688 -8.66943,-3.893067 -1.85385,-2.115554 -2.78077,-4.689119 -2.78077,-7.720703 z m 16.58643,0 0,-23.391114 c -2e-5,-1.373988 -0.50165,-2.606246 -1.50489,-3.696777 -0.91603,-1.003216 -2.08286,-1.504844 -3.50048,-1.504883 -1.89748,3.9e-5 -3.36965,0.785195 -4.41651,2.355469 -0.52345,0.785192 -0.78517,1.733922 -0.78515,2.846191 l 0,24.045411 c -2e-5,1.134124 0.37075,2.180998 1.1123,3.140625 1.02505,1.374029 2.37726,2.06104 4.05664,2.061035 1.81021,5e-6 3.19513,-0.774245 4.15479,-2.322754 0.58884,-0.916007 0.88328,-2.09374 0.8833,-3.533203 z"
   id="path4123"
   style="font-size:67px;font-style:normal;font-variant:normal;font-weight:normal;font-stretch:normal;text-align:start;line-height:100%;writing-mode:lr-tb;text-anchor:start;fill:#ffffff;fill-opacity:1;stroke:none;font-family:Snv Becker Reg Cond;-inkscape-font-specification:Snv Becker Reg Cond" /></svg>