<?xml version="1.0" encoding="UTF-8" standalone="no"?>
<!-- Generator: Adobe Illustrator 14.0.0, SVG Export Plug-In . SVG Version: 6.00 Build 43363)  -->

<svg
   xmlns:dc="http://purl.org/dc/elements/1.1/"
   xmlns:cc="http://creativecommons.org/ns#"
   xmlns:rdf="http://www.w3.org/1999/02/22-rdf-syntax-ns#"
   xmlns:svg="http://www.w3.org/2000/svg"
   xmlns="http://www.w3.org/2000/svg"
   xmlns:sodipodi="http://sodipodi.sourceforge.net/DTD/sodipodi-0.dtd"
   xmlns:inkscape="http://www.inkscape.org/namespaces/inkscape"
   version="1.1"
   id="Calque_1"
   x="0px"
   y="0px"
   width="102.611px"
   height="67.589px"
   viewBox="0 0 102.611 67.589"
   enable-background="new 0 0 102.611 67.589"
   xml:space="preserve"
   inkscape:version="0.47 r22583"
   sodipodi:docname="C:\Users\Acer\Desktop\Stuff\tabliczkiSVG\Belgian_road_sign_F23c.svg"><metadata
   id="metadata4014"><rdf:RDF><cc:Work
       rdf:about=""><dc:format>image/svg+xml</dc:format><dc:type
         rdf:resource="http://purl.org/dc/dcmitype/StillImage" /><dc:title></dc:title></cc:Work></rdf:RDF></metadata><defs
   id="defs4012"><inkscape:perspective
     sodipodi:type="inkscape:persp3d"
     inkscape:vp_x="0 : 33.794498 : 1"
     inkscape:vp_y="0 : 1000 : 0"
     inkscape:vp_z="102.611 : 33.794498 : 1"
     inkscape:persp3d-origin="51.3055 : 22.529666 : 1"
     id="perspective4016" /></defs><sodipodi:namedview
   pagecolor="#ffffff"
   bordercolor="#666666"
   borderopacity="1"
   objecttolerance="10"
   gridtolerance="10"
   guidetolerance="10"
   inkscape:pageopacity="0"
   inkscape:pageshadow="2"
   inkscape:window-width="1280"
   inkscape:window-height="750"
   id="namedview4010"
   showgrid="false"
   inkscape:zoom="2.4689995"
   inkscape:cx="51.3055"
   inkscape:cy="7.1128609"
   inkscape:window-x="-8"
   inkscape:window-y="-8"
   inkscape:window-maximized="1"
   inkscape:current-layer="Calque_1" />
<path
   d="M0.1,33.974V7.535c0-4.135,3.375-7.475,7.393-7.475h87.384c4.139,0,7.513,3.339,7.513,7.475l0.081,26.439  l0.081,25.962c0,4.135-3.576,7.594-7.715,7.594H7.493c-4.058,0-7.433-3.34-7.433-7.395v-26.32L0.1,33.974z"
   id="path3980"
   fill="#00A650" />
<path
   stroke-miterlimit="3.863"
   d="M0.1,33.974V7.535  c0-4.135,3.375-7.475,7.393-7.475h87.384c4.139,0,7.513,3.339,7.513,7.475l0.081,26.439l0.081,25.962  c0,4.135-3.576,7.594-7.715,7.594H7.493c-4.058,0-7.433-3.34-7.433-7.395v-26.32L0.1,33.974z"
   id="path3982"
   stroke-width="0.12"
   stroke="#00A650"
   fill="none" />
<path
   d="M100.623,33.854l0.04,26.161c0,3.062-2.691,5.726-5.786,5.726H7.493c-3.054,0-5.545-2.664-5.545-5.726  l0.04-26.001V7.137c0-2.903,2.29-5.249,5.183-5.249h87.706c3.054,0,5.786,2.465,5.786,5.607v26.359H100.623z"
   id="path3984"
   fill="#FFFFFF" />
<path
   stroke-miterlimit="3.863"
   d="M100.623,33.854l0.04,26.161  c0,3.062-2.691,5.726-5.786,5.726H7.493c-3.054,0-5.545-2.664-5.545-5.726l0.04-26.001V7.137c0-2.903,2.29-5.249,5.183-5.249h87.706  c3.054,0,5.786,2.465,5.786,5.607v26.359H100.623z"
   id="path3986"
   stroke-width="0.2"
   stroke="#FFFFFF"
   fill="none" />
<path
   d="M98.976,33.815l0.04,26.16c0,2.148-1.929,4.017-4.058,4.017H7.572c-2.129,0-3.937-1.789-3.937-3.937V33.974  l0.04-26.439c0-2.147,1.808-3.937,3.937-3.937h87.426c2.129,0,3.857,1.829,3.857,3.977L98.976,33.815z"
   id="path3988"
   fill="#00A650" />
<path
   stroke-miterlimit="3.863"
   d="M98.976,33.815l0.04,26.16  c0,2.148-1.929,4.017-4.058,4.017H7.572c-2.129,0-3.937-1.789-3.937-3.937V33.974l0.04-26.439c0-2.147,1.808-3.937,3.937-3.937  h87.426c2.129,0,3.857,1.829,3.857,3.977L98.976,33.815z"
   id="path3990"
   stroke-width="0.2"
   stroke="#00A650"
   fill="none" />
<polygon
   points="29.75,55.721 8.698,55.721 8.698,11.908 29.831,11.908 29.831,17.156 14.965,17.156 14.965,30.396   24.447,30.396 24.447,36.121 15.166,36.081 15.166,50.354 29.75,50.354 "
   id="polygon3992"
   fill="#FFFFFF" />
<polygon
   stroke-miterlimit="3.863"
   points="29.75,55.721 8.698,55.721   8.698,11.908 29.831,11.908 29.831,17.156 14.965,17.156 14.965,30.396 24.447,30.396 24.447,36.121 15.166,36.081 15.166,50.354   29.75,50.354 "
   id="polygon3994"
   stroke-width="0.12"
   stroke="#FFFFFF"
   fill="none" />





<polygon
   points="56.269,23.555 56.269,42.401 46.866,42.401 "
   id="polygon4006"
   fill="#00A650" />
<polygon
   stroke-miterlimit="3.863"
   points="56.269,23.555 56.269,42.401   46.866,42.401 "
   id="polygon4008"
   stroke-width="0.12"
   stroke="#00A650"
   fill="none" />
<g
   style="font-size:12px;font-style:normal;font-variant:normal;font-weight:normal;font-stretch:normal;text-align:start;line-height:100%;writing-mode:lr-tb;text-anchor:start;fill:#ffffff;fill-opacity:1;stroke:none;font-family:Drogowskaz;-inkscape-font-specification:Drogowskaz"
   id="text4061"><path
     d="m 47.863556,50.089024 15.048828,0 0,5.757812 -22.311523,0 0,-5.757812 14.59082,-26.139161 c 0.523419,-0.915982 0.785137,-1.908332 0.785156,-2.97705 -1.9e-5,-1.068649 -0.294452,-2.006474 -0.883301,-2.813477 -0.937842,-1.243125 -2.21372,-1.864706 -3.827636,-1.864746 -1.286797,4e-5 -2.355481,0.436237 -3.206055,1.308594 -1.155934,1.155961 -1.733896,2.584508 -1.733887,4.285644 l 0,0.850586 -6.379394,0 0,-0.850586 c -3e-6,-2.508101 0.741533,-4.754518 2.224609,-6.739258 1.025059,-1.373981 2.322747,-2.47538 3.893067,-3.304199 1.657541,-0.872351 3.380521,-1.308548 5.168945,-1.308594 2.202783,4.6e-5 4.231101,0.632532 6.084961,1.897461 1.67934,1.134157 2.955218,2.628134 3.827636,4.481934 0.741512,1.54854 1.11228,3.184281 1.112305,4.907227 -2.5e-5,1.941112 -0.523462,3.827667 -1.570312,5.659668 z"
     style="font-size:67px;fill:#ffffff;font-family:Snv Becker Reg Cond;-inkscape-font-specification:Snv Becker Reg Cond"
     id="path4085" /><path
     d="m 76.521759,16.948887 0,10.501465 c 1.853829,-0.872367 3.598618,-1.308564 5.234375,-1.308594 2.311831,3e-5 4.394674,0.665231 6.248535,1.995605 2.704402,1.919297 4.056615,4.743676 4.056641,8.473145 l 0,8.145996 c -2.6e-5,2.922534 -0.763372,5.34343 -2.290039,7.262695 -1.286807,1.592125 -2.868023,2.791668 -4.743653,3.598633 -1.417661,0.588867 -2.878922,0.8833 -4.383789,0.883301 -2.639009,-1e-6 -5.027191,-0.839681 -7.16455,-2.519043 -2.922531,-2.268225 -4.383793,-5.343417 -4.383789,-9.225586 l 0,-1.635742 6.379394,0 0,1.635742 c -1e-5,1.504892 0.305329,2.75896 0.916016,3.762207 0.894194,1.483079 2.322741,2.224615 4.285644,2.224609 1.701155,6e-6 3.053368,-0.621576 4.056641,-1.864746 0.632467,-0.806958 0.94871,-1.832022 0.94873,-3.075195 l 0,-9.192871 c -2e-5,-1.330383 -0.490742,-2.453592 -1.472168,-3.369629 -1.003272,-0.915992 -2.21372,-1.373999 -3.631347,-1.374023 -1.853854,2.4e-5 -3.206067,0.665225 -4.056641,1.995605 l -6.379394,0 0,-22.671387 21.035644,0 0,5.757813 z"
     style="font-size:67px;fill:#ffffff;font-family:Snv Becker Reg Cond;-inkscape-font-specification:Snv Becker Reg Cond"
     id="path4087" /></g></svg>