<?xml version="1.0" encoding="utf-8"?>
<!-- Generator: Adobe Illustrator 14.0.0, SVG Export Plug-In . SVG Version: 6.00 Build 43363)  -->
<!DOCTYPE svg PUBLIC "-//W3C//DTD SVG 1.1//EN" "http://www.w3.org/Graphics/SVG/1.1/DTD/svg11.dtd">
<svg version="1.1" id="Calque_1" xmlns="http://www.w3.org/2000/svg" xmlns:xlink="http://www.w3.org/1999/xlink" x="0px" y="0px"
	 width="158.484px" height="90.41px" viewBox="0 0 158.484 90.41" enable-background="new 0 0 158.484 90.41" xml:space="preserve">
<path fill="#FFFFFF" d="M158.385,13.743v63.005c0,7.478-6.103,13.563-13.56,13.563H13.738C6.201,90.312,0.1,84.226,0.1,76.748
	V13.743C0.1,6.186,6.201,0.1,13.738,0.1h131.605C152.841,0.1,158.385,6.186,158.385,13.743z"/>
<path fill="none" stroke="#000000" stroke-width="0.199" stroke-miterlimit="3.863" d="M158.385,13.743v63.005
	c0,7.478-6.103,13.563-13.56,13.563H13.738C6.201,90.312,0.1,84.226,0.1,76.748V13.743C0.1,6.186,6.201,0.1,13.738,0.1h131.605
	C152.841,0.1,158.385,6.186,158.385,13.743z"/>
<path d="M101.874,19.113l4.227-9.069c-0.518-0.239-1.436,0.397-2.472,0.358c-0.12-0.08-0.479,0.238-0.599-0.955
	c-0.278-0.676-0.119-0.876-0.119-1.591c0.957,0,2.074-1.313,3.031-0.239c0.078,0.199,0.199,0.278,0.279,0.477
	c0.119-0.039,0.358,0.358,0.479,0.358c0.598-1.153,0.079-3.262,1.036-4.296c0.159-0.199,1.196,0.12,1.356-0.039
	c-0.52,0.835,0.877,0.278,1.355,0.517c0,0.398-0.318,1.074-0.479,1.472c-0.598,0.12-0.996,0-1.596-0.04
	c-0.278,0.875-0.159,2.864-0.917,4.018l0.559,0.915v0.796l-0.917,2.625l0.239,0.358l0.996,0.277l0.279,0.598v1.113l4.188,5.966
	h7.896l3.151-8.631l-4.587-0.955l-1.157-0.796l0.24-0.397l0.16-0.319h8.135c0.719,0.279,0.479,1.87,0.199,2.347
	c-0.359,0.278-0.916,0.358-1.396,0.438l-0.559,1.989h11.565l0.319,0.755l0.798,0.12c0.678,1.511,2.672,7.835,2.592,9.506
	c-0.039,0.716-0.279,1.074-0.279,1.671c0,5.21-4.107,9.426-9.172,9.426c-3.629,0-6.78-2.228-8.217-5.33h-3.668
	c0.08,0.079-0.199,0.477,0.318,0.397c0.28-0.04,0.081,1.312-0.717,1.193c-0.08-0.08-0.838,0.04-0.918-0.397
	c-0.039-0.199,0-0.438,0.08-0.637c0.08-0.159,0.24-0.119,0.318-0.199v-0.357h-5.822c-4.984-0.359-1.715-8.075-1.754-9.785
	c0-0.397-0.678-1.79-4.068-2.825c-0.918-0.277-1.555-2.307-2.113-2.505l-1.077,2.307c2.751,1.91,4.586,5.131,4.586,8.75
	c0,0.438-0.039,0.876-0.079,1.393c-0.04,0.358-1.037,0.318-1.316,0.438c-0.838,4.336-4.547,7.558-8.934,7.558
	c-5.064,0-9.172-4.216-9.172-9.426c0-4.654,3.27-8.513,7.578-9.308l-0.041,0.04c-0.159-0.318,0-1.153,0.359-1.193
	c0.439-0.04,0.877-0.08,1.316-0.08c1.675,0,3.27,0.397,4.666,1.154L101.874,19.113z"/>
<path fill="none" stroke="#000000" stroke-width="0" stroke-miterlimit="3.863" d="M101.874,19.113l4.227-9.069
	c-0.518-0.239-1.436,0.397-2.472,0.358c-0.12-0.08-0.479,0.238-0.599-0.955c-0.278-0.676-0.119-0.876-0.119-1.591
	c0.957,0,2.074-1.313,3.031-0.239c0.078,0.199,0.199,0.278,0.279,0.477c0.119-0.039,0.358,0.358,0.479,0.358
	c0.598-1.153,0.079-3.262,1.036-4.296c0.159-0.199,1.196,0.12,1.356-0.039c-0.52,0.835,0.877,0.278,1.355,0.517
	c0,0.398-0.318,1.074-0.479,1.472c-0.598,0.12-0.996,0-1.596-0.04c-0.278,0.875-0.159,2.864-0.917,4.018l0.559,0.915v0.796
	l-0.917,2.625l0.239,0.358l0.996,0.277l0.279,0.598v1.113l4.188,5.966h7.896l3.151-8.631l-4.587-0.955l-1.157-0.796l0.24-0.397
	l0.16-0.319h8.135c0.719,0.279,0.479,1.87,0.199,2.347c-0.359,0.278-0.916,0.358-1.396,0.438l-0.559,1.989h11.565l0.319,0.755
	l0.798,0.12c0.678,1.511,2.672,7.835,2.592,9.506c-0.039,0.716-0.279,1.074-0.279,1.671c0,5.21-4.107,9.426-9.172,9.426
	c-3.629,0-6.78-2.228-8.217-5.33h-3.668c0.08,0.079-0.199,0.477,0.318,0.397c0.28-0.04,0.081,1.312-0.717,1.193
	c-0.08-0.08-0.838,0.04-0.918-0.397c-0.039-0.199,0-0.438,0.08-0.637c0.08-0.159,0.24-0.119,0.318-0.199v-0.357h-5.822
	c-4.984-0.359-1.715-8.075-1.754-9.785c0-0.397-0.678-1.79-4.068-2.825c-0.918-0.277-1.555-2.307-2.113-2.505l-1.077,2.307
	c2.751,1.91,4.586,5.131,4.586,8.75c0,0.438-0.039,0.876-0.079,1.393c-0.04,0.358-1.037,0.318-1.316,0.438
	c-0.838,4.336-4.547,7.558-8.934,7.558c-5.064,0-9.172-4.216-9.172-9.426c0-4.654,3.27-8.513,7.578-9.308l-0.041,0.04
	c-0.159-0.318,0-1.153,0.359-1.193c0.439-0.04,0.877-0.08,1.316-0.08c1.675,0,3.27,0.397,4.666,1.154L101.874,19.113z"/>
<path fill="#FFFFFF" d="M98.364,26.431l2.154-4.295c-0.998-0.478-2.034-0.796-3.15-0.796c-3.83,0-6.939,3.222-6.939,7.159
	c0,3.938,3.109,7.121,6.939,7.121c3.668,0,6.699-2.944,6.938-6.684h-4.706c-0.239,0.955-1.036,1.592-1.994,1.592
	c-1.195,0-2.113-0.915-2.113-2.148c0-1.193,0.918-2.148,2.113-2.148c0.279,0,0.559,0.04,0.798,0.159L98.364,26.431z"/>
<path fill="none" stroke="#FFFFFF" stroke-width="0" stroke-miterlimit="3.863" d="M98.364,26.431l2.154-4.295
	c-0.998-0.478-2.034-0.796-3.15-0.796c-3.829,0-6.939,3.222-6.939,7.159c0,3.938,3.11,7.121,6.939,7.121
	c3.668,0,6.699-2.944,6.939-6.684h-4.707c-0.239,0.955-1.036,1.592-1.994,1.592c-1.195,0-2.113-0.915-2.113-2.148
	c0-1.193,0.918-2.148,2.113-2.148c0.279,0,0.559,0.04,0.798,0.159L98.364,26.431z"/>
<path fill="#FFFFFF" d="M99.401,27.665h4.865c-0.239-1.95-1.236-3.659-2.633-4.773l-2.232,4.693V27.665z"/>
<path fill="none" stroke="#FFFFFF" stroke-width="0" stroke-miterlimit="3.863" d="M99.401,27.665h4.865
	c-0.239-1.95-1.236-3.659-2.633-4.773l-2.232,4.693V27.665z"/>
<path fill="#FFFFFF" d="M126.36,20.107c-1.914,0.994-3.391,2.625-4.027,4.654l-0.559,0.039l2.273-6.444h1.635
	C125.643,19.749,126.081,19.59,126.36,20.107z"/>
<path fill="none" stroke="#FFFFFF" stroke-width="0" stroke-miterlimit="3.863" d="M126.36,20.107
	c-1.914,0.994-3.391,2.625-4.027,4.654l-0.559,0.039l2.273-6.444h1.635C125.643,19.749,126.081,19.59,126.36,20.107z"/>
<path fill="#FFFFFF" d="M131.704,21.578c3.471,0.518,6.142,3.461,6.142,7.001c0,3.938-3.229,7.08-7.179,7.08
	c-2.472,0-4.586-1.192-5.901-2.983l10.409-0.277v-2.547l-2.991,0.04c0.398-0.357,0.678-0.955,0.678-1.591
	c0-0.756-0.359-1.353-0.997-1.75L131.704,21.578z"/>
<path fill="none" stroke="#FFFFFF" stroke-width="0" stroke-miterlimit="3.863" d="M131.704,21.578
	c3.471,0.518,6.142,3.46,6.142,7.001c0,3.938-3.229,7.08-7.179,7.08c-2.472,0-4.586-1.192-5.901-2.983l10.409-0.278v-2.546
	l-2.991,0.04c0.398-0.358,0.678-0.955,0.678-1.591c0-0.756-0.359-1.352-0.997-1.75L131.704,21.578z"/>
<path fill="#FFFFFF" d="M129.032,29.215l-5.104,0.358c0.04,0.318,0.12,0.636,0.199,0.915l5.544-0.518
	C129.432,29.772,129.192,29.574,129.032,29.215z"/>
<path fill="none" stroke="#FFFFFF" stroke-width="0" stroke-miterlimit="3.863" d="M129.032,29.215l-5.104,0.358
	c0.04,0.318,0.12,0.636,0.199,0.915l5.544-0.518C129.432,29.772,129.192,29.574,129.032,29.215z"/>
<path fill="#FFFFFF" d="M130.11,26.232c-0.799,0.278-1.356,1.074-1.356,1.989l-4.866-0.279c0.239-3.262,2.633-5.927,5.783-6.443
	L130.11,26.232z"/>
<path fill="none" stroke="#FFFFFF" stroke-width="0" stroke-miterlimit="3.863" d="M130.11,26.232
	c-0.799,0.278-1.356,1.074-1.356,1.989l-4.866-0.279c0.239-3.262,2.633-5.927,5.783-6.443L130.11,26.232z"/>
<path fill="#FFFFFF" d="M112.841,29.813h-2.273c0,0.755,0.359,0.955,0.759,1.353c0.278,0.198,0.638,0.198,0.757,0.198h1.477
	C113.12,30.966,113.28,29.813,112.841,29.813z"/>
<path fill="none" stroke="#FFFFFF" stroke-width="0" stroke-miterlimit="3.863" d="M112.841,29.813h-2.273
	c0,0.755,0.359,0.955,0.759,1.352c0.278,0.199,0.638,0.199,0.757,0.199h1.477C113.12,30.966,113.28,29.813,112.841,29.813z"/>
<path fill="#FFFFFF" d="M121.136,27.783c0,0.239-0.479,1.035,0.08,1.432c0.119,0.04,0.24,0.319,0.359-0.079
	c-0.119-0.278-0.279-0.358-0.24-0.875C121.456,28.102,121.415,27.584,121.136,27.783z"/>
<path fill="none" stroke="#FFFFFF" stroke-width="0" stroke-miterlimit="3.863" d="M121.136,27.783c0,0.239-0.479,1.035,0.08,1.432
	c0.119,0.04,0.24,0.318,0.359-0.079c-0.119-0.278-0.279-0.358-0.24-0.875C121.456,28.102,121.415,27.584,121.136,27.783z"/>
<path fill="#FFFFFF" d="M118.782,30.806l1.317-0.039c0.04,0,0.079-0.12,0.159-0.08c0-0.12,0.08-0.239,0.04-0.358
	c-0.04-0.039-0.08-0.079-0.12-0.119c-0.518-0.199-1.076-0.04-1.516,0.199c-0.039,0.08,0.041,0.12,0.041,0.199
	C118.743,30.647,118.823,30.688,118.782,30.806z"/>
<path fill="none" stroke="#FFFFFF" stroke-width="0" stroke-miterlimit="3.863" d="M118.782,30.806l1.317-0.039
	c0.04,0,0.079-0.12,0.159-0.08c0-0.12,0.08-0.239,0.04-0.358c-0.04-0.039-0.08-0.079-0.12-0.119
	c-0.518-0.199-1.076-0.04-1.516,0.199c-0.039,0.08,0.041,0.12,0.041,0.199C118.743,30.647,118.823,30.688,118.782,30.806z"/>
<path fill="#FFFFFF" d="M116.749,31.006c0.319,0,0.639,0.039,0.957-0.12c-0.039-0.08,0.041-0.119,0.041-0.199
	c-0.32-0.12-0.679,0-0.918,0.119C116.789,30.806,116.63,31.006,116.749,31.006z"/>
<path fill="none" stroke="#FFFFFF" stroke-width="0" stroke-miterlimit="3.863" d="M116.749,31.006c0.319,0,0.639,0.039,0.957-0.12
	c-0.039-0.08,0.041-0.119,0.041-0.199c-0.32-0.12-0.679,0-0.918,0.119C116.789,30.806,116.63,31.006,116.749,31.006z"/>
<path fill="#FFFFFF" d="M136.53,18.356c-0.199,0.915-0.799,1.551-1.275,1.95c0.477,0.636,1.754,0.716,2.073,1.432
	C137.567,20.505,136.77,18.675,136.53,18.356z"/>
<path fill="none" stroke="#FFFFFF" stroke-width="0" stroke-miterlimit="3.863" d="M136.53,18.356
	c-0.199,0.915-0.799,1.551-1.275,1.95c0.477,0.636,1.754,0.716,2.073,1.432C137.567,20.505,136.77,18.675,136.53,18.356z"/>
<polygon points="70.25,52.206 96.212,52.206 96.212,54.752 70.209,54.752 70.209,58.491 62.313,53.439 70.209,48.349 70.209,52.206 
	"/>
<polygon fill="none" stroke="#000000" stroke-width="0" stroke-miterlimit="3.863" points="70.25,52.206 96.212,52.206 
	96.212,54.752 70.209,54.752 70.209,58.491 62.313,53.439 70.209,48.349 70.209,52.206 "/>
<polygon points="88.274,73.566 62.313,73.566 62.313,76.112 88.315,76.112 88.315,79.851 96.212,74.798 88.315,69.707 
	88.315,73.566 "/>
<polygon fill="none" stroke="#000000" stroke-width="0" stroke-miterlimit="3.863" points="88.274,73.566 62.313,73.566 
	62.313,76.112 88.315,76.112 88.315,79.851 96.212,74.798 88.315,69.707 88.315,73.566 "/>
<path d="M33,15.851l10.927,9.705c-0.438,0.478-0.678,1.153-0.678,1.83c0,1.392,1.117,2.625,2.512,2.784v3.222h-0.398v0.597h1.356
	v-0.597h-0.36V30.21c1.277-0.08,2.274-1.153,2.514-2.347h1.515c0.239,5.29,4.626,9.546,9.93,9.546c5.504,0,9.97-4.455,9.97-9.944
	c0-5.45-4.466-9.944-9.97-9.944c-1.635,0-3.23,0.438-4.586,1.154l-2.751-5.131l0.598-1.313c0.239-0.438,0.798-0.318,1.156-0.676
	c0.04-0.2,0.04-0.398,0.04-0.597c-0.159-0.04-0.239-0.319-0.479-0.319h-3.669c-0.119,0.12-0.239,0.08-0.319,0.08
	c-0.039,0.04-0.079,0.08-0.159,0.12c0,0.159-0.08,0.438,0,0.596c0.08,0.04,0.159,0.08,0.199,0.08h1.875
	c0.239-0.04,0.398,0.04,0.638,0.119c0.04,0.08,0.04,0.08,0.121,0.08c0,0.159,0.08,0.317,0.04,0.438l-0.4,0.915H33.599l0.559-2.267
	c0.398-0.16,0.758,0.159,1.635-0.239c0.358,0,1.156-0.437,2.154-0.12c0.159-0.039-0.08-0.159,0.04-0.278
	c-0.08-0.04,0.119-0.238,0.079-0.358c-0.558-0.159-1.834-0.238-2.473,0.12c-0.559,0.357-1.396,0.079-1.954,0.159l-1.875,8.074
	c-1.077-0.438-2.313-0.676-3.549-0.676c-5.504,0-9.931,4.495-9.931,9.944c0,5.489,4.427,9.944,9.931,9.944
	c5.463,0,9.93-4.455,9.93-9.944c0-4.018-2.393-7.438-5.783-8.989L33,15.851z"/>
<path fill="none" stroke="#000000" stroke-width="0.199" stroke-miterlimit="3.863" d="M33,15.851l10.927,9.705
	c-0.438,0.478-0.678,1.153-0.678,1.83c0,1.392,1.117,2.625,2.512,2.784v3.222h-0.398v0.598h1.356v-0.598h-0.36V30.21
	c1.277-0.08,2.274-1.153,2.514-2.347h1.515c0.239,5.29,4.626,9.546,9.93,9.546c5.504,0,9.97-4.455,9.97-9.944
	c0-5.45-4.466-9.944-9.97-9.944c-1.635,0-3.23,0.438-4.586,1.154l-2.751-5.131l0.598-1.313c0.239-0.438,0.798-0.318,1.156-0.676
	c0.04-0.2,0.04-0.398,0.04-0.597c-0.159-0.04-0.239-0.319-0.479-0.319h-3.669c-0.119,0.12-0.239,0.08-0.319,0.08
	c-0.039,0.04-0.079,0.08-0.159,0.12c0,0.159-0.08,0.438,0,0.596c0.08,0.04,0.159,0.08,0.199,0.08h1.875
	c0.239-0.04,0.398,0.04,0.638,0.119c0.04,0.08,0.04,0.08,0.121,0.08c0,0.159,0.08,0.317,0.04,0.438l-0.4,0.915H33.599l0.559-2.267
	c0.398-0.16,0.758,0.159,1.635-0.239c0.358,0,1.156-0.437,2.154-0.12c0.159-0.039-0.08-0.159,0.04-0.278
	c-0.08-0.04,0.119-0.238,0.079-0.358c-0.558-0.159-1.834-0.239-2.473,0.12c-0.559,0.357-1.396,0.079-1.954,0.159l-1.875,8.074
	c-1.077-0.438-2.313-0.676-3.549-0.676c-5.504,0-9.931,4.495-9.931,9.944c0,5.489,4.427,9.944,9.931,9.944
	c5.463,0,9.93-4.455,9.93-9.944c0-4.018-2.393-7.438-5.783-8.989L33,15.851z"/>
<path fill="none" stroke="#000000" stroke-width="0.199" stroke-miterlimit="3.863" d="M26.58,16.846
	c0.598-0.08,1.117-0.16,1.635-0.16c5.942,0,10.727,4.814,10.727,10.78c0,0.317,0,0.596-0.039,1.033"/>
<path fill="#FFFFFF" d="M29.052,26.232c-0.239-0.199-0.559-0.159-0.877-0.159c-0.758,0-1.436,0.716-1.436,1.471
	c0,0.796,0.678,1.432,1.436,1.432c0.678,0,1.276-0.438,1.475-1.034h7.498c-0.279,4.693-4.147,8.432-8.973,8.432
	c-4.985,0-9.013-4.017-9.013-8.989c0-5.011,4.027-8.989,9.013-8.989c1.197,0,2.353,0.199,3.35,0.636L31.007,21.5
	C30.647,22.852,30.129,24.522,29.052,26.232z"/>
<path fill="none" stroke="#000000" stroke-width="0.199" stroke-miterlimit="3.863" d="M29.052,26.232
	c-0.239-0.199-0.559-0.159-0.877-0.159c-0.758,0-1.436,0.716-1.436,1.471c0,0.796,0.678,1.432,1.436,1.432
	c0.678,0,1.276-0.438,1.475-1.034h7.498c-0.279,4.693-4.147,8.432-8.973,8.432c-4.985,0-9.013-4.017-9.013-8.989
	c0-5.011,4.027-8.989,9.013-8.989c1.197,0,2.353,0.199,3.35,0.636L31.007,21.5C30.647,22.852,30.129,24.522,29.052,26.232z"/>
<path fill="#FFFFFF" d="M32.164,19.312l-0.639,2.585c-0.319,1.233-1.276,3.739-2.074,4.733c0.08,0.16,0.199,0.398,0.199,0.597h7.538
	C37.108,23.727,35.074,20.744,32.164,19.312z"/>
<path fill="none" stroke="#000000" stroke-width="0.199" stroke-miterlimit="3.863" d="M32.164,19.312l-0.639,2.585
	c-0.319,1.233-1.276,3.739-2.074,4.733c0.08,0.16,0.199,0.398,0.199,0.597h7.538C37.108,23.727,35.074,20.744,32.164,19.312z"/>
<path fill="#FFFFFF" d="M33.121,15.255l0.278-1.592h18.864l-5.264,11.059c-0.199-0.12-0.359-0.279-0.718-0.199v-3.143h0.439v-0.556
	h-1.436v0.556h0.438v3.143c-0.519,0.159-0.957,0.357-1.355,0.636L33.121,15.255z"/>
<path fill="none" stroke="#000000" stroke-width="0.199" stroke-miterlimit="3.863" d="M33.121,15.255l0.278-1.592h18.864
	l-5.264,11.059c-0.199-0.12-0.359-0.279-0.718-0.199v-3.143h0.439v-0.556h-1.436v0.556h0.438v3.143
	c-0.519,0.159-0.957,0.357-1.355,0.636L33.121,15.255z"/>
<path fill="#FFFFFF" d="M62.273,26.471l5.982-3.301c0.718,1.273,1.077,2.744,1.077,4.296c0,4.971-3.988,8.989-8.934,8.989
	c-4.865,0-8.813-3.819-9.013-8.592h7.019c0.159,0.915,0.997,1.591,1.994,1.591c1.076,0,2.034-0.915,2.034-1.988
	c0-0.359-0.079-0.676-0.239-0.955L62.273,26.471z"/>
<path fill="none" stroke="#000000" stroke-width="0.199" stroke-miterlimit="3.863" d="M62.273,26.471l5.982-3.301
	c0.718,1.273,1.077,2.744,1.077,4.296c0,4.971-3.988,8.989-8.934,8.989c-4.865,0-8.813-3.819-9.013-8.592h7.019
	c0.159,0.915,0.997,1.591,1.994,1.591c1.076,0,2.034-0.915,2.034-1.988c0-0.359-0.079-0.676-0.239-0.955L62.273,26.471z"/>
<path fill="#FFFFFF" d="M61.954,26.073l6.062-3.301c-1.555-2.586-4.467-4.295-7.697-4.295c-1.435,0-2.831,0.357-4.067,0.994
	l3.43,6.086c0.199-0.04,0.479-0.119,0.758-0.119C60.996,25.438,61.515,25.715,61.954,26.073z"/>
<path fill="none" stroke="#000000" stroke-width="0.199" stroke-miterlimit="3.863" d="M61.954,26.073l6.062-3.301
	c-1.555-2.586-4.467-4.295-7.697-4.295c-1.435,0-2.831,0.357-4.067,0.994l3.43,6.086c0.199-0.04,0.479-0.119,0.758-0.119
	C60.996,25.438,61.515,25.715,61.954,26.073z"/>
<path fill="#FFFFFF" d="M55.772,19.829l3.429,6.165c-0.358,0.239-0.638,0.716-0.718,1.193h-7.138
	c0.08-3.142,1.754-5.887,4.307-7.398L55.772,19.829z"/>
<path fill="none" stroke="#000000" stroke-width="0.199" stroke-miterlimit="3.863" d="M55.772,19.829l3.43,6.165
	c-0.359,0.239-0.638,0.716-0.718,1.193h-7.138c0.08-3.142,1.754-5.887,4.307-7.398L55.772,19.829z"/>
<path fill="#FFFFFF" d="M52.621,14.18l-4.904,10.859c0.718,0.477,1.276,1.273,1.316,2.188h1.476c0.039-3.5,1.954-6.563,4.786-8.234
	L52.621,14.18z"/>
<path fill="none" stroke="#000000" stroke-width="0.199" stroke-miterlimit="3.863" d="M52.621,14.18l-4.904,10.858
	c0.718,0.478,1.276,1.273,1.316,2.188h1.476c0.039-3.5,1.954-6.563,4.786-8.234L52.621,14.18z"/>
<path fill="none" stroke="#000000" stroke-width="0.199" stroke-miterlimit="3.863" d="M49.831,29.057
	c-0.08-0.518-0.12-1.035-0.12-1.591c0-5.966,4.825-10.78,10.768-10.78c4.387,0,8.136,2.626,9.81,6.445"/>
</svg>
