<?xml version="1.0" encoding="UTF-8" standalone="no"?>
<!-- Created with Inkscape (http://www.inkscape.org/) -->

<svg
   xmlns:dc="http://purl.org/dc/elements/1.1/"
   xmlns:cc="http://creativecommons.org/ns#"
   xmlns:rdf="http://www.w3.org/1999/02/22-rdf-syntax-ns#"
   xmlns:svg="http://www.w3.org/2000/svg"
   xmlns="http://www.w3.org/2000/svg"
   xmlns:sodipodi="http://sodipodi.sourceforge.net/DTD/sodipodi-0.dtd"
   xmlns:inkscape="http://www.inkscape.org/namespaces/inkscape"
   width="68.407425"
   height="103.11981"
   id="svg3304"
   version="1.1"
   inkscape:version="0.47 r22583"
   sodipodi:docname="Nuovo documento 3">
  <defs
     id="defs3306">
    <inkscape:perspective
       sodipodi:type="inkscape:persp3d"
       inkscape:vp_x="0 : 526.18109 : 1"
       inkscape:vp_y="0 : 1000 : 0"
       inkscape:vp_z="744.09448 : 526.18109 : 1"
       inkscape:persp3d-origin="372.04724 : 350.78739 : 1"
       id="perspective3312" />
    <inkscape:perspective
       id="perspective3322"
       inkscape:persp3d-origin="0.5 : 0.33333333 : 1"
       inkscape:vp_z="1 : 0.5 : 1"
       inkscape:vp_y="0 : 1000 : 0"
       inkscape:vp_x="0 : 0.5 : 1"
       sodipodi:type="inkscape:persp3d" />
    <clipPath
       clipPathUnits="userSpaceOnUse"
       id="clipPath2942">
      <path
         d="m 731,5156.67 564,0 0,-841 -564,0"
         id="path2944" />
    </clipPath>
    <inkscape:perspective
       id="perspective3521"
       inkscape:persp3d-origin="34.303001 : 34.112999 : 1"
       inkscape:vp_z="68.606003 : 51.169498 : 1"
       inkscape:vp_y="0 : 1000 : 0"
       inkscape:vp_x="0 : 51.169498 : 1"
       sodipodi:type="inkscape:persp3d" />
  </defs>
  <sodipodi:namedview
     id="base"
     pagecolor="#ffffff"
     bordercolor="#666666"
     borderopacity="1.0"
     inkscape:pageopacity="0.0"
     inkscape:pageshadow="2"
     inkscape:zoom="3.3414062"
     inkscape:cx="122.0888"
     inkscape:cy="57.485573"
     inkscape:document-units="px"
     inkscape:current-layer="layer1"
     showgrid="false"
     inkscape:window-width="1600"
     inkscape:window-height="838"
     inkscape:window-x="-8"
     inkscape:window-y="-8"
     inkscape:window-maximized="1" />
  <metadata
     id="metadata3309">
    <rdf:RDF>
      <cc:Work
         rdf:about="">
        <dc:format>image/svg+xml</dc:format>
        <dc:type
           rdf:resource="http://purl.org/dc/dcmitype/StillImage" />
        <dc:title></dc:title>
      </cc:Work>
    </rdf:RDF>
  </metadata>
  <g
     inkscape:label="Livello 1"
     inkscape:groupmode="layer"
     id="layer1"
     transform="translate(-64.014267,-641.97441)"><g
   id="g3629"
   transform="matrix(0.82244578,0,0,0.82244578,12.06981,154.93929)">
  <path
     d="m 72.914368,592.179 63.774752,0 c 5.3145,0 9.645,4.3635 9.645,9.7185 l 0,106.053 c 0,5.3175 -4.3305,9.6075 -9.645,9.6075 l -63.847352,0 c -5.3514,0 -9.68325,-4.3635 -9.68325,-9.681 l 0.0369,-105.9795 c 0,-5.355 4.36815,-9.7185 9.71895,-9.7185"
     style="fill:#0071b3;fill-opacity:1;fill-rule:nonzero;stroke:none"
     id="path2946" />
  <g
     id="g2948"
     transform="matrix(0.1494444,0,0,-0.150555,-46.927382,1365.789)">
    <path
       d="m 801.915,5138.37 426.745,0 c 35.56,0 64.54,-28.99 64.54,-64.55 l 0,-704.41 c 0,-35.32 -28.98,-63.82 -64.54,-63.82 l -427.231,0 c -35.808,0 -64.794,28.98 -64.794,64.3 l 0.247,703.93 c 0,35.56 29.229,64.55 65.033,64.55 z"
       style="fill:none;stroke:none"
       id="path2950" />
  </g>
  <path
     d="m 133.81212,611.1015 c -4.8045,0 -7.7895,-5.208 -5.3865,-9.3885 2.403,-4.143 8.373,-4.143 10.7385,0 2.403,4.1805 -0.582,9.3885 -5.352,9.3885"
     style="fill:#ffffff;fill-opacity:1;fill-rule:evenodd;stroke:none"
     id="path2952" />
  <g
     id="g2954"
     transform="matrix(0.1494444,0,0,-0.150555,-46.927382,1365.789)">
    <path
       d="m 1209.41,5012.68 c -32.15,0 -52.12,34.59 -36.04,62.36 16.07,27.53 56.02,27.53 71.85,0 16.08,-27.77 -3.9,-62.36 -35.81,-62.36 z"
       style="fill:none;stroke:none"
       id="path2956" />
  </g>
  <path
     d="m 142.95012,708.0975 c 0,3.483 -2.8035,6.3075 -6.189,6.3075 l -63.992552,0 c -3.42135,0 -6.1881,-2.8245 -6.1881,-6.3075 l 0,-105.87 c 0,-3.447 2.76675,-6.3075 6.1881,-6.3075 20.05725,0 43.900052,0 63.992552,0 3.3855,0 6.189,2.823 6.189,6.3435 l 0,105.834"
     style="fill:#ffffff;fill-opacity:1;fill-rule:nonzero;stroke:none"
     id="path2958" />
  <g
     id="g2960"
     transform="matrix(0.1494444,0,0,-0.150555,-46.927382,1365.789)">
    <path
       d="m 1270.55,4368.43 c 0,-23.14 -18.75,-41.9 -41.41,-41.9 l -428.201,0 c -22.893,0 -41.407,18.76 -41.407,41.9 l 0,703.2 c 0,22.9 18.514,41.9 41.407,41.9 134.212,0 293.751,0 428.201,0 22.66,0 41.41,-18.76 41.41,-42.14 l 0,-702.96 z"
       style="fill:none;stroke:none"
       id="path2962" />
  </g>
  <path
     d="m 140.18262,708.1335 c 0,1.761 -1.455,3.1545 -3.1665,3.1545 l -64.611452,0 c -1.7109,0 -3.09435,-1.3935 -3.09435,-3.1545 l 0,-107.007 c 0,-1.7235 1.38345,-3.153 3.09435,-3.153 18.6006,0 46.083452,0 64.684952,0 1.71,0 3.093,1.3935 3.093,3.153 l 0,107.007"
     style="fill:#0071b3;fill-opacity:1;fill-rule:nonzero;stroke:none"
     id="path2964" />
  <g
     id="g2966"
     transform="matrix(0.1494444,0,0,-0.150555,-46.927382,1365.789)">
    <path
       d="m 1252.04,4368.19 c 0,-11.69 -9.74,-20.95 -21.19,-20.95 l -432.346,0 c -11.448,0 -20.705,9.26 -20.705,20.95 l 0,710.75 c 0,11.44 9.257,20.94 20.705,20.94 124.465,0 308.366,0 432.836,0 11.44,0 20.7,-9.25 20.7,-20.94 l 0,-710.75 z"
       style="fill:none;stroke:none"
       id="path2968" />
  </g>
  <path
     d="m 92.279668,673.149 0,-6.4545 -16.9266,10.3785 16.9266,10.4145 0,-7.0035 42.115952,0 0.036,-7.2615 -42.151952,0 0,-0.0735"
     style="fill:#ffffff;fill-opacity:1;fill-rule:nonzero;stroke:none"
     id="path2970" />
  <g
     id="g2972"
     transform="matrix(0.1494444,0,0,-0.150555,-46.927382,1365.789)">
    <path
       d="m 931.497,4600.56 0,42.87 -113.263,-68.94 113.263,-69.17 0,46.52 281.813,0 0.25,48.23 -282.063,0 0,0.49 z"
       style="fill:none;stroke:none"
       id="path2974" />
  </g>
  <path
     d="m 79.175218,663.3945 17.8365,0 0,-4.2165 7.971902,0 0,-3.9975 7.935,0 0,-4.2165 7.7535,0 0,-4.3275 9.9015,0 0,-4.365 -13.7595,0 0,4.1445 -8.19,0 0,4.584 -7.8993,0 0,4.0695 -7.753802,0 0,4.182 -13.86855,0 0,4.254 0.07275,-0.111"
     style="fill:#ffffff;fill-opacity:1;fill-rule:nonzero;stroke:none"
     id="path2976" />
  <g
     id="g2978"
     transform="matrix(0.1494444,0,0,-0.150555,-46.927382,1365.789)">
    <path
       d="m 843.809,4665.35 119.352,0 0,28.01 53.339,0 0,26.55 53.1,0 0,28.01 51.89,0 0,28.74 66.25,0 0,28.99 -92.08,0 0,-27.53 -54.8,0 0,-30.44 -52.853,0 0,-27.04 -51.884,0 0,-27.77 -92.8,0 0,-28.25 0.486,0.73 z"
       style="fill:none;stroke:none"
       id="path2980" />
  </g>
  <path
     d="m 116.81412,695.3715 0,9.828 2.439,0 0,-5.5365 c 0,-2.421 1.455,-2.64 2.1105,-2.274 0.474,0.2205 0.7275,0.7335 0.7275,1.761 l 0,6.0495 2.4765,0 0,-5.5365 c 0,-2.421 1.4925,-2.64 2.1465,-2.274 0.474,0.2205 0.8385,0.7335 0.8385,1.761 l 0,6.0495 2.475,0 0,-6.894 c 0,-3.5565 -4.005,-4.2165 -5.7885,-1.7595 -1.092,-2.0895 -4.0395,-1.9065 -5.169,0.0735 l 0,-1.248 -2.256,0"
     style="fill:#ffffff;fill-opacity:1;fill-rule:evenodd;stroke:none"
     id="path2982" />
  <g
     id="g2984"
     transform="matrix(0.1494444,0,0,-0.150555,-46.927382,1365.789)">
    <path
       d="m 1095.66,4452.95 0,-65.28 16.33,0 0,36.78 c 0,16.08 9.74,17.54 14.12,15.1 3.17,-1.46 4.87,-4.87 4.87,-11.69 l 0,-40.19 16.57,0 0,36.78 c 0,16.08 9.98,17.54 14.37,15.1 3.16,-1.46 5.6,-4.87 5.6,-11.69 l 0,-40.19 16.56,0 0,45.8 c 0,23.62 -26.79,28.01 -38.72,11.69 -7.31,13.88 -27.04,12.66 -34.59,-0.49 l 0,8.28 -15.11,0 z"
       style="fill:none;stroke:#ffffff;stroke-width:1.77695596;stroke-linecap:butt;stroke-linejoin:miter;stroke-miterlimit:3.86299992;stroke-opacity:1;stroke-dasharray:none"
       id="path2986" />
  </g>
  <path
     d="m 96.138118,700.47 c 0,2.64 -2.0748,4.7295 -4.65945,4.7295 -2.65725,0 -4.73205,-2.0895 -4.73205,-4.7295 l 0,-5.0985 c 0,-2.64 2.0748,-4.7295 4.73205,-4.7295 2.58465,0 4.65945,2.0895 4.65945,4.7295 l 0,5.0985"
     style="fill:#ffffff;fill-opacity:1;fill-rule:nonzero;stroke:none"
     id="path2988" />
  <g
     id="g2990"
     transform="matrix(0.1494444,0,0,-0.150555,-46.927382,1365.789)">
    <path
       d="m 957.315,4419.09 c 0,-17.53 -13.883,-31.42 -31.178,-31.42 -17.78,0 -31.664,13.89 -31.664,31.42 l 0,33.86 c 0,17.54 13.884,31.42 31.664,31.42 17.295,0 31.178,-13.88 31.178,-31.42 l 0,-33.86 z"
       style="fill:none;stroke:#ffffff;stroke-width:1.77695596;stroke-linecap:butt;stroke-linejoin:miter;stroke-miterlimit:3.86299992;stroke-opacity:1;stroke-dasharray:none"
       id="path2992" />
  </g>
  <path
     d="m 89.149018,700.617 0,-5.4645 c 0,-1.284 1.01955,-2.3475 2.32965,-2.3475 1.2738,0 2.25705,1.0635 2.25705,2.3475 l 0,5.4645 c 0,1.2465 -0.98325,2.274 -2.25705,2.274 -1.3101,0 -2.32965,-1.0275 -2.32965,-2.274"
     style="fill:#106fb6;fill-opacity:1;fill-rule:nonzero;stroke:none"
     id="path2994" />
  <g
     id="g2996"
     transform="matrix(0.1494444,0,0,-0.150555,-46.927382,1365.789)">
    <path
       d="m 910.548,4418.12 0,36.29 c 0,8.53 6.822,15.59 15.589,15.59 8.524,0 15.103,-7.06 15.103,-15.59 l 0,-36.29 c 0,-8.28 -6.579,-15.1 -15.103,-15.1 -8.767,0 -15.589,6.82 -15.589,15.1 z"
       style="fill:none;stroke:#106fb6;stroke-width:1.77695596;stroke-linecap:butt;stroke-linejoin:miter;stroke-miterlimit:3.86299992;stroke-opacity:1;stroke-dasharray:none"
       id="path2998" />
  </g>
  <path
     d="m 83.143168,705.1995 0,-14.5575 -2.3298,0 -1.49235,2.493 0,1.467 1.2738,0 0,10.5975 2.54835,0"
     style="fill:#ffffff;fill-opacity:1;fill-rule:nonzero;stroke:none"
     id="path3000" />
  <g
     id="g3002"
     transform="matrix(0.1494444,0,0,-0.150555,-46.927382,1365.789)">
    <path
       d="m 870.36,4387.67 0,96.7 -15.589,0 -9.986,-16.56 0,-9.74 8.524,0 0,-70.4 17.051,0 z"
       style="fill:none;stroke:#ffffff;stroke-width:1.77695596;stroke-linecap:butt;stroke-linejoin:miter;stroke-miterlimit:3.86299992;stroke-opacity:1;stroke-dasharray:none"
       id="path3004" />
  </g>
  <path
     d="m 109.06062,700.47 c 0,2.64 -2.0745,4.7295 -4.659,4.7295 -2.65785,0 -4.732652,-2.0895 -4.732652,-4.7295 l 0,-5.0985 c 0,-2.64 2.074802,-4.7295 4.732652,-4.7295 2.5845,0 4.659,2.0895 4.659,4.7295 l 0,5.0985"
     style="fill:#ffffff;fill-opacity:1;fill-rule:nonzero;stroke:none"
     id="path3006" />
  <g
     id="g3008"
     transform="matrix(0.1494444,0,0,-0.150555,-46.927382,1365.789)">
    <path
       d="m 1043.78,4419.09 c 0,-17.53 -13.88,-31.42 -31.17,-31.42 -17.785,0 -31.668,13.89 -31.668,31.42 l 0,33.86 c 0,17.54 13.883,31.42 31.668,31.42 17.29,0 31.17,-13.88 31.17,-31.42 l 0,-33.86 z"
       style="fill:none;stroke:#ffffff;stroke-width:1.77695596;stroke-linecap:butt;stroke-linejoin:miter;stroke-miterlimit:3.86299992;stroke-opacity:1;stroke-dasharray:none"
       id="path3010" />
  </g>
  <path
     d="m 102.07122,700.617 0,-5.4645 c 0,-1.284 1.0194,-2.3475 2.3304,-2.3475 1.2735,0 2.256,1.0635 2.256,2.3475 l 0,5.4645 c 0,1.2465 -0.9825,2.274 -2.256,2.274 -1.311,0 -2.3304,-1.0275 -2.3304,-2.274"
     style="fill:#106fb6;fill-opacity:1;fill-rule:nonzero;stroke:none"
     id="path3012" />
  <g
     id="g3014"
     transform="matrix(0.1494444,0,0,-0.150555,-46.927382,1365.789)">
    <path
       d="m 997.017,4418.12 0,36.29 c 0,8.53 6.823,15.59 15.593,15.59 8.52,0 15.1,-7.06 15.1,-15.59 l 0,-36.29 c 0,-8.28 -6.58,-15.1 -15.1,-15.1 -8.77,0 -15.593,6.82 -15.593,15.1 z"
       style="fill:none;stroke:#106fb6;stroke-width:1.77695596;stroke-linecap:butt;stroke-linejoin:miter;stroke-miterlimit:3.86299992;stroke-opacity:1;stroke-dasharray:none"
       id="path3016" />
  </g>
  <path
     d="m 103.85412,612.825 -2.6565,0.33 -0.0726,0.66 2.8401,1.5765 2.1465,8.361 3.6045,5.6475 -1.821,1.32 -3.894,-5.61 -1.6386,-4.254 -0.7641,11.148 -0.58245,0 4.14915,5.427 -0.7275,10.3425 -0.765,0 0.2925,1.173 0.4365,0.5865 1.965,0.5865 0,0.66 -2.6565,0 -1.2018,-0.9525 -0.5097,0.4755 -0.801,-0.402 0.1095,-1.248 0.58245,-0.807 -0.65565,-0.1095 -0.3639,-8.1045 -2.693552,-2.97 -1.09215,15.549 c -1.52865,0 -1.3464,-0.294 -1.3464,0.0735 1.7472,2.5665 1.7835,1.9425 3.021,2.2725 l 0.10905,0.5505 -1.41975,-0.0375 c -0.69135,-0.3285 -1.7103,-0.2565 -2.22015,-0.549 l -0.0363,0.549 -1.3107,0 -0.18165,-1.503 0.3639,-1.209 -0.6552,-0.294 -0.1095,-20.28 -0.7278,0 0.47295,-9.9375 -2.73,7.995 -2.03835,-0.771 2.69355,-8.727 4.33185,-6.675 2.5482,-0.183 0.32745,-0.366 0.3276,-0.1845 0.21855,-1.026 -0.21855,-0.477 -0.801,-2.8965 -1.2012,-0.2565 0.03645,-0.3315 1.20105,-0.6225 -0.0726,-2.2005 4.768352,-0.477 1.02,2.31 1.6005,0.477 0.183,0.2205 -1.4205,0.66 -0.072,0.807 0.6555,1.3935 -0.5475,0.33 0.0735,0.549 -0.255,0.3675 0.3285,0.4395 -0.147,0.624"
     style="fill:#ffffff;fill-opacity:1;fill-rule:nonzero;stroke:none"
     id="path3018" />
  <g
     id="g3020"
     transform="matrix(0.1494444,0,0,-0.150555,-46.927382,1365.789)">
    <path
       d="m 1008.95,5001.24 -17.779,-2.19 -0.486,-4.39 19.005,-10.47 14.36,-55.54 24.12,-37.51 -12.18,-8.77 -26.06,37.27 -10.964,28.25 -5.113,-74.04 -3.897,0 27.764,-36.05 -4.87,-68.69 -5.11,0 1.95,-7.79 2.92,-3.9 13.15,-3.9 0,-4.38 -17.78,0 -8.038,6.33 -3.411,-3.17 -5.36,2.68 0.733,8.28 3.898,5.36 -4.388,0.73 -2.435,53.83 -18.023,19.73 -7.309,-103.27 c -10.229,0 -9.01,1.95 -9.01,-0.49 11.692,-17.05 11.935,-12.91 20.216,-15.1 l 0.729,-3.65 -9.5,0.24 c -4.626,2.19 -11.445,1.71 -14.856,3.65 l -0.243,-3.65 -8.771,0 -1.215,9.99 2.435,8.03 -4.384,1.95 -0.733,134.7 -4.869,0 3.164,66.01 -18.267,-53.1 -13.641,5.11 18.024,57.98 28.986,44.32 17.052,1.22 2.192,2.44 2.191,1.22 1.463,6.81 -1.463,3.17 -5.359,19.24 -8.038,1.71 0.243,2.19 8.038,4.14 -0.486,14.62 31.907,3.16 6.818,-15.34 10.72,-3.17 1.22,-1.46 -9.5,-4.38 -0.49,-5.36 4.39,-9.26 -3.66,-2.19 0.49,-3.65 -1.7,-2.44 2.19,-2.92 -0.98,-4.14 z"
       style="fill:none;stroke:none"
       id="path3022" />
  </g>
</g>



























</g>
</svg>
