<?xml version="1.0" encoding="UTF-8" standalone="no"?>
<!-- Created with Inkscape (http://www.inkscape.org/) -->

<svg
   xmlns:dc="http://purl.org/dc/elements/1.1/"
   xmlns:cc="http://creativecommons.org/ns#"
   xmlns:rdf="http://www.w3.org/1999/02/22-rdf-syntax-ns#"
   xmlns:svg="http://www.w3.org/2000/svg"
   xmlns="http://www.w3.org/2000/svg"
   xmlns:sodipodi="http://sodipodi.sourceforge.net/DTD/sodipodi-0.dtd"
   xmlns:inkscape="http://www.inkscape.org/namespaces/inkscape"
   width="79.485123"
   height="79.580116"
   id="svg4368"
   version="1.1"
   inkscape:version="0.47 r22583"
   sodipodi:docname="Belgian road sign D02c.svg">
  <defs
     id="defs4370">
    <inkscape:perspective
       sodipodi:type="inkscape:persp3d"
       inkscape:vp_x="0 : 526.18109 : 1"
       inkscape:vp_y="0 : 1000 : 0"
       inkscape:vp_z="744.09448 : 526.18109 : 1"
       inkscape:persp3d-origin="372.04724 : 350.78739 : 1"
       id="perspective4376" />
    <inkscape:perspective
       id="perspective4471"
       inkscape:persp3d-origin="39.7145 : 26.441666 : 1"
       inkscape:vp_z="79.429001 : 39.662498 : 1"
       inkscape:vp_y="0 : 1000 : 0"
       inkscape:vp_x="0 : 39.662498 : 1"
       sodipodi:type="inkscape:persp3d" />
    <inkscape:perspective
       id="perspective4525"
       inkscape:persp3d-origin="0.5 : 0.33333333 : 1"
       inkscape:vp_z="1 : 0.5 : 1"
       inkscape:vp_y="0 : 1000 : 0"
       inkscape:vp_x="0 : 0.5 : 1"
       sodipodi:type="inkscape:persp3d" />
    <clipPath
       clipPathUnits="userSpaceOnUse"
       id="clipPath2854">
      <path
         d="m 730,6134.67 711,0 0,-723 -356,0 -355,0 0,723 z"
         clip-rule="evenodd"
         id="path2856" />
    </clipPath>
    <inkscape:perspective
       id="perspective6373"
       inkscape:persp3d-origin="0.5 : 0.33333333 : 1"
       inkscape:vp_z="1 : 0.5 : 1"
       inkscape:vp_y="0 : 1000 : 0"
       inkscape:vp_x="0 : 0.5 : 1"
       sodipodi:type="inkscape:persp3d" />
    <inkscape:perspective
       id="perspective7458"
       inkscape:persp3d-origin="0.5 : 0.33333333 : 1"
       inkscape:vp_z="1 : 0.5 : 1"
       inkscape:vp_y="0 : 1000 : 0"
       inkscape:vp_x="0 : 0.5 : 1"
       sodipodi:type="inkscape:persp3d" />
    <inkscape:perspective
       id="perspective7502"
       inkscape:persp3d-origin="39.429501 : 26.246999 : 1"
       inkscape:vp_z="78.859001 : 39.370499 : 1"
       inkscape:vp_y="0 : 1000 : 0"
       inkscape:vp_x="0 : 39.370499 : 1"
       sodipodi:type="inkscape:persp3d" />
    <inkscape:perspective
       id="perspective7528"
       inkscape:persp3d-origin="300 : 200 : 1"
       inkscape:vp_z="600 : 300 : 1"
       inkscape:vp_y="0 : 1000 : 0"
       inkscape:vp_x="0 : 300 : 1"
       sodipodi:type="inkscape:persp3d" />
    <inkscape:perspective
       id="perspective7574"
       inkscape:persp3d-origin="39.7425 : 26.527 : 1"
       inkscape:vp_z="79.485001 : 39.790501 : 1"
       inkscape:vp_y="0 : 1000 : 0"
       inkscape:vp_x="0 : 39.790501 : 1"
       sodipodi:type="inkscape:persp3d" />
    <inkscape:perspective
       id="perspective7618"
       inkscape:persp3d-origin="39.7425 : 26.527 : 1"
       inkscape:vp_z="79.485001 : 39.790501 : 1"
       inkscape:vp_y="0 : 1000 : 0"
       inkscape:vp_x="0 : 39.790501 : 1"
       sodipodi:type="inkscape:persp3d" />
  </defs>
  <sodipodi:namedview
     id="base"
     pagecolor="#ffffff"
     bordercolor="#666666"
     borderopacity="1.0"
     inkscape:pageopacity="0.0"
     inkscape:pageshadow="2"
     inkscape:zoom="2.8284271"
     inkscape:cx="22.645729"
     inkscape:cy="15.132803"
     inkscape:document-units="px"
     inkscape:current-layer="layer1"
     showgrid="false"
     inkscape:window-width="1600"
     inkscape:window-height="838"
     inkscape:window-x="-8"
     inkscape:window-y="-8"
     inkscape:window-maximized="1" />
  <metadata
     id="metadata4373">
    <rdf:RDF>
      <cc:Work
         rdf:about="">
        <dc:format>image/svg+xml</dc:format>
        <dc:type
           rdf:resource="http://purl.org/dc/dcmitype/StillImage" />
        <dc:title></dc:title>
      </cc:Work>
    </rdf:RDF>
  </metadata>
  <g
     inkscape:label="Livello 1"
     inkscape:groupmode="layer"
     id="layer1"
     transform="translate(-41.748075,-426.64107)">






















































<g
   transform="matrix(0.45632017,0,0,0.45632017,134.03867,423.67773)"
   id="g1882" />
<g
   transform="matrix(0.45632017,0,0,0.45632017,180.33813,419.41916)"
   id="g2461" />










<path
   id="path7596"
   d="m 41.825575,466.43824 c 0,30.524 33.059997,49.595 59.495995,34.333 26.43801,-15.264 26.45301,-53.419 0,-68.683 -26.436998,-15.261 -59.495995,3.825 -59.495995,34.35 z"
   clip-rule="evenodd"
   style="fill:#0071b3;fill-rule:evenodd" />

<path
   id="path7598"
   d="m 41.825575,466.43824 c 0,30.524 33.059997,49.595 59.495995,34.333 26.43801,-15.264 26.45301,-53.419 0,-68.683 -26.436998,-15.261 -59.495995,3.825 -59.495995,34.35 z"
   stroke-miterlimit="3.863"
   style="fill:none;stroke:#0071b3;stroke-width:0.155;stroke-miterlimit:3.86299992" />

<path
   id="path7600"
   d="m 43.815575,466.43824 c 0,29.002 31.410997,47.124 56.526995,32.623 25.11701,-14.485 25.11701,-50.746 0,-65.247 -25.115998,-14.501 -56.526995,3.622 -56.526995,32.624 z"
   clip-rule="evenodd"
   style="fill:#ffffff;fill-rule:evenodd" />

<path
   id="path7602"
   d="m 43.815575,466.43824 c 0,29.002 31.410997,47.124 56.526995,32.623 25.11701,-14.485 25.11701,-50.746 0,-65.247 -25.115998,-14.501 -56.526995,3.622 -56.526995,32.624 z"
   stroke-miterlimit="3.863"
   style="fill:none;stroke:#ffffff;stroke-width:0.155;stroke-miterlimit:3.86299992" />

<path
   id="path7604"
   d="m 46.239575,466.43824 c 0,27.137 29.391997,44.093 52.891997,30.524 23.499998,-13.569 23.499998,-47.481 0,-61.05 -23.5,-13.569 -52.891997,3.39 -52.891997,30.526 z"
   clip-rule="evenodd"
   style="fill:#0071b3;fill-rule:evenodd" />

<path
   id="path7606"
   d="m 46.239575,466.43824 c 0,27.137 29.391997,44.093 52.891997,30.524 23.499998,-13.569 23.499998,-47.481 0,-61.05 -23.5,-13.569 -52.891997,3.39 -52.891997,30.526 z"
   stroke-miterlimit="3.863"
   style="fill:none;stroke:#0071b3;stroke-width:0.155;stroke-miterlimit:3.86299992" />

<polygon
   id="polygon7608"
   points="71.434,46.853 71.434,32.756 71.388,32.866 36.076,32.866 36.076,11.62 7.929,39.812 36.076,68.006 36.076,46.853 "
   transform="matrix(-1,0,0,1,121.23357,426.64124)"
   style="fill:#ffffff" />

<polygon
   id="polygon7610"
   points="71.434,46.853 71.434,32.756 71.388,32.866 36.076,32.866 36.076,11.62 7.929,39.812 36.076,68.006 36.076,46.853 "
   stroke-miterlimit="3.863"
   transform="matrix(-1,0,0,1,121.23357,426.64124)"
   style="fill:none;stroke:#ffffff;stroke-width:0;stroke-miterlimit:3.86299992" />

</g>
</svg>
