<?xml version="1.0" encoding="utf-8"?>
<!-- Generator: Adobe Illustrator 14.0.0, SVG Export Plug-In . SVG Version: 6.00 Build 43363)  -->
<!DOCTYPE svg PUBLIC "-//W3C//DTD SVG 1.1//EN" "http://www.w3.org/Graphics/SVG/1.1/DTD/svg11.dtd">
<svg version="1.1" id="Calque_1" xmlns="http://www.w3.org/2000/svg" xmlns:xlink="http://www.w3.org/1999/xlink" x="0px" y="0px"
	 width="79.58px" height="79.485px" viewBox="0 0 79.58 79.485" enable-background="new 0 0 79.58 79.485" xml:space="preserve">
<path fill-rule="evenodd" clip-rule="evenodd" fill="#0071B3" d="M39.783,79.408c-30.525,0-49.595-33.06-34.333-59.496
	c15.263-26.438,53.419-26.453,68.683,0C89.395,46.349,70.309,79.408,39.783,79.408z"/>
<path fill="none" stroke="#0071B3" stroke-width="0.155" stroke-miterlimit="3.863" d="M39.783,79.408
	c-30.525,0-49.595-33.06-34.333-59.496c15.263-26.438,53.419-26.453,68.683,0C89.395,46.349,70.309,79.408,39.783,79.408z"/>
<path fill-rule="evenodd" clip-rule="evenodd" fill="#FFFFFF" d="M39.783,77.418c-29.002,0-47.124-31.411-32.623-56.527
	c14.485-25.117,50.746-25.117,65.247,0C86.908,46.007,68.785,77.418,39.783,77.418z"/>
<path fill="none" stroke="#FFFFFF" stroke-width="0.155" stroke-miterlimit="3.863" d="M39.783,77.418
	c-29.002,0-47.124-31.411-32.623-56.527c14.485-25.117,50.746-25.117,65.247,0C86.908,46.007,68.785,77.418,39.783,77.418z"/>
<path fill-rule="evenodd" clip-rule="evenodd" fill="#0071B3" d="M39.783,74.994c-27.137,0-44.093-29.392-30.525-52.892
	c13.569-23.5,47.482-23.5,61.05,0S66.92,74.994,39.783,74.994z"/>
<path fill="none" stroke="#0071B3" stroke-width="0.155" stroke-miterlimit="3.863" d="M39.783,74.994
	c-27.137,0-44.093-29.392-30.525-52.892c13.569-23.5,47.482-23.5,61.05,0S66.92,74.994,39.783,74.994z"/>
<polygon fill="#FFFFFF" points="46.715,71.388 46.715,36.076 67.961,36.076 39.768,7.929 11.574,36.076 32.727,36.076 
	32.727,71.434 46.824,71.434 "/>
<polygon fill="none" stroke="#FFFFFF" stroke-width="0" stroke-miterlimit="3.863" points="46.715,71.388 46.715,36.076 
	67.961,36.076 39.768,7.929 11.574,36.076 32.727,36.076 32.727,71.434 46.824,71.434 "/>
</svg>
