<?xml version="1.0" encoding="utf-8"?>
<!-- Generator: Adobe Illustrator 14.0.0, SVG Export Plug-In . SVG Version: 6.00 Build 43363)  -->
<!DOCTYPE svg PUBLIC "-//W3C//DTD SVG 1.1//EN" "http://www.w3.org/Graphics/SVG/1.1/DTD/svg11.dtd">
<svg version="1.1" id="Calque_1" xmlns="http://www.w3.org/2000/svg" xmlns:xlink="http://www.w3.org/1999/xlink" x="0px" y="0px"
	 width="80.34px" height="80.339px" viewBox="0 0 80.34 80.339" enable-background="new 0 0 80.34 80.339" xml:space="preserve">
<g>
	<defs>
		<rect id="SVGID_1_" x="0.06" y="0.06" width="80.04" height="80.04"/>
	</defs>
	<clipPath id="SVGID_2_">
		<use xlink:href="#SVGID_1_"  overflow="visible"/>
	</clipPath>
	
		<rect x="0.06" y="0.06" clip-path="url(#SVGID_2_)" fill="none" stroke="#000000" stroke-width="0.12" stroke-linecap="round" stroke-linejoin="round" stroke-miterlimit="10" width="80.221" height="80.22"/>
	<rect x="0.06" y="0.06" clip-path="url(#SVGID_2_)" fill="#FFFFFF" width="80.04" height="80.04"/>
</g>
<polyline fill-rule="evenodd" clip-rule="evenodd" fill="#007CE3" points="40.14,79.86 37.26,79.74 34.5,79.379 31.86,79.02 
	29.22,78.3 26.7,77.58 24.3,76.62 21.9,75.419 19.74,74.22 17.58,72.78 15.54,71.339 13.62,69.66 11.82,67.98 10.02,66.06 
	8.46,64.14 7.02,62.1 5.7,59.94 3.54,55.5 2.58,53.1 1.86,50.7 1.26,48.3 0.78,45.78 0.54,43.26 0.3,40.74 0.42,38.22 0.66,35.58 
	1.02,32.94 1.62,30.419 2.34,27.9 3.3,25.26 4.38,22.74 5.7,20.22 7.26,17.82 8.82,15.66 10.62,13.5 12.42,11.58 14.34,9.78 
	16.38,8.22 18.54,6.66 20.82,5.339 23.1,4.14 25.38,3.18 27.78,2.339 30.18,1.62 35.1,0.78 37.62,0.54 40.14,0.419 42.66,0.54 
	45.06,0.78 47.58,1.14 50.1,1.62 52.5,2.339 54.9,3.18 57.18,4.14 59.46,5.339 61.621,6.66 63.781,8.1 65.82,9.78 67.74,11.58 
	69.66,13.5 71.339,15.66 73.02,17.82 74.46,20.22 75.781,22.74 76.98,25.26 77.94,27.9 78.66,30.419 79.26,32.94 79.621,35.58 
	79.86,38.22 79.86,40.74 79.74,43.26 79.38,45.78 79.02,48.3 78.419,50.7 77.58,53.1 76.74,55.5 74.46,59.94 73.14,62.1 
	71.701,64.14 70.14,66.06 68.46,67.98 66.66,69.66 64.74,71.339 62.701,72.78 60.541,74.22 58.26,75.419 55.98,76.62 53.46,77.58 
	50.94,78.3 48.419,79.02 45.66,79.379 42.9,79.74 40.14,79.86 "/>
<polygon fill-rule="evenodd" clip-rule="evenodd" fill="#007CE3" points="42.9,79.74 42.9,79.62 40.14,79.74 37.26,79.62 
	34.5,79.379 31.86,78.9 29.22,78.3 26.7,77.459 24.3,76.5 21.9,75.419 19.74,74.22 17.58,72.78 15.54,71.339 13.62,69.66 
	11.82,67.86 10.14,66.06 8.58,64.14 7.14,62.1 5.82,59.94 3.54,55.5 2.58,53.1 1.86,50.7 1.26,48.3 0.78,45.78 0.54,43.26 
	0.42,40.74 0.42,38.22 0.66,35.58 1.02,32.94 1.62,30.419 2.34,27.9 3.3,25.26 4.38,22.74 5.82,20.22 7.26,17.82 8.94,15.66 
	10.62,13.5 12.54,11.58 14.46,9.78 16.5,8.22 18.54,6.78 20.82,5.339 23.1,4.26 25.38,3.18 27.78,2.339 30.18,1.74 35.1,0.78 
	37.62,0.54 40.14,0.419 42.66,0.54 45.06,0.78 47.58,1.14 49.98,1.74 52.5,2.339 54.9,3.18 57.18,4.26 59.46,5.339 63.781,8.22 
	65.82,9.78 67.74,11.58 69.541,13.5 71.339,15.66 73.02,17.82 74.46,20.22 75.781,22.74 76.98,25.26 77.82,27.9 78.66,30.419 
	79.14,32.94 79.5,35.58 79.74,38.22 79.86,40.74 79.74,43.26 79.38,45.78 78.9,48.3 78.3,50.7 77.58,53.1 76.74,55.5 74.46,59.94 
	73.14,62.1 71.701,64.14 70.14,66.06 68.46,67.86 66.66,69.66 64.621,71.339 62.701,72.78 60.541,74.22 58.26,75.419 55.86,76.5 
	53.46,77.459 50.94,78.3 48.419,78.9 45.66,79.379 42.9,79.62 40.14,79.74 37.26,79.62 37.26,79.74 40.14,79.86 42.9,79.74 
	45.66,79.5 48.419,79.02 50.94,78.419 53.46,77.58 55.98,76.62 58.26,75.54 60.541,74.22 62.701,72.9 64.74,71.339 66.66,69.78 
	68.46,67.98 70.14,66.18 71.701,64.14 73.14,62.1 74.58,59.94 76.74,55.5 77.701,53.1 78.419,50.7 79.02,48.3 79.5,45.78 
	79.74,43.26 79.86,40.74 79.86,38.22 79.621,35.58 79.26,32.94 78.66,30.419 77.94,27.78 76.98,25.26 75.9,22.74 74.58,20.22 
	73.02,17.82 71.339,15.54 69.66,13.5 67.74,11.58 65.82,9.78 63.781,8.1 61.621,6.66 59.46,5.339 57.18,4.14 54.9,3.18 52.5,2.339 
	50.1,1.62 47.58,1.02 45.06,0.66 42.66,0.419 37.62,0.419 35.1,0.66 30.18,1.62 27.78,2.339 25.38,3.18 22.98,4.14 20.82,5.339 
	18.54,6.66 16.38,8.1 14.34,9.78 12.42,11.58 10.62,13.5 8.82,15.54 7.14,17.82 5.7,20.22 4.38,22.74 3.18,25.26 2.34,27.78 
	1.5,30.419 0.9,32.94 0.54,35.58 0.3,38.22 0.3,40.74 0.42,43.26 0.78,45.78 1.14,48.3 1.74,50.7 2.58,53.1 3.42,55.5 5.7,59.94 
	7.02,62.1 8.46,64.14 10.02,66.18 11.7,67.98 13.5,69.78 15.54,71.339 17.58,72.9 19.62,74.22 21.9,75.54 24.3,76.62 26.7,77.58 
	29.22,78.419 31.86,79.02 34.5,79.5 37.26,79.74 40.14,79.86 "/>
<polygon fill="none" stroke="#0071B3" stroke-width="0.12" stroke-linecap="round" stroke-linejoin="round" stroke-miterlimit="10" points="
	42.9,79.74 42.9,79.62 40.14,79.74 37.26,79.62 34.5,79.379 31.86,78.9 29.22,78.3 26.7,77.459 24.3,76.5 21.9,75.419 19.74,74.22 
	17.58,72.78 15.54,71.339 13.62,69.66 11.82,67.86 10.14,66.06 8.58,64.14 7.14,62.1 5.82,59.94 3.54,55.5 2.58,53.1 1.86,50.7 
	1.26,48.3 0.78,45.78 0.54,43.26 0.42,40.74 0.42,38.22 0.66,35.58 1.02,32.94 1.62,30.419 2.34,27.9 3.3,25.26 4.38,22.74 
	5.82,20.22 7.26,17.82 8.94,15.66 10.62,13.5 12.54,11.58 14.46,9.78 16.5,8.22 18.54,6.78 20.82,5.339 23.1,4.26 25.38,3.18 
	27.78,2.339 30.18,1.74 35.1,0.78 37.62,0.54 40.14,0.419 42.66,0.54 45.06,0.78 47.58,1.14 49.98,1.74 52.5,2.339 54.9,3.18 
	57.18,4.26 59.46,5.339 63.781,8.22 65.82,9.78 67.74,11.58 69.541,13.5 71.339,15.66 73.02,17.82 74.46,20.22 75.781,22.74 
	76.98,25.26 77.82,27.9 78.66,30.419 79.14,32.94 79.5,35.58 79.74,38.22 79.86,40.74 79.74,43.26 79.38,45.78 78.9,48.3 78.3,50.7 
	77.58,53.1 76.74,55.5 74.46,59.94 73.14,62.1 71.701,64.14 70.14,66.06 68.46,67.86 66.66,69.66 64.621,71.339 62.701,72.78 
	60.541,74.22 58.26,75.419 55.86,76.5 53.46,77.459 50.94,78.3 48.419,78.9 45.66,79.379 42.9,79.62 40.14,79.74 37.26,79.62 
	37.26,79.74 40.14,79.86 42.9,79.74 45.66,79.5 48.419,79.02 50.94,78.419 53.46,77.58 55.98,76.62 58.26,75.54 60.541,74.22 
	62.701,72.9 64.74,71.339 66.66,69.78 68.46,67.98 70.14,66.18 71.701,64.14 73.14,62.1 74.58,59.94 76.74,55.5 77.701,53.1 
	78.419,50.7 79.02,48.3 79.5,45.78 79.74,43.26 79.86,40.74 79.86,38.22 79.621,35.58 79.26,32.94 78.66,30.419 77.94,27.78 
	76.98,25.26 75.9,22.74 74.58,20.22 73.02,17.82 71.339,15.54 69.66,13.5 67.74,11.58 65.82,9.78 63.781,8.1 61.621,6.66 
	59.46,5.339 57.18,4.14 54.9,3.18 52.5,2.339 50.1,1.62 47.58,1.02 45.06,0.66 42.66,0.419 37.62,0.419 35.1,0.66 30.18,1.62 
	27.78,2.339 25.38,3.18 22.98,4.14 20.82,5.339 18.54,6.66 16.38,8.1 14.34,9.78 12.42,11.58 10.62,13.5 8.82,15.54 7.14,17.82 
	5.7,20.22 4.38,22.74 3.18,25.26 2.34,27.78 1.5,30.419 0.9,32.94 0.54,35.58 0.3,38.22 0.3,40.74 0.42,43.26 0.78,45.78 1.14,48.3 
	1.74,50.7 2.58,53.1 3.42,55.5 5.7,59.94 7.02,62.1 8.46,64.14 10.02,66.18 11.7,67.98 13.5,69.78 15.54,71.339 17.58,72.9 
	19.62,74.22 21.9,75.54 24.3,76.62 26.7,77.58 29.22,78.419 31.86,79.02 34.5,79.5 37.26,79.74 40.14,79.86 "/>
<polyline fill-rule="evenodd" clip-rule="evenodd" fill="#FFFFFF" points="40.14,77.82 37.38,77.7 34.74,77.459 32.22,76.98 
	29.7,76.379 27.3,75.66 25.02,74.7 22.86,73.74 20.7,72.54 18.66,71.22 16.74,69.78 14.94,68.22 13.14,66.54 10.02,62.94 
	7.38,58.98 5.34,54.66 4.38,52.5 3.66,50.22 3.18,47.82 2.7,45.54 2.46,43.14 2.34,40.62 2.34,38.22 2.58,35.82 2.94,33.3 
	3.42,30.9 4.14,28.379 5.1,25.98 6.18,23.58 7.38,21.18 8.82,18.9 10.38,16.74 12.06,14.82 15.66,11.22 17.58,9.66 19.62,8.339 
	21.66,7.02 23.82,5.94 26.1,4.98 30.66,3.54 35.34,2.7 40.14,2.339 44.82,2.7 49.5,3.54 54.06,4.98 56.339,5.94 58.5,7.02 
	60.541,8.339 62.58,9.66 64.5,11.22 66.419,13.02 68.1,14.82 69.781,16.74 71.339,18.9 72.781,21.18 73.98,23.58 75.06,25.98 
	76.02,28.379 76.74,30.9 77.22,33.3 77.58,35.82 77.82,38.22 77.82,40.62 77.701,43.14 77.46,45.54 76.98,47.82 76.5,50.22 
	75.781,52.5 74.82,54.66 72.781,58.98 70.14,62.94 67.02,66.54 65.339,68.22 63.419,69.78 61.5,71.22 59.46,72.54 57.3,73.74 
	55.14,74.7 52.86,75.66 50.46,76.379 47.94,76.98 45.419,77.459 42.781,77.7 40.14,77.82 "/>
<polygon fill-rule="evenodd" clip-rule="evenodd" fill="#FFFFFF" points="42.781,77.82 42.781,77.7 40.14,77.82 37.38,77.7 
	34.74,77.459 32.22,76.98 29.82,76.379 27.42,75.66 25.14,74.7 22.86,73.62 20.7,72.419 18.66,71.1 16.74,69.78 14.94,68.22 
	13.26,66.54 10.14,62.94 7.5,58.98 5.34,54.66 4.5,52.379 3.78,50.1 3.18,47.82 2.82,45.54 2.58,43.14 2.46,40.62 2.46,38.22 
	2.58,35.82 3.06,33.3 3.54,30.9 4.26,28.379 5.1,25.98 6.18,23.58 7.5,21.18 8.94,18.9 10.5,16.86 12.06,14.82 13.86,13.02 
	15.66,11.339 17.7,9.78 19.62,8.339 21.78,7.14 23.94,5.94 26.1,4.98 30.66,3.54 35.34,2.7 40.14,2.339 44.82,2.7 49.5,3.54 
	54.06,4.98 56.339,5.94 58.5,7.14 60.541,8.339 62.58,9.78 64.5,11.339 66.3,13.02 68.1,14.82 69.781,16.86 71.339,18.9 
	72.781,21.18 73.98,23.58 75.06,25.98 76.02,28.379 76.621,30.9 77.22,33.3 77.58,35.82 77.82,38.22 77.82,40.62 77.701,43.14 
	77.46,45.54 76.98,47.82 76.38,50.1 75.66,52.379 74.82,54.66 72.781,58.98 70.14,62.94 67.02,66.54 65.22,68.22 63.419,69.78 
	61.5,71.1 59.46,72.419 57.3,73.62 55.14,74.7 52.86,75.66 50.46,76.379 47.94,76.98 45.419,77.459 42.781,77.7 40.14,77.82 
	37.38,77.7 37.38,77.82 42.781,77.82 45.419,77.459 47.94,77.1 50.46,76.5 52.86,75.66 55.14,74.82 57.419,73.74 59.46,72.54 
	61.5,71.22 63.541,69.78 65.339,68.22 67.02,66.54 70.14,62.94 72.781,58.98 74.94,54.66 75.781,52.5 76.5,50.22 77.1,47.82 
	77.46,45.54 77.82,43.14 77.94,40.62 77.82,38.22 77.701,35.82 77.339,33.3 76.74,30.9 76.02,28.379 75.18,25.98 74.1,23.58 
	72.781,21.18 71.339,18.9 69.781,16.74 68.22,14.82 66.419,12.9 64.621,11.22 62.58,9.66 60.541,8.339 58.5,7.02 56.339,5.94 
	54.06,4.98 49.5,3.54 44.82,2.58 40.14,2.339 35.34,2.58 30.66,3.54 26.1,4.98 23.94,5.94 21.78,7.02 19.62,8.339 17.58,9.66 
	15.66,11.22 13.86,12.9 12.06,14.82 10.38,16.74 8.82,18.9 7.38,21.18 6.18,23.58 5.1,25.98 4.14,28.379 3.42,30.9 2.94,33.3 
	2.58,35.82 2.34,38.22 2.34,40.62 2.46,43.14 2.7,45.54 3.18,47.82 3.66,50.22 4.5,52.5 5.34,54.66 7.38,58.98 10.02,62.94 
	13.14,66.54 14.94,68.22 16.74,69.78 18.66,71.22 20.7,72.54 22.86,73.74 25.02,74.82 27.42,75.66 29.82,76.5 32.22,77.1 
	34.74,77.459 37.38,77.82 "/>
<polygon fill="none" stroke="#FFFFFF" stroke-width="0.12" stroke-linecap="round" stroke-linejoin="round" stroke-miterlimit="10" points="
	42.781,77.82 42.781,77.7 40.14,77.82 37.38,77.7 34.74,77.459 32.22,76.98 29.82,76.379 27.42,75.66 25.14,74.7 22.86,73.62 
	20.7,72.419 18.66,71.1 16.74,69.78 14.94,68.22 13.26,66.54 10.14,62.94 7.5,58.98 5.34,54.66 4.5,52.379 3.78,50.1 3.18,47.82 
	2.82,45.54 2.58,43.14 2.46,40.62 2.46,38.22 2.58,35.82 3.06,33.3 3.54,30.9 4.26,28.379 5.1,25.98 6.18,23.58 7.5,21.18 
	8.94,18.9 10.5,16.86 12.06,14.82 13.86,13.02 15.66,11.339 17.7,9.78 19.62,8.339 21.78,7.14 23.94,5.94 26.1,4.98 30.66,3.54 
	35.34,2.7 40.14,2.339 44.82,2.7 49.5,3.54 54.06,4.98 56.339,5.94 58.5,7.14 60.541,8.339 62.58,9.78 64.5,11.339 66.3,13.02 
	68.1,14.82 69.781,16.86 71.339,18.9 72.781,21.18 73.98,23.58 75.06,25.98 76.02,28.379 76.621,30.9 77.22,33.3 77.58,35.82 
	77.82,38.22 77.82,40.62 77.701,43.14 77.46,45.54 76.98,47.82 76.38,50.1 75.66,52.379 74.82,54.66 72.781,58.98 70.14,62.94 
	67.02,66.54 65.22,68.22 63.419,69.78 61.5,71.1 59.46,72.419 57.3,73.62 55.14,74.7 52.86,75.66 50.46,76.379 47.94,76.98 
	45.419,77.459 42.781,77.7 40.14,77.82 37.38,77.7 37.38,77.82 42.781,77.82 45.419,77.459 47.94,77.1 50.46,76.5 52.86,75.66 
	55.14,74.82 57.419,73.74 59.46,72.54 61.5,71.22 63.541,69.78 65.339,68.22 67.02,66.54 70.14,62.94 72.781,58.98 74.94,54.66 
	75.781,52.5 76.5,50.22 77.1,47.82 77.46,45.54 77.82,43.14 77.94,40.62 77.82,38.22 77.701,35.82 77.339,33.3 76.74,30.9 
	76.02,28.379 75.18,25.98 74.1,23.58 72.781,21.18 71.339,18.9 69.781,16.74 68.22,14.82 66.419,12.9 64.621,11.22 62.58,9.66 
	60.541,8.339 58.5,7.02 56.339,5.94 54.06,4.98 49.5,3.54 44.82,2.58 40.14,2.339 35.34,2.58 30.66,3.54 26.1,4.98 23.94,5.94 
	21.78,7.02 19.62,8.339 17.58,9.66 15.66,11.22 13.86,12.9 12.06,14.82 10.38,16.74 8.82,18.9 7.38,21.18 6.18,23.58 5.1,25.98 
	4.14,28.379 3.42,30.9 2.94,33.3 2.58,35.82 2.34,38.22 2.34,40.62 2.46,43.14 2.7,45.54 3.18,47.82 3.66,50.22 4.5,52.5 
	5.34,54.66 7.38,58.98 10.02,62.94 13.14,66.54 14.94,68.22 16.74,69.78 18.66,71.22 20.7,72.54 22.86,73.74 25.02,74.82 
	27.42,75.66 29.82,76.5 32.22,77.1 34.74,77.459 37.38,77.82 "/>
<polyline fill-rule="evenodd" clip-rule="evenodd" fill="#0071B3" points="40.14,75.419 37.62,75.3 35.1,75.06 32.7,74.7 
	30.42,74.1 28.14,73.379 25.98,72.54 23.94,71.58 21.9,70.5 18.18,67.86 14.94,64.86 11.94,61.5 9.54,57.78 7.5,53.82 6.06,49.5 
	5.1,45.18 4.86,42.9 4.74,40.62 4.74,38.339 4.98,36.06 5.34,33.78 5.82,31.5 6.54,29.22 7.38,26.94 8.34,24.66 9.54,22.5 
	10.86,20.339 12.3,18.3 13.86,16.5 15.54,14.7 19.02,11.7 22.86,9.18 24.9,8.22 26.94,7.26 31.26,5.94 35.58,5.1 37.86,4.86 
	42.3,4.86 44.58,5.1 48.9,5.94 53.22,7.26 55.26,8.22 57.3,9.18 61.14,11.7 64.621,14.7 66.3,16.5 67.86,18.3 69.3,20.339 
	70.621,22.5 71.82,24.66 72.781,26.94 73.621,29.22 74.339,31.5 74.82,33.78 75.18,36.06 75.419,38.339 75.419,40.62 75.3,42.9 
	75.06,45.18 74.1,49.5 72.66,53.82 70.621,57.78 68.22,61.5 65.22,64.86 61.98,67.86 58.26,70.5 56.22,71.58 54.18,72.54 
	52.02,73.379 49.74,74.1 47.46,74.7 45.06,75.06 42.66,75.3 40.14,75.419 "/>
<polygon fill-rule="evenodd" clip-rule="evenodd" fill="#007CE3" points="42.66,75.419 42.66,75.3 37.62,75.3 35.1,75.06 
	32.7,74.58 30.42,74.1 28.26,73.379 26.1,72.54 23.94,71.58 22.02,70.379 18.3,67.86 14.94,64.86 12.06,61.379 9.54,57.78 
	7.62,53.7 6.06,49.5 5.22,45.18 4.98,42.9 4.86,40.62 4.86,38.339 4.98,36.06 5.34,33.78 5.94,31.5 6.54,29.22 7.38,26.94 
	8.34,24.66 9.54,22.5 10.86,20.339 12.3,18.3 13.86,16.5 15.54,14.82 19.14,11.7 22.86,9.3 24.9,8.22 27.06,7.26 31.26,5.94 
	35.7,5.1 37.86,4.98 40.14,4.86 42.3,4.98 44.58,5.1 48.9,5.94 53.22,7.26 55.26,8.22 57.3,9.3 61.14,11.7 64.621,14.82 66.3,16.5 
	67.86,18.3 69.3,20.339 70.621,22.5 71.82,24.66 72.781,26.94 73.621,29.22 74.339,31.5 74.82,33.78 75.18,36.06 75.3,38.339 
	75.419,40.62 75.3,42.9 74.94,45.18 74.1,49.5 72.541,53.7 70.621,57.78 68.1,61.379 65.22,64.86 61.86,67.86 58.26,70.379 
	56.22,71.58 54.18,72.54 52.02,73.379 49.74,74.1 47.46,74.58 45.06,75.06 42.66,75.3 37.62,75.3 37.62,75.419 42.66,75.419 
	45.06,75.06 47.46,74.7 49.74,74.1 52.02,73.379 54.18,72.54 56.22,71.58 58.26,70.5 61.98,67.86 65.339,64.86 68.22,61.5 
	70.621,57.78 72.66,53.82 74.22,49.62 75.06,45.18 75.419,42.9 75.419,38.339 75.3,36.06 74.94,33.78 74.339,31.5 73.74,29.22 
	72.9,26.94 71.82,24.66 70.621,22.379 69.3,20.339 67.86,18.3 66.3,16.379 64.74,14.7 61.14,11.7 57.3,9.18 55.26,8.22 53.22,7.26 
	48.9,5.82 44.58,5.1 42.3,4.86 40.14,4.74 37.86,4.86 35.7,5.1 31.26,5.82 26.94,7.26 24.9,8.22 22.86,9.18 19.02,11.7 15.54,14.7 
	13.86,16.379 12.3,18.3 10.86,20.339 9.54,22.379 8.34,24.66 7.26,26.94 6.42,29.22 5.82,31.5 5.34,33.78 4.98,36.06 4.74,38.339 
	4.74,40.62 4.86,42.9 5.1,45.18 6.06,49.62 7.5,53.82 9.54,57.78 11.94,61.5 14.82,64.86 18.18,67.86 21.9,70.5 23.94,71.58 
	25.98,72.54 28.14,73.379 30.42,74.1 32.7,74.7 35.1,75.06 37.62,75.419 "/>
<polygon fill="none" stroke="#007CE3" stroke-width="0.12" stroke-linecap="round" stroke-linejoin="round" stroke-miterlimit="10" points="
	42.66,75.419 42.66,75.3 37.62,75.3 35.1,75.06 32.7,74.58 30.42,74.1 28.26,73.379 26.1,72.54 23.94,71.58 22.02,70.379 
	18.3,67.86 14.94,64.86 12.06,61.379 9.54,57.78 7.62,53.7 6.06,49.5 5.22,45.18 4.98,42.9 4.86,40.62 4.86,38.339 4.98,36.06 
	5.34,33.78 5.94,31.5 6.54,29.22 7.38,26.94 8.34,24.66 9.54,22.5 10.86,20.339 12.3,18.3 13.86,16.5 15.54,14.82 19.14,11.7 
	22.86,9.3 24.9,8.22 27.06,7.26 31.26,5.94 35.7,5.1 37.86,4.98 40.14,4.86 42.3,4.98 44.58,5.1 48.9,5.94 53.22,7.26 55.26,8.22 
	57.3,9.3 61.14,11.7 64.621,14.82 66.3,16.5 67.86,18.3 69.3,20.339 70.621,22.5 71.82,24.66 72.781,26.94 73.621,29.22 
	74.339,31.5 74.82,33.78 75.18,36.06 75.3,38.339 75.419,40.62 75.3,42.9 74.94,45.18 74.1,49.5 72.541,53.7 70.621,57.78 
	68.1,61.379 65.22,64.86 61.86,67.86 58.26,70.379 56.22,71.58 54.18,72.54 52.02,73.379 49.74,74.1 47.46,74.58 45.06,75.06 
	42.66,75.3 37.62,75.3 37.62,75.419 42.66,75.419 45.06,75.06 47.46,74.7 49.74,74.1 52.02,73.379 54.18,72.54 56.22,71.58 
	58.26,70.5 61.98,67.86 65.339,64.86 68.22,61.5 70.621,57.78 72.66,53.82 74.22,49.62 75.06,45.18 75.419,42.9 75.419,38.339 
	75.3,36.06 74.94,33.78 74.339,31.5 73.74,29.22 72.9,26.94 71.82,24.66 70.621,22.379 69.3,20.339 67.86,18.3 66.3,16.379 
	64.74,14.7 61.14,11.7 57.3,9.18 55.26,8.22 53.22,7.26 48.9,5.82 44.58,5.1 42.3,4.86 40.14,4.74 37.86,4.86 35.7,5.1 31.26,5.82 
	26.94,7.26 24.9,8.22 22.86,9.18 19.02,11.7 15.54,14.7 13.86,16.379 12.3,18.3 10.86,20.339 9.54,22.379 8.34,24.66 7.26,26.94 
	6.42,29.22 5.82,31.5 5.34,33.78 4.98,36.06 4.74,38.339 4.74,40.62 4.86,42.9 5.1,45.18 6.06,49.62 7.5,53.82 9.54,57.78 
	11.94,61.5 14.82,64.86 18.18,67.86 21.9,70.5 23.94,71.58 25.98,72.54 28.14,73.379 30.42,74.1 32.7,74.7 35.1,75.06 37.62,75.419 
	"/>
<polyline fill-rule="evenodd" clip-rule="evenodd" fill="#FFFFFF" points="40.26,28.14 29.82,28.14 29.7,12.06 9.66,33.06 
	29.82,53.22 29.7,38.339 40.26,38.22 41.46,38.339 42.66,38.7 43.74,39.3 44.58,40.02 45.419,40.98 46.02,42.06 46.38,43.26 
	46.5,44.459 46.5,67.98 56.701,67.98 56.58,44.58 56.58,42.9 56.22,41.22 55.86,39.66 55.38,38.1 54.66,36.66 53.82,35.339 
	51.781,32.94 50.701,31.86 49.38,30.9 48.06,30.06 46.621,29.459 45.06,28.86 43.5,28.5 41.94,28.14 40.26,28.14 "/>
<polygon fill="none" stroke="#FFFFFF" stroke-width="0.12" stroke-linecap="round" stroke-linejoin="round" stroke-miterlimit="10" points="
	40.26,28.14 29.82,28.14 29.7,12.06 9.66,33.06 29.82,53.22 29.7,38.339 40.26,38.22 41.46,38.339 42.66,38.7 43.74,39.3 
	44.58,40.02 45.419,40.98 46.02,42.06 46.38,43.26 46.5,44.459 46.5,67.98 56.701,67.98 56.58,44.58 56.58,42.9 56.22,41.22 
	55.86,39.66 55.38,38.1 54.66,36.66 53.82,35.339 51.781,32.94 50.701,31.86 49.38,30.9 48.06,30.06 46.621,29.459 45.06,28.86 
	43.5,28.5 41.94,28.14 "/>
</svg>
