<?xml version="1.0" encoding="UTF-8" standalone="no"?>
<!-- Created with Inkscape (http://www.inkscape.org/) -->

<svg
   xmlns:dc="http://purl.org/dc/elements/1.1/"
   xmlns:cc="http://creativecommons.org/ns#"
   xmlns:rdf="http://www.w3.org/1999/02/22-rdf-syntax-ns#"
   xmlns:svg="http://www.w3.org/2000/svg"
   xmlns="http://www.w3.org/2000/svg"
   xmlns:sodipodi="http://sodipodi.sourceforge.net/DTD/sodipodi-0.dtd"
   xmlns:inkscape="http://www.inkscape.org/namespaces/inkscape"
   width="79.429085"
   height="79.324501"
   id="svg4368"
   version="1.1"
   inkscape:version="0.47 r22583"
   sodipodi:docname="Belgian road sign C6.svg">
  <defs
     id="defs4370">
    <inkscape:perspective
       sodipodi:type="inkscape:persp3d"
       inkscape:vp_x="0 : 526.18109 : 1"
       inkscape:vp_y="0 : 1000 : 0"
       inkscape:vp_z="744.09448 : 526.18109 : 1"
       inkscape:persp3d-origin="372.04724 : 350.78739 : 1"
       id="perspective4376" />
    <inkscape:perspective
       id="perspective4471"
       inkscape:persp3d-origin="39.7145 : 26.441666 : 1"
       inkscape:vp_z="79.429001 : 39.662498 : 1"
       inkscape:vp_y="0 : 1000 : 0"
       inkscape:vp_x="0 : 39.662498 : 1"
       sodipodi:type="inkscape:persp3d" />
    <inkscape:perspective
       id="perspective4525"
       inkscape:persp3d-origin="0.5 : 0.33333333 : 1"
       inkscape:vp_z="1 : 0.5 : 1"
       inkscape:vp_y="0 : 1000 : 0"
       inkscape:vp_x="0 : 0.5 : 1"
       sodipodi:type="inkscape:persp3d" />
    <clipPath
       clipPathUnits="userSpaceOnUse"
       id="clipPath2854">
      <path
         d="m 730,6134.67 711,0 0,-723 -356,0 -355,0 0,723 z"
         clip-rule="evenodd"
         id="path2856" />
    </clipPath>
    <inkscape:perspective
       id="perspective6373"
       inkscape:persp3d-origin="0.5 : 0.33333333 : 1"
       inkscape:vp_z="1 : 0.5 : 1"
       inkscape:vp_y="0 : 1000 : 0"
       inkscape:vp_x="0 : 0.5 : 1"
       sodipodi:type="inkscape:persp3d" />
    <inkscape:perspective
       id="perspective7458"
       inkscape:persp3d-origin="0.5 : 0.33333333 : 1"
       inkscape:vp_z="1 : 0.5 : 1"
       inkscape:vp_y="0 : 1000 : 0"
       inkscape:vp_x="0 : 0.5 : 1"
       sodipodi:type="inkscape:persp3d" />
    <inkscape:perspective
       id="perspective7502"
       inkscape:persp3d-origin="39.429501 : 26.246999 : 1"
       inkscape:vp_z="78.859001 : 39.370499 : 1"
       inkscape:vp_y="0 : 1000 : 0"
       inkscape:vp_x="0 : 39.370499 : 1"
       sodipodi:type="inkscape:persp3d" />
    <inkscape:perspective
       id="perspective7528"
       inkscape:persp3d-origin="300 : 200 : 1"
       inkscape:vp_z="600 : 300 : 1"
       inkscape:vp_y="0 : 1000 : 0"
       inkscape:vp_x="0 : 300 : 1"
       sodipodi:type="inkscape:persp3d" />
  </defs>
  <sodipodi:namedview
     id="base"
     pagecolor="#ffffff"
     bordercolor="#666666"
     borderopacity="1.0"
     inkscape:pageopacity="0.0"
     inkscape:pageshadow="2"
     inkscape:zoom="2.8284271"
     inkscape:cx="-2.4336245"
     inkscape:cy="17.94798"
     inkscape:document-units="px"
     inkscape:current-layer="layer1"
     showgrid="false"
     inkscape:window-width="1600"
     inkscape:window-height="838"
     inkscape:window-x="-8"
     inkscape:window-y="-8"
     inkscape:window-maximized="1" />
  <metadata
     id="metadata4373">
    <rdf:RDF>
      <cc:Work
         rdf:about="">
        <dc:format>image/svg+xml</dc:format>
        <dc:type
           rdf:resource="http://purl.org/dc/dcmitype/StillImage" />
        <dc:title></dc:title>
      </cc:Work>
    </rdf:RDF>
  </metadata>
  <g
     inkscape:label="Livello 1"
     inkscape:groupmode="layer"
     id="layer1"
     transform="translate(-66.827428,-429.71186)">
<path
   id="path4379"
   d="m 106.53781,429.71186 c 30.525,0 49.616,33.043 34.343,59.49 -15.252,26.446 -53.414001,26.446 -68.687001,0 -15.251,-26.447 3.819,-59.49 34.344001,-59.49 z"
   clip-rule="evenodd"
   style="fill:#ed1c24;fill-rule:evenodd"
   inkscape:export-filename="C:\Users\Studio2\Pictures\Mappe\Irlanda\Simboli\belgio.png"
   inkscape:export-xdpi="150"
   inkscape:export-ydpi="150" />

<path
   id="path4381"
   d="m 106.53781,429.71186 c 30.525,0 49.616,33.043 34.343,59.49 -15.252,26.446 -53.414001,26.446 -68.687001,0 -15.251,-26.447 3.819,-59.49 34.344001,-59.49 z"
   stroke-miterlimit="3.863"
   style="fill:none;stroke:#ed1c24;stroke-width:0;stroke-miterlimit:3.86299992"
   inkscape:export-filename="C:\Users\Studio2\Pictures\Mappe\Irlanda\Simboli\belgio.png"
   inkscape:export-xdpi="150"
   inkscape:export-ydpi="150" />

<path
   id="path4383"
   d="m 106.51781,498.01786 c -22.049001,0 -35.842001,-23.868 -24.808001,-42.979 11.035,-19.11 38.601001,-19.11 49.636001,0 11.034,19.111 -2.759,42.979 -24.828,42.979 z"
   clip-rule="evenodd"
   style="fill:#ffffff;fill-rule:evenodd"
   inkscape:export-filename="C:\Users\Studio2\Pictures\Mappe\Irlanda\Simboli\belgio.png"
   inkscape:export-xdpi="150"
   inkscape:export-ydpi="150" />

<path
   id="path4385"
   d="m 106.51781,498.01786 c -22.049001,0 -35.842001,-23.868 -24.808001,-42.979 11.035,-19.11 38.601001,-19.11 49.636001,0 11.034,19.111 -2.759,42.979 -24.828,42.979 z"
   stroke-miterlimit="3.863"
   style="fill:none;stroke:#ed1c24;stroke-width:0;stroke-miterlimit:3.86299992"
   inkscape:export-filename="C:\Users\Studio2\Pictures\Mappe\Irlanda\Simboli\belgio.png"
   inkscape:export-xdpi="150"
   inkscape:export-ydpi="150" />



















































<g
   transform="matrix(0.45632017,0,0,0.45632017,134.03867,423.67773)"
   id="g1882" />
<g
   transform="matrix(0.45632017,0,0,0.45632017,180.33813,419.41916)"
   id="g2461" />
<g
   id="g7545"
   transform="translate(0,-0.93933983)">
  <path
     id="rect3607"
     style="fill:#000000;fill-opacity:1;stroke:none"
     d="m 100.45082,452.79734 0,0.86288 c 5.1e-4,0.008 5.1e-4,0.0166 0,0.025 l 0,1.08208 0,6.74493 11.93649,0 c 0.12776,0 0.24455,0.11516 0.24455,0.24416 0,0.12901 -0.11679,0.24416 -0.24455,0.24416 l -12.1783,0 c -0.1266,0 -0.241803,-0.11632 -0.241803,-0.24416 l 0,-6.98909 -4.303067,0 c -0.630067,0 -0.988217,0.36799 -1.195302,0.81294 l -1.220027,2.62196 c -0.46251,0.0861 -1.009894,0.48821 -1.121106,1.25132 l -0.500102,3.43212 c -0.03549,0.24325 -0.17561,0.37133 -0.299515,0.43561 l 0,1.28184 1.733876,0 c -0.0028,-0.0586 -0.0057,-0.11546 -0.0057,-0.1748 0,-1.83881 1.476284,-3.32946 3.297369,-3.32946 1.821091,0 3.297375,1.49065 3.297375,3.32946 0,0.0999 0.109685,0.1748 0.200588,0.1748 l 12.400834,0 c 0.18746,0 0.35988,-0.12564 0.36547,-0.29133 0.0601,-1.78547 1.51172,-3.21293 3.29462,-3.21293 1.75654,0 3.1923,1.3868 3.29188,3.13524 0.0117,0.20573 0.11557,0.36902 0.3737,0.36902 l 0.35721,0 c 0,-0.66152 0.54308,-0.80912 1.03318,-0.99329 0.41524,-0.15603 0.86556,-0.29327 0.86556,-0.54658 l 0,-1.06266 -2.43731,0 c -0.13355,0 -0.24181,-0.10932 -0.24181,-0.24416 0,-0.13485 0.10826,-0.24416 0.24181,-0.24416 l 2.68461,0 0,-8.71487 -21.63075,0 z m -5.534086,3.12969 0.236308,0 c 0.103794,0 0.230602,0.0924 0.189605,0.18867 l -0.807862,1.89224 c -0.04099,0.0963 -0.08306,0.18867 -0.186847,0.18867 l -0.379198,0 c -0.103794,0 -0.179194,-0.0927 -0.137392,-0.18867 l 0.824343,-1.89224 c 0.0418,-0.0959 0.157249,-0.18867 0.261043,-0.18867 z m 1.412371,0 2.110316,0 c 0.103795,0 0.186854,0.0839 0.186854,0.18867 l 0,1.89224 c 0,0.1048 -0.08306,0.18867 -0.186854,0.18867 l -2.99786,0 c -0.103794,0 -0.176493,-0.0916 -0.137391,-0.18867 l 0.76114,-1.89224 c 0.03908,-0.0971 0.160001,-0.18867 0.263795,-0.18867 z m 0.02474,5.59903 c -1.586552,0 -2.871463,1.29742 -2.871463,2.89941 0,1.60199 1.284911,2.90218 2.871463,2.90218 1.586553,0 2.874209,-1.30019 2.874209,-2.90218 0,-1.60199 -1.287656,-2.89941 -2.874209,-2.89941 z m 19.558945,0 c -1.58655,0 -2.87146,1.29742 -2.87146,2.89941 0,1.60199 1.28491,2.90218 2.87146,2.90218 1.58656,0 2.87421,-1.30019 2.87421,-2.90218 0,-1.60199 -1.28765,-2.89941 -2.87421,-2.89941 z m -19.558945,1.8534 c 0.572536,0 1.035932,0.4679 1.035932,1.04601 0,0.57811 -0.463389,1.04879 -1.035932,1.04879 -0.572536,0 -1.035925,-0.47068 -1.035925,-1.04879 0,-0.57811 0.463383,-1.04601 1.035925,-1.04601 z m 19.558945,0 c 0.57254,0 1.03593,0.4679 1.03593,1.04601 0,0.57811 -0.46338,1.04879 -1.03593,1.04879 -0.57254,0 -1.03593,-0.47068 -1.03593,-1.04879 0,-0.57811 0.46339,-1.04601 1.03593,-1.04601 z" />
  <g
     transform="matrix(0.9577583,0,0,1.0120536,43.292785,-71.900193)"
     id="g7541">
    <rect
       style="fill:#fdcd05;fill-opacity:1;stroke:#000000;stroke-width:0.6094268;stroke-miterlimit:4;stroke-opacity:1;stroke-dasharray:none"
       id="rect7537"
       width="24.241291"
       height="14.065934"
       x="54.55714"
       y="538.96387" />
    <path
       style="fill:none;stroke:#000000;stroke-width:0.6094268;stroke-linecap:butt;stroke-linejoin:miter;stroke-miterlimit:4;stroke-opacity:1;stroke-dasharray:none"
       d="m 54.28912,545.96036 24.509316,-0.0132"
       id="path7539"
       sodipodi:nodetypes="cc" />
  </g>
</g>
</g>
</svg>
