<?xml version="1.0" encoding="utf-8"?>
<!-- Generator: Adobe Illustrator 14.0.0, SVG Export Plug-In . SVG Version: 6.00 Build 43363)  -->
<!DOCTYPE svg PUBLIC "-//W3C//DTD SVG 1.1//EN" "http://www.w3.org/Graphics/SVG/1.1/DTD/svg11.dtd">
<svg version="1.1" id="Calque_1" xmlns="http://www.w3.org/2000/svg" xmlns:xlink="http://www.w3.org/1999/xlink" x="0px" y="0px"
	 width="68.606px" height="102.339px" viewBox="0 0 68.606 102.339" enable-background="new 0 0 68.606 102.339"
	 xml:space="preserve">
<path fill="#0071B3" d="M8.046,0h52.603c4.383,0,7.957,3.562,7.957,7.932v86.564c0,4.341-3.574,7.843-7.957,7.843H7.986
	C3.572,102.339,0,98.776,0,94.437L0.03,7.932C0.03,3.562,3.632,0,8.046,0z"/>
<path fill="none" stroke="#0071B3" stroke-width="0" stroke-miterlimit="3.863" d="M8.046,0h52.603c4.383,0,7.957,3.562,7.957,7.932
	v86.564c0,4.341-3.574,7.843-7.957,7.843H7.986C3.572,102.339,0,98.776,0,94.437L0.03,7.932C0.03,3.562,3.632,0,8.046,0z"/>
<path fill-rule="evenodd" clip-rule="evenodd" fill="#FFFFFF" d="M58.277,15.445c-3.963,0-6.425-4.251-4.444-7.663
	c1.982-3.382,6.906-3.382,8.857,0C64.673,11.194,62.21,15.445,58.277,15.445z"/>
<path fill="none" stroke="#FFFFFF" stroke-width="0" stroke-miterlimit="3.863" d="M58.277,15.445c-3.963,0-6.425-4.251-4.444-7.663
	c1.982-3.382,6.906-3.382,8.857,0C64.673,11.194,62.21,15.445,58.277,15.445z"/>
<path fill="#FFFFFF" d="M65.813,94.616c0,2.844-2.313,5.148-5.104,5.148H7.926c-2.822,0-5.104-2.305-5.104-5.148V8.201
	c0-2.813,2.281-5.147,5.104-5.147c16.543,0,36.21,0,52.783,0c2.792,0,5.104,2.304,5.104,5.178V94.616z"/>
<path fill="none" stroke="#FFFFFF" stroke-width="0" stroke-miterlimit="3.863" d="M65.813,94.616c0,2.844-2.313,5.148-5.104,5.148
	H7.926c-2.822,0-5.104-2.305-5.104-5.148V8.201c0-2.813,2.281-5.147,5.104-5.147c16.543,0,36.21,0,52.783,0
	c2.792,0,5.104,2.304,5.104,5.178V94.616z"/>
<path fill="#0071B3" d="M63.531,94.646c0,1.438-1.2,2.574-2.612,2.574H7.625c-1.411,0-2.552-1.137-2.552-2.574V7.304
	c0-1.407,1.141-2.575,2.552-2.575c15.343,0,38.011,0,53.354,0c1.411,0,2.552,1.139,2.552,2.575V94.646z"/>
<path fill="none" stroke="#0071B3" stroke-width="0" stroke-miterlimit="3.863" d="M63.531,94.646c0,1.438-1.2,2.574-2.612,2.574
	H7.625c-1.411,0-2.552-1.137-2.552-2.574V7.304c0-1.407,1.141-2.575,2.552-2.575c15.343,0,38.011,0,53.354,0
	c1.411,0,2.552,1.139,2.552,2.575V94.646z"/>
<polygon fill="#FFFFFF" points="24.02,72.496 24.02,77.764 10.057,69.293 24.02,60.792 24.02,66.51 58.758,66.51 58.788,72.437 
	24.02,72.437 "/>
<polygon fill="none" stroke="#FFFFFF" stroke-width="0" stroke-miterlimit="3.863" points="24.02,72.496 24.02,77.764 
	10.057,69.293 24.02,60.792 24.02,66.51 58.759,66.51 58.788,72.437 24.02,72.437 "/>
<path fill="#FFFFFF" d="M30.444,13.17l1.982,0.239l0.179,0.539l-2.672,1.377l-0.479,6.167l-4.023,5.298l1.651,1.377l4.684-4.76
	l-0.09,5.417h1.021l-1.291,5.328l0.631,0.629l1.021,10.565l1.201-0.118c-0.12,0.269-0.271,0.478-0.271,0.747
	c-0.66,0.958-1.74,1.707-2.941,1.287l-0.09,0.629h3.031l0.541-0.629h0.36l0.091,0.539h0.931c0.12-0.209,0.21-0.509,0.451-0.629
	c0.06-0.239,0.119-0.478,0.09-0.747c-0.24-0.45-0.631-0.869-0.722-1.377l0.722-0.09l-0.451-5.957l2.942,3.203l0.571-0.449l0.18,0.18
	l-0.841,1.557l-1.562,0.27v0.388h2.492l0.541-1.196l0.57-0.27l0.18,0.18l0.991-1.018l-0.091-0.449l-1.17-1.018l0.449-0.27
	l-5.164-6.046l2.582-5.419h0.752l-1.021-8.919l1.2,0.838l0.991,6.137l2.402-0.18l-0.931-7.244l-4.233-5.059l-2.463-0.27l-0.57-0.509
	l-0.029-0.958l1.141-2.663l1.201-0.181L36.93,9.188l-1.11-0.18V7.154l-3.963-0.629l-0.72,1.557l-1.682,0.629l-0.09,0.208
	l1.201,0.359v0.72l-0.541,0.927l0.36,0.359l-0.18,0.39l0.24,0.239l-0.06,0.509L30.444,13.17z"/>
<path fill="none" stroke="#FFFFFF" stroke-width="0" stroke-miterlimit="3.863" d="M30.444,13.17l1.982,0.239l0.179,0.539
	l-2.672,1.377l-0.479,6.167l-4.023,5.298l1.651,1.377l4.684-4.76l-0.09,5.417h1.021l-1.291,5.328l0.631,0.629l1.021,10.565
	l1.201-0.118c-0.12,0.269-0.271,0.478-0.271,0.747c-0.66,0.958-1.74,1.707-2.941,1.287l-0.09,0.629h3.031l0.541-0.629h0.36
	l0.091,0.539h0.931c0.12-0.209,0.21-0.509,0.451-0.629c0.06-0.239,0.119-0.478,0.09-0.747c-0.24-0.45-0.631-0.869-0.722-1.377
	l0.722-0.09l-0.451-5.957l2.942,3.203l0.571-0.449l0.18,0.18l-0.841,1.557l-1.562,0.27v0.388h2.492l0.541-1.196l0.57-0.27l0.18,0.18
	l0.991-1.018l-0.091-0.449l-1.17-1.018l0.449-0.27l-5.164-6.046l2.582-5.419h0.752l-1.021-8.919l1.2,0.838l0.991,6.137l2.402-0.18
	l-0.931-7.244l-4.233-5.059l-2.463-0.27l-0.57-0.509l-0.029-0.958l1.141-2.664l1.201-0.18L36.93,9.188l-1.11-0.18V7.154
	l-3.963-0.629l-0.72,1.557l-1.682,0.629l-0.09,0.208l1.201,0.359v0.72l-0.541,0.927l0.36,0.359l-0.18,0.39l0.24,0.239l-0.06,0.509
	L30.444,13.17z"/>
<polygon fill="#FFFFFF" points="13.21,58.128 27.923,58.128 27.923,54.687 34.498,54.687 34.498,51.424 41.043,51.424 
	41.043,47.982 47.438,47.982 47.438,44.449 55.605,44.449 55.605,40.888 44.256,40.888 44.256,44.27 37.501,44.27 37.501,48.012 
	30.985,48.012 30.985,51.334 24.589,51.334 24.589,54.746 13.15,54.746 13.15,58.218 "/>
<polygon fill="none" stroke="#FFFFFF" stroke-width="0" stroke-miterlimit="3.863" points="13.21,58.128 27.923,58.128 
	27.923,54.687 34.498,54.687 34.498,51.424 41.043,51.424 41.043,47.982 47.438,47.982 47.438,44.449 55.605,44.449 55.605,40.888 
	44.256,40.888 44.256,44.27 37.501,44.27 37.501,48.012 30.985,48.012 30.985,51.334 24.589,51.334 24.589,54.746 13.15,54.746 
	13.15,58.218 "/>
<path fill-rule="evenodd" clip-rule="evenodd" fill="#FFFFFF" d="M44.256,84.23v8.021h2.013v-4.521c0-1.975,1.2-2.154,1.74-1.855
	c0.391,0.179,0.601,0.599,0.601,1.438v4.938h2.042v-4.521c0-1.975,1.23-2.154,1.771-1.855c0.391,0.179,0.69,0.599,0.69,1.438v4.938
	h2.041v-5.628c0-2.903-3.302-3.441-4.772-1.437c-0.902-1.706-3.334-1.557-4.264,0.06V84.23H44.256z"/>
<path fill="none" stroke="#FFFFFF" stroke-width="0.18" stroke-miterlimit="3.863" d="M44.256,84.229v8.022h2.013v-4.521
	c0-1.975,1.2-2.154,1.74-1.855c0.391,0.179,0.601,0.599,0.601,1.438v4.938h2.042v-4.521c0-1.975,1.23-2.154,1.771-1.855
	c0.391,0.179,0.69,0.599,0.69,1.438v4.938h2.041v-5.628c0-2.903-3.302-3.441-4.772-1.437c-0.902-1.706-3.334-1.557-4.264,0.06
	v-1.018H44.256z"/>
<path fill="#FFFFFF" d="M27.202,88.391c0,2.154-1.711,3.861-3.843,3.861c-2.191,0-3.903-1.707-3.903-3.861v-4.16
	c0-2.156,1.712-3.861,3.903-3.861c2.132,0,3.843,1.705,3.843,3.861V88.391z"/>
<path fill="none" stroke="#FFFFFF" stroke-width="0.18" stroke-miterlimit="3.863" d="M27.202,88.391
	c0,2.154-1.711,3.861-3.843,3.861c-2.191,0-3.903-1.707-3.903-3.861v-4.161c0-2.155,1.712-3.86,3.903-3.86
	c2.132,0,3.843,1.705,3.843,3.86V88.391z"/>
<path fill="#0071B3" d="M21.437,88.511V84.05c0-1.047,0.841-1.916,1.922-1.916c1.05,0,1.862,0.869,1.862,1.916v4.461
	c0,1.017-0.812,1.854-1.862,1.854C22.278,90.365,21.437,89.527,21.437,88.511z"/>
<path fill="none" stroke="#0071B3" stroke-width="0.18" stroke-miterlimit="3.863" d="M21.437,88.511V84.05
	c0-1.047,0.841-1.916,1.922-1.916c1.05,0,1.862,0.869,1.862,1.916v4.461c0,1.017-0.812,1.854-1.862,1.854
	C22.278,90.365,21.437,89.527,21.437,88.511z"/>
<polygon fill="#FFFFFF" points="16.483,92.252 16.483,80.369 14.561,80.369 13.33,82.403 13.33,83.601 14.381,83.601 14.381,92.252 
	"/>
<polygon fill="none" stroke="#FFFFFF" stroke-width="0.18" stroke-miterlimit="3.863" points="16.483,92.252 16.483,80.369 
	14.561,80.369 13.33,82.403 13.33,83.601 14.381,83.601 14.381,92.252 "/>
<path fill="#FFFFFF" d="M37.86,88.391c0,2.154-1.711,3.861-3.843,3.861c-2.191,0-3.903-1.707-3.903-3.861v-4.16
	c0-2.156,1.711-3.861,3.903-3.861c2.132,0,3.843,1.705,3.843,3.861V88.391z"/>
<path fill="none" stroke="#FFFFFF" stroke-width="0.18" stroke-miterlimit="3.863" d="M37.86,88.391
	c0,2.154-1.711,3.861-3.843,3.861c-2.191,0-3.903-1.707-3.903-3.861v-4.161c0-2.155,1.711-3.86,3.903-3.86
	c2.132,0,3.843,1.705,3.843,3.86V88.391z"/>
<path fill="#0071B3" d="M32.096,88.511V84.05c0-1.047,0.84-1.916,1.921-1.916c1.052,0,1.862,0.869,1.862,1.916v4.461
	c0,1.017-0.81,1.854-1.862,1.854C32.937,90.365,32.096,89.527,32.096,88.511z"/>
<path fill="none" stroke="#0071B3" stroke-width="0.18" stroke-miterlimit="3.863" d="M32.096,88.511V84.05
	c0-1.047,0.84-1.916,1.921-1.916c1.052,0,1.862,0.869,1.862,1.916v4.461c0,1.017-0.81,1.854-1.862,1.854
	C32.937,90.365,32.096,89.527,32.096,88.511z"/>
</svg>
