<?xml version="1.0" encoding="utf-8"?>
<!-- Generator: Adobe Illustrator 14.0.0, SVG Export Plug-In . SVG Version: 6.00 Build 43363)  -->
<!DOCTYPE svg PUBLIC "-//W3C//DTD SVG 1.1//EN" "http://www.w3.org/Graphics/SVG/1.1/DTD/svg11.dtd">
<svg version="1.1" id="Calque_1" xmlns="http://www.w3.org/2000/svg" xmlns:xlink="http://www.w3.org/1999/xlink" x="0px" y="0px"
	 width="79.485px" height="79.581px" viewBox="0 0 79.485 79.581" enable-background="new 0 0 79.485 79.581" xml:space="preserve">
<path fill-rule="evenodd" clip-rule="evenodd" fill="#0071B3" d="M79.408,39.797c0,30.524-33.06,49.595-59.496,34.333
	c-26.438-15.264-26.453-53.419,0-68.683C46.349-9.814,79.408,9.272,79.408,39.797z"/>
<path fill="none" stroke="#0071B3" stroke-width="0.155" stroke-miterlimit="3.863" d="M79.408,39.797
	c0,30.524-33.06,49.595-59.496,34.333c-26.438-15.264-26.453-53.419,0-68.683C46.349-9.814,79.408,9.272,79.408,39.797z"/>
<path fill-rule="evenodd" clip-rule="evenodd" fill="#FFFFFF" d="M77.418,39.797c0,29.002-31.411,47.124-56.527,32.623
	c-25.117-14.485-25.117-50.746,0-65.247C46.007-7.328,77.418,10.795,77.418,39.797z"/>
<path fill="none" stroke="#FFFFFF" stroke-width="0.155" stroke-miterlimit="3.863" d="M77.418,39.797
	c0,29.002-31.411,47.124-56.527,32.623c-25.117-14.485-25.117-50.746,0-65.247C46.007-7.328,77.418,10.795,77.418,39.797z"/>
<path fill-rule="evenodd" clip-rule="evenodd" fill="#0071B3" d="M74.994,39.797c0,27.137-29.392,44.093-52.892,30.524
	s-23.5-47.481,0-61.05S74.994,12.661,74.994,39.797z"/>
<path fill="none" stroke="#0071B3" stroke-width="0.155" stroke-miterlimit="3.863" d="M74.994,39.797
	c0,27.137-29.392,44.093-52.892,30.524s-23.5-47.481,0-61.05S74.994,12.661,74.994,39.797z"/>
<polygon fill="#FFFFFF" points="71.388,32.866 36.076,32.866 36.076,11.62 7.929,39.812 36.076,68.006 36.076,46.853 71.434,46.853 
	71.434,32.756 "/>
<polygon fill="none" stroke="#FFFFFF" stroke-width="0" stroke-miterlimit="3.863" points="71.388,32.866 36.076,32.866 
	36.076,11.62 7.929,39.812 36.076,68.006 36.076,46.853 71.434,46.853 71.434,32.756 "/>
</svg>
