<?xml version="1.0" encoding="UTF-8" standalone="no"?>
<!-- Created with Inkscape (http://www.inkscape.org/) -->

<svg
   xmlns:dc="http://purl.org/dc/elements/1.1/"
   xmlns:cc="http://creativecommons.org/ns#"
   xmlns:rdf="http://www.w3.org/1999/02/22-rdf-syntax-ns#"
   xmlns:svg="http://www.w3.org/2000/svg"
   xmlns="http://www.w3.org/2000/svg"
   xmlns:sodipodi="http://sodipodi.sourceforge.net/DTD/sodipodi-0.dtd"
   xmlns:inkscape="http://www.inkscape.org/namespaces/inkscape"
   width="79.550049"
   height="79.526695"
   id="svg4368"
   version="1.1"
   inkscape:version="0.47 r22583"
   sodipodi:docname="Belgian road sign C24.svg">
  <defs
     id="defs4370">
    <inkscape:perspective
       sodipodi:type="inkscape:persp3d"
       inkscape:vp_x="0 : 526.18109 : 1"
       inkscape:vp_y="0 : 1000 : 0"
       inkscape:vp_z="744.09448 : 526.18109 : 1"
       inkscape:persp3d-origin="372.04724 : 350.78739 : 1"
       id="perspective4376" />
    <inkscape:perspective
       id="perspective4471"
       inkscape:persp3d-origin="39.7145 : 26.441666 : 1"
       inkscape:vp_z="79.429001 : 39.662498 : 1"
       inkscape:vp_y="0 : 1000 : 0"
       inkscape:vp_x="0 : 39.662498 : 1"
       sodipodi:type="inkscape:persp3d" />
    <inkscape:perspective
       id="perspective4525"
       inkscape:persp3d-origin="0.5 : 0.33333333 : 1"
       inkscape:vp_z="1 : 0.5 : 1"
       inkscape:vp_y="0 : 1000 : 0"
       inkscape:vp_x="0 : 0.5 : 1"
       sodipodi:type="inkscape:persp3d" />
    <clipPath
       clipPathUnits="userSpaceOnUse"
       id="clipPath2854">
      <path
         d="m 730,6134.67 711,0 0,-723 -356,0 -355,0 0,723 z"
         clip-rule="evenodd"
         id="path2856" />
    </clipPath>
    <inkscape:perspective
       id="perspective6373"
       inkscape:persp3d-origin="0.5 : 0.33333333 : 1"
       inkscape:vp_z="1 : 0.5 : 1"
       inkscape:vp_y="0 : 1000 : 0"
       inkscape:vp_x="0 : 0.5 : 1"
       sodipodi:type="inkscape:persp3d" />
    <inkscape:perspective
       id="perspective7458"
       inkscape:persp3d-origin="0.5 : 0.33333333 : 1"
       inkscape:vp_z="1 : 0.5 : 1"
       inkscape:vp_y="0 : 1000 : 0"
       inkscape:vp_x="0 : 0.5 : 1"
       sodipodi:type="inkscape:persp3d" />
    <inkscape:perspective
       id="perspective7502"
       inkscape:persp3d-origin="39.429501 : 26.246999 : 1"
       inkscape:vp_z="78.859001 : 39.370499 : 1"
       inkscape:vp_y="0 : 1000 : 0"
       inkscape:vp_x="0 : 39.370499 : 1"
       sodipodi:type="inkscape:persp3d" />
    <inkscape:perspective
       id="perspective7528"
       inkscape:persp3d-origin="300 : 200 : 1"
       inkscape:vp_z="600 : 300 : 1"
       inkscape:vp_y="0 : 1000 : 0"
       inkscape:vp_x="0 : 300 : 1"
       sodipodi:type="inkscape:persp3d" />
    <inkscape:perspective
       id="perspective7574"
       inkscape:persp3d-origin="39.7425 : 26.527 : 1"
       inkscape:vp_z="79.485001 : 39.790501 : 1"
       inkscape:vp_y="0 : 1000 : 0"
       inkscape:vp_x="0 : 39.790501 : 1"
       sodipodi:type="inkscape:persp3d" />
  </defs>
  <sodipodi:namedview
     id="base"
     pagecolor="#ffffff"
     bordercolor="#666666"
     borderopacity="1.0"
     inkscape:pageopacity="0.0"
     inkscape:pageshadow="2"
     inkscape:zoom="2.8284271"
     inkscape:cx="161.80118"
     inkscape:cy="61.256218"
     inkscape:document-units="px"
     inkscape:current-layer="layer1"
     showgrid="false"
     inkscape:window-width="1600"
     inkscape:window-height="838"
     inkscape:window-x="-8"
     inkscape:window-y="-8"
     inkscape:window-maximized="1" />
  <metadata
     id="metadata4373">
    <rdf:RDF>
      <cc:Work
         rdf:about="">
        <dc:format>image/svg+xml</dc:format>
        <dc:type
           rdf:resource="http://purl.org/dc/dcmitype/StillImage" />
        <dc:title></dc:title>
      </cc:Work>
    </rdf:RDF>
  </metadata>
  <g
     inkscape:label="Livello 1"
     inkscape:groupmode="layer"
     id="layer1"
     transform="translate(97.407376,-472.81791)">






















































<g
   transform="matrix(0.45632017,0,0,0.45632017,134.03867,423.67773)"
   id="g1882" />
<g
   transform="matrix(0.45632017,0,0,0.45632017,180.33813,419.41916)"
   id="g2461" />








<g
   id="g7585"
   transform="matrix(0.71947234,-0.69452109,0.69452109,0.71947234,-372.15694,103.76995)">
  <path
     style="fill:#0071b3;fill-rule:evenodd"
     clip-rule="evenodd"
     d="m -17.958301,512.579 c 0,30.524 -33.06,49.595 -59.496002,34.333 -26.437997,-15.264 -26.452997,-53.419 0,-68.683 26.437002,-15.261 59.496002,3.825 59.496002,34.35 z"
     id="path7552" />
  <path
     style="fill:none;stroke:#0071b3;stroke-width:0.155;stroke-miterlimit:3.86299992"
     stroke-miterlimit="3.863"
     d="m -17.958301,512.579 c 0,30.524 -33.06,49.595 -59.496002,34.333 -26.437997,-15.264 -26.452997,-53.419 0,-68.683 26.437002,-15.261 59.496002,3.825 59.496002,34.35 z"
     id="path7554" />
  <path
     style="fill:#ffffff;fill-rule:evenodd"
     clip-rule="evenodd"
     d="m -19.948301,512.579 c 0,29.002 -31.411,47.124 -56.527002,32.623 -25.116997,-14.485 -25.116997,-50.746 0,-65.247 25.116002,-14.501 56.527002,3.622 56.527002,32.624 z"
     id="path7556" />
  <path
     style="fill:none;stroke:#ffffff;stroke-width:0.155;stroke-miterlimit:3.86299992"
     stroke-miterlimit="3.863"
     d="m -19.948301,512.579 c 0,29.002 -31.411,47.124 -56.527002,32.623 -25.116997,-14.485 -25.116997,-50.746 0,-65.247 25.116002,-14.501 56.527002,3.622 56.527002,32.624 z"
     id="path7558" />
  <path
     style="fill:#0071b3;fill-rule:evenodd"
     clip-rule="evenodd"
     d="m -22.372301,512.579 c 0,27.137 -29.392,44.093 -52.892002,30.524 -23.499999,-13.569 -23.499999,-47.481 0,-61.05 23.500002,-13.569 52.892002,3.39 52.892002,30.526 z"
     id="path7560" />
  <path
     style="fill:none;stroke:#0071b3;stroke-width:0.155;stroke-miterlimit:3.86299992"
     stroke-miterlimit="3.863"
     d="m -22.372301,512.579 c 0,27.137 -29.392,44.093 -52.892002,30.524 -23.499999,-13.569 -23.499999,-47.481 0,-61.05 23.500002,-13.569 52.892002,3.39 52.892002,30.526 z"
     id="path7562" />
  <polygon
     style="fill:#ffffff"
     transform="translate(-97.366302,472.782)"
     points="71.434,32.756 71.388,32.866 36.076,32.866 36.076,11.62 7.929,39.812 36.076,68.006 36.076,46.853 71.434,46.853 "
     id="polygon7564" />
  <polygon
     style="fill:none;stroke:#ffffff;stroke-width:0;stroke-miterlimit:3.86299992"
     transform="translate(-97.366302,472.782)"
     stroke-miterlimit="3.863"
     points="71.434,32.756 71.388,32.866 36.076,32.866 36.076,11.62 7.929,39.812 36.076,68.006 36.076,46.853 71.434,46.853 "
     id="polygon7566" />
</g>

</g>
</svg>
