<?xml version="1.0" encoding="UTF-8" standalone="no"?>
<svg
   xmlns:dc="http://purl.org/dc/elements/1.1/"
   xmlns:cc="http://creativecommons.org/ns#"
   xmlns:rdf="http://www.w3.org/1999/02/22-rdf-syntax-ns#"
   xmlns:svg="http://www.w3.org/2000/svg"
   xmlns="http://www.w3.org/2000/svg"
   xmlns:sodipodi="http://sodipodi.sourceforge.net/DTD/sodipodi-0.dtd"
   xmlns:inkscape="http://www.inkscape.org/namespaces/inkscape"
   width="900.39996"
   height="900.40021"
   viewBox="-50 -30 90.039875 90.040032"
   id="svg2"
   version="1.1"
   inkscape:version="0.48.4 r9939"
   sodipodi:docname="AJAX.svg">
  <metadata
     id="metadata14">
    <rdf:RDF>
      <cc:Work
         rdf:about="">
        <dc:format>image/svg+xml</dc:format>
        <dc:type
           rdf:resource="http://purl.org/dc/dcmitype/StillImage" />
        <dc:title />
      </cc:Work>
    </rdf:RDF>
  </metadata>
  <defs
     id="defs12" />
  <sodipodi:namedview
     pagecolor="#ffffff"
     bordercolor="#666666"
     borderopacity="1"
     objecttolerance="10"
     gridtolerance="10"
     guidetolerance="10"
     inkscape:pageopacity="0"
     inkscape:pageshadow="2"
     inkscape:window-width="1920"
     inkscape:window-height="1057"
     id="namedview10"
     showgrid="false"
     fit-margin-top="0.2"
     fit-margin-left="0.2"
     fit-margin-right="0.2"
     fit-margin-bottom="0.2"
     inkscape:zoom="0.68103018"
     inkscape:cx="497.79186"
     inkscape:cy="381.97924"
     inkscape:window-x="-8"
     inkscape:window-y="-8"
     inkscape:window-maximized="1"
     inkscape:current-layer="svg2"
     showguides="true"
     inkscape:guide-bbox="true"
     inkscape:showpageshadow="true"
     borderlayer="false"
     showborder="true" />
  <path
     inkscape:connector-curvature="0"
     id="path3124-1"
     d="M -4.9800865,60.020032 C 19.872773,60.020032 40.01994,39.872847 40.01994,15.020004 40.01994,-9.832797 19.872773,-29.98 -4.9800835,-29.98 c -24.8527905,0 -44.9999825,20.147203 -44.9999825,45.000004 0,24.852843 20.147192,45.000028 44.9999825,45.000028 z"
     style="fill:#ed1c24;fill-opacity:1;stroke:none"
     sodipodi:nodetypes="sssss" />
  <path
     sodipodi:nodetypes="sssss"
     style="fill:#ffffff;fill-opacity:1;stroke:none"
     d="m -4.9800785,47.53853 c 17.9594845,0 32.5185215,-14.559035 32.5185215,-32.51852 0,-17.959452 -14.559037,-32.518507 -32.5185215,-32.518507 -17.9594395,0 -32.5184855,14.559055 -32.5184855,32.518507 0,17.959485 14.559046,32.51852 32.5184855,32.51852 z"
     id="path3977"
     inkscape:connector-curvature="0" />
  <g
     transform="matrix(0.10000001,0,0,0.10000001,-62.437387,71.749554)"
     id="g3039" />
  <g
     style="fill:#000000;fill-rule:evenodd;stroke:#000000;stroke-width:127.41059113;stroke-miterlimit:4;stroke-opacity:1;stroke-dasharray:none"
     class="com.sun.star.drawing.ClosedBezierShape"
     id="g234"
     transform="matrix(0.0031318,0,0,0.00339574,-44.310798,-46.002341)">
    <g
       id="id37"
       style="fill:#000000;stroke:#000000;stroke-width:127.41059113;stroke-miterlimit:4;stroke-opacity:1;stroke-dasharray:none">
      <path
         d="m 4738,19651 0,-3065 1073,0 c 419,0 730,172 934,516 75,130 122,252 139,365 16,114 25,332 25,653 0,344 -12,575 -35,690 -23,116 -70,228 -138,334 -91,142 -216,263 -375,361 -160,97 -353,146 -580,146 l -1043,0 z m 465,-2625 0,2187 557,0 c 255,0 444,-89 568,-267 50,-77 82,-160 96,-250 13,-88 20,-275 20,-560 0,-275 -8,-465 -23,-569 -14,-106 -52,-201 -114,-284 -128,-172 -310,-257 -547,-257 l -557,0 z"
         id="path237"
         inkscape:connector-curvature="0"
         style="fill:#000000;stroke:#000000;stroke-width:127.41059113;stroke-miterlimit:4;stroke-opacity:1;stroke-dasharray:none" />
    </g>
  </g>
  <g
     style="fill:#000000;fill-rule:evenodd;stroke:#000000;stroke-width:127.41059113;stroke-miterlimit:4;stroke-opacity:1;stroke-dasharray:none"
     class="com.sun.star.drawing.ClosedBezierShape"
     id="g239"
     transform="matrix(0.0031318,0,0,0.00339574,-44.310798,-46.002341)">
    <g
       id="id38"
       style="fill:#000000;stroke:#000000;stroke-width:127.41059113;stroke-miterlimit:4;stroke-opacity:1;stroke-dasharray:none">
      <path
         d="m 7348,18120 c 0,-369 9,-606 30,-714 19,-106 54,-204 104,-294 72,-132 189,-258 352,-376 164,-118 367,-177 607,-177 240,0 442,59 605,177 163,118 282,244 357,376 48,90 83,188 102,294 20,108 30,345 30,714 0,369 -10,606 -30,713 -19,107 -54,205 -102,294 -75,135 -194,260 -357,376 -163,115 -365,173 -605,173 -240,0 -443,-58 -607,-173 -163,-116 -280,-241 -352,-376 -50,-89 -85,-187 -104,-294 -21,-107 -30,-344 -30,-713 z m 465,0 c 0,315 10,520 32,614 22,94 63,179 123,254 46,63 109,115 190,160 79,43 174,66 283,66 110,0 204,-23 284,-66 80,-45 143,-97 189,-160 61,-75 102,-160 123,-254 22,-93 33,-299 33,-614 0,-315 -11,-518 -33,-612 -21,-94 -62,-181 -123,-259 -46,-59 -109,-111 -189,-156 -80,-44 -174,-67 -284,-67 -109,0 -204,23 -283,67 -81,45 -144,97 -190,156 -60,78 -101,165 -123,259 -22,94 -32,297 -32,612 z"
         id="path242"
         inkscape:connector-curvature="0"
         style="fill:#000000;stroke:#000000;stroke-width:127.41059113;stroke-miterlimit:4;stroke-opacity:1;stroke-dasharray:none" />
    </g>
  </g>
  <g
     style="fill:#000000;fill-rule:evenodd;stroke:#000000;stroke-width:127.41059113;stroke-miterlimit:4;stroke-opacity:1;stroke-dasharray:none"
     class="com.sun.star.drawing.ClosedBezierShape"
     id="g244"
     transform="matrix(0.0031318,0,0,0.00339574,-44.310798,-46.002341)">
    <g
       id="id39"
       style="fill:#000000;stroke:#000000;stroke-width:127.41059113;stroke-miterlimit:4;stroke-opacity:1;stroke-dasharray:none">
      <path
         d="m 10024,18613 0,-2027 465,0 0,1975 c 0,212 59,373 180,485 119,112 267,167 444,167 176,0 325,-55 445,-167 120,-112 180,-273 180,-485 l 0,-1975 465,0 0,2027 c 0,320 -107,577 -318,771 -212,195 -469,292 -772,292 -305,0 -562,-97 -773,-292 -211,-194 -316,-451 -316,-771 z"
         id="path247"
         inkscape:connector-curvature="0"
         style="fill:#000000;stroke:#000000;stroke-width:127.41059113;stroke-miterlimit:4;stroke-opacity:1;stroke-dasharray:none" />
    </g>
  </g>
  <g
     style="fill:#000000;fill-rule:evenodd;stroke:#000000;stroke-width:127.41059113;stroke-miterlimit:4;stroke-opacity:1;stroke-dasharray:none"
     class="com.sun.star.drawing.ClosedBezierShape"
     id="g249"
     transform="matrix(0.0031318,0,0,0.00339574,-44.310798,-46.002341)">
    <g
       id="id40"
       style="fill:#000000;stroke:#000000;stroke-width:127.41059113;stroke-miterlimit:4;stroke-opacity:1;stroke-dasharray:none">
      <path
         d="m 12469,19648 1120,-3066 382,0 1119,3066 -488,0 -236,-692 -1162,0 -245,692 -490,0 z m 871,-1102 887,0 c -64,-189 -115,-337 -152,-445 -37,-107 -70,-202 -97,-284 -27,-83 -55,-167 -83,-253 -28,-86 -65,-201 -112,-347 -48,151 -88,272 -117,363 -30,90 -58,177 -85,262 -28,84 -60,178 -95,281 -35,105 -85,245 -146,423 z"
         id="path252"
         inkscape:connector-curvature="0"
         style="fill:#000000;stroke:#000000;stroke-width:127.41059113;stroke-miterlimit:4;stroke-opacity:1;stroke-dasharray:none" />
    </g>
  </g>
  <g
     style="fill:#000000;fill-rule:evenodd;stroke:#000000;stroke-width:127.41059113;stroke-miterlimit:4;stroke-opacity:1;stroke-dasharray:none"
     class="com.sun.star.drawing.PolyPolygonShape"
     id="g254"
     transform="matrix(0.0031318,0,0,0.00339574,-44.310798,-46.002341)">
    <g
       id="id41"
       style="fill:#000000;stroke:#000000;stroke-width:127.41059113;stroke-miterlimit:4;stroke-opacity:1;stroke-dasharray:none">
      <path
         d="m 15475,19651 0,-3065 440,0 1393.99,1135.36 0.01,-1135.36 467,0 0,3065 -467.01,0 0,-1333.56 -1358.99,-1135.36 -10,0 0,2468.92 z"
         id="path257"
         inkscape:connector-curvature="0"
         style="fill:#000000;stroke:#000000;stroke-width:127.41059113;stroke-miterlimit:4;stroke-opacity:1;stroke-dasharray:none"
         sodipodi:nodetypes="ccccccccccccc" />
    </g>
  </g>
  <g
     style="fill:#000000;fill-rule:evenodd;stroke:#000000;stroke-width:127.41059113;stroke-miterlimit:4;stroke-opacity:1;stroke-dasharray:none"
     class="com.sun.star.drawing.PolyPolygonShape"
     id="g259"
     transform="matrix(0.0031318,0,0,0.00339574,-44.310798,-46.002341)">
    <g
       id="id42"
       style="fill:#000000;stroke:#000000;stroke-width:127.41059113;stroke-miterlimit:4;stroke-opacity:1;stroke-dasharray:none">
      <path
         d="m 18419,19651 0,-3065 1960,0 0,440 -1495,0 0,873 1275,0 0,414 -1275,0 0,900 1495,0 0,438 -1960,0 z"
         id="path262"
         inkscape:connector-curvature="0"
         style="fill:#000000;stroke:#000000;stroke-width:127.41059113;stroke-miterlimit:4;stroke-opacity:1;stroke-dasharray:none" />
    </g>
  </g>
  <path
     inkscape:connector-curvature="0"
     clip-rule="evenodd"
     d="m -29.680066,26.620028 m 49.400012,0 h -49.400012 v -2.76 h 49.400012 v 2.76 z"
     id="path31"
     style="fill:#000000;fill-rule:evenodd;stroke:none" />
</svg>
