<?xml version="1.0" encoding="utf-8"?>
<!-- Generator: Adobe Illustrator 14.0.0, SVG Export Plug-In . SVG Version: 6.00 Build 43363)  -->
<!DOCTYPE svg PUBLIC "-//W3C//DTD SVG 1.1//EN" "http://www.w3.org/Graphics/SVG/1.1/DTD/svg11.dtd">
<svg version="1.1" id="Calque_1" xmlns="http://www.w3.org/2000/svg" xmlns:xlink="http://www.w3.org/1999/xlink" x="0px" y="0px"
	 width="93.66px" height="93.441px" viewBox="0 0 93.66 93.441" enable-background="new 0 0 93.66 93.441" xml:space="preserve">
<path fill="#120C0E" d="M11.55,0H82.09C87.885,0,93.66,6.122,93.66,11.945v69.971c0,5.782-5.295,11.525-11.11,11.525H11.79
	C5.995,93.441,0,87.499,0,81.696v-70.07C0,5.803,5.755,0,11.55,0z"/>
<path fill="none" stroke="#120C0E" stroke-width="0" stroke-miterlimit="3.863" d="M11.55,0H82.09
	C87.885,0,93.66,6.122,93.66,11.945v69.971c0,5.782-5.295,11.525-11.11,11.525H11.79C5.995,93.441,0,87.499,0,81.696v-70.07
	C0,5.803,5.755,0,11.55,0z"/>
<path fill="#FFF200" d="M13.049,2.493h67.482c5.416,0,10.132,4.666,10.132,10.13V80.76c0,5.463-4.316,9.69-9.752,9.69H13.049
	c-5.436,0-9.832-4.427-9.832-9.89V12.463C3.217,7,7.613,2.493,13.049,2.493"/>
<path fill="#120C0E" d="M62.627,67.24h3.976c-0.06,0.658,0.079,2.152-0.08,2.152c-1.798,0-38.227,0.141-40.026,0.141l0.1-2.234
	c0.34-0.059,1.759,0.04,2.218,0.04c0.58,0.04,0.42,0.101,1.399-0.856l0.959-0.578c1.739-1.057,1.599-0.738,1.939-2.692l0.02-1.915
	c0-1.395-0.26-2.83,0.16-4.207c0,0.34-1.259,0.34-1.459,0.239c0-1.176,0.18-1.755,0.539-2.911c0.14-0.479,0.999-3.568,0.78-3.888
	c-0.34,0.079-0.58,0.319-0.84,0.518c-0.359,0.359-1.039,0.938-1.059,0.897l-1.678,0.398c-0.2,0.041,0.04-0.02-0.14-0.1
	c-0.36,0.2-0.66,2.573-1.379,2.174c-0.579-0.339-0.46-2.273-0.26-2.852c0.3-0.897,1.479-1.475,2.178-2.014
	c0.38-0.279,2.638-1.975,2.658-1.955l0.72-0.578c1.618-1.196,1.698-2.114,2.697-3.729c0.06-0.08,0.26-1.755-0.3-1.994
	c-0.199-0.08-0.779-0.339-0.979-0.856c-0.14-0.339-0.279-0.658-0.22-1.018l0.1-0.778c0.2-1.595-0.559-3.19,0.7-4.666
	c0.24-0.598,2.258-0.997,2.718-0.618c0.459,0.319,1.019,0.598,1.458,0.917c0.18,0.279,0.58,0.798,0.72,1.276
	c0.12,0.479,0.579,1.775,0.339,1.376l0.52,0.917c-0.1-0.159,0.839,0.459,0.959,0.439c-0.12-0.14,0.899-1.456,2.078-2.134
	c-0.06,0.619-0.359,1.596-0.399,1.775c-0.16,0.578,0.799,2.712,1.319,3.151c0.619,0.518-0.62-0.678-2.518,0.259
	c-0.9,0.459-0.74-1.356-1.379-1.356c-0.999-0.02-1.019,1.117-0.7,1.735c0.36,0.698,0.92,1.316,1.399,1.994
	c0.42,0.558,2.198,4.447,3.038,2.492c0.799-1.854,1.798-3.35,2.837-4.925c0.46-0.618,0.7-1.296,1.1-1.994l0.479-0.817l0.42-0.878
	c0.479-0.877,0.899-1.894,1.599-2.612c0.659-0.698,1.938-1.615,2.098-2.612c0.08-0.579-0.68-0.698-0.899-1.117
	c-0.2-0.379-0.12-0.817-0.2-1.216c-0.06-0.459-0.359-0.658-0.318-1.157c0.039-0.379,0.14-0.738,0.219-1.116l0.141-0.858
	c0.079-0.857,0.039-1.595,0.079-2.373c0.08-3.789,2.818-1.775,4.656-1.316l1.278,0.399c2,0.778,1.859,2.792,0.861,4.367l-0.58,0.837
	c-0.699,1.217-1,3.63,0.539,4.387l0.879,0.559c1.02,0.997,1.799,2.373,2.379,3.669l0.418,0.857c0.221,0.778,0.58,1.496,0.781,2.273
	c0.059,0.299,0.199,1.815,0.598,1.855l1,0.119c0.18,0,0.32,0.04,0.52,0.08l0.46,0.917c0,0,0.3,0.658,0.339,0.718
	c0.08,0.22,0.16,0.419,0.2,0.678c0.06,0.459,0.12,0.937,0.181,1.396c0.119,0.798,0.159,1.835-0.041,2.632
	c-0.3,1.315-3.816,1.276-4.916,1.217l-0.1,0.06c-0.02,0.358,0.04,0.758,0.141,1.097l0.26,0.877c0.479,1.675-0.541,1.955-1.659,2.912
	c-0.539,0.458,0.88,2.672,1.179,3.13l0.48,0.777c0.479,0.779,0.898,1.676,1.559,2.313l0.699,0.698
	c1.039,1.117,1.259,1.835,0.04,2.592C64.325,64.807,62.586,66.542,62.627,67.24z"/>
<path fill="none" stroke="#000000" stroke-width="0.2" stroke-miterlimit="3.863" d="M62.627,67.24h3.976
	c-0.06,0.658,0.079,2.152-0.08,2.152c-1.798,0-38.227,0.141-40.026,0.141l0.1-2.234c0.34-0.059,1.759,0.04,2.218,0.04
	c0.58,0.04,0.42,0.101,1.399-0.856l0.959-0.578c1.739-1.057,1.599-0.738,1.939-2.692l0.02-1.915c0-1.395-0.26-2.83,0.16-4.207
	c0,0.34-1.259,0.34-1.459,0.239c0-1.176,0.18-1.755,0.539-2.911c0.14-0.479,0.999-3.568,0.78-3.888
	c-0.34,0.079-0.58,0.319-0.84,0.518c-0.359,0.359-1.039,0.938-1.059,0.897l-1.678,0.398c-0.2,0.041,0.04-0.02-0.14-0.1
	c-0.36,0.2-0.66,2.573-1.379,2.174c-0.579-0.339-0.46-2.273-0.26-2.852c0.3-0.897,1.479-1.475,2.178-2.014
	c0.38-0.279,2.638-1.975,2.658-1.955l0.72-0.578c1.618-1.196,1.698-2.114,2.697-3.729c0.06-0.08,0.26-1.755-0.3-1.994
	c-0.199-0.08-0.779-0.339-0.979-0.856c-0.14-0.339-0.279-0.658-0.22-1.018l0.1-0.778c0.2-1.595-0.559-3.19,0.7-4.666
	c0.24-0.598,2.258-0.997,2.718-0.618c0.459,0.319,1.019,0.598,1.458,0.917c0.18,0.279,0.58,0.798,0.72,1.276
	c0.12,0.479,0.579,1.775,0.339,1.376l0.52,0.917c-0.1-0.159,0.839,0.459,0.959,0.439c-0.12-0.14,0.899-1.456,2.078-2.134
	c-0.06,0.619-0.359,1.596-0.399,1.775c-0.16,0.578,0.799,2.712,1.319,3.151c0.619,0.518-0.62-0.678-2.518,0.259
	c-0.9,0.459-0.74-1.356-1.379-1.356c-0.999-0.02-1.019,1.117-0.7,1.735c0.36,0.698,0.92,1.316,1.399,1.994
	c0.42,0.558,2.198,4.447,3.038,2.492c0.799-1.854,1.798-3.35,2.837-4.925c0.46-0.618,0.7-1.296,1.1-1.994l0.479-0.817l0.42-0.878
	c0.479-0.877,0.899-1.894,1.599-2.612c0.659-0.698,1.938-1.615,2.098-2.612c0.08-0.579-0.68-0.698-0.899-1.117
	c-0.2-0.379-0.12-0.817-0.2-1.216c-0.06-0.459-0.359-0.658-0.318-1.157c0.039-0.379,0.14-0.738,0.219-1.116l0.141-0.858
	c0.079-0.857,0.039-1.595,0.079-2.373c0.08-3.789,2.818-1.775,4.656-1.316l1.278,0.399c2,0.778,1.859,2.792,0.861,4.367l-0.58,0.837
	c-0.699,1.217-1,3.63,0.539,4.387l0.879,0.559c1.02,0.997,1.799,2.373,2.379,3.669l0.418,0.857c0.221,0.778,0.58,1.496,0.781,2.273
	c0.059,0.299,0.199,1.815,0.598,1.855l1,0.119c0.18,0,0.32,0.04,0.52,0.08l0.46,0.917c0,0,0.3,0.658,0.339,0.718
	c0.08,0.22,0.16,0.419,0.2,0.678c0.06,0.459,0.12,0.937,0.181,1.396c0.119,0.798,0.159,1.835-0.041,2.632
	c-0.3,1.315-3.816,1.276-4.916,1.217l-0.1,0.06c-0.02,0.358,0.04,0.758,0.141,1.097l0.26,0.877c0.479,1.675-0.541,1.955-1.659,2.912
	c-0.539,0.458,0.88,2.672,1.179,3.13l0.48,0.777c0.479,0.779,0.898,1.676,1.559,2.313l0.699,0.698
	c1.039,1.117,1.259,1.835,0.04,2.592C64.325,64.807,62.586,66.542,62.627,67.24z"/>
<path fill="#FFF200" d="M47.859,61.357c0,0-0.1,0.718-0.1,0.777c-0.06,0.279-0.12,0.578-0.22,0.857
	c-0.279,0.658-0.759,1.217-1.338,1.615c-0.54,0.398-1.059,0.938-1.739,1.117c-0.979,0.259-0.599,0.697-0.24,1.436l-4.056,0.139
	c-0.42-1.115,2.478-0.877,1.658-2.73l-0.619-1.098c-0.1-0.18-0.12-0.398-0.2-0.598l-0.36-1.197c-0.14-0.578-0.08-1.216-0.14-1.813
	v-1.157c0-1.376,0.94-0.299,1.239-0.061l0.64,0.639c1.359-0.279,2.837-0.917,3.897-1.874L47,56.811
	c0.838-0.717,1.098-1.455,0.759-2.532c-0.619-2.015-1.718-1.376-1.858-2.273l-0.32-1.077c-0.579-2.313-0.459-2.332,1.599-3.828
	l0.739-0.718c0.461-0.459,2.198-3.47,2.838-3.091c1.039,0.658,0.84,2.812,0.619,3.809l-0.3,1.136
	c-0.739,2.553-1.119,5.185-1.838,7.736l-0.34,1.178C48.439,58.506,48.159,59.961,47.859,61.357z"/>
<path fill="none" stroke="#000000" stroke-width="0.2" stroke-miterlimit="3.863" d="M47.859,61.357c0,0-0.1,0.718-0.1,0.777
	c-0.06,0.279-0.12,0.578-0.22,0.857c-0.279,0.658-0.759,1.217-1.338,1.615c-0.54,0.398-1.059,0.938-1.739,1.117
	c-0.979,0.259-0.599,0.697-0.24,1.436l-4.056,0.139c-0.42-1.115,2.478-0.877,1.658-2.73l-0.619-1.098
	c-0.1-0.18-0.12-0.398-0.2-0.598l-0.36-1.197c-0.14-0.578-0.08-1.216-0.14-1.813v-1.157c0-1.376,0.94-0.299,1.239-0.061l0.64,0.639
	c1.359-0.279,2.837-0.917,3.897-1.874L47,56.811c0.838-0.717,1.098-1.455,0.759-2.532c-0.619-2.015-1.718-1.376-1.858-2.273
	l-0.32-1.077c-0.579-2.313-0.459-2.332,1.599-3.828l0.739-0.718c0.461-0.459,2.198-3.47,2.838-3.091
	c1.039,0.658,0.84,2.812,0.619,3.809l-0.3,1.136c-0.739,2.553-1.119,5.185-1.838,7.736l-0.34,1.178
	C48.439,58.506,48.159,59.961,47.859,61.357z"/>
<path fill="#FFF200" d="M58.79,58.766c0,0,0.381,0.537,0.42,0.578c0.219,0.278,0.439,0.559,0.659,0.857l0.601,0.957
	c0.519,0.777,1.357,2.034,1.258,3.011c-0.04,0.498-0.499,1.116-0.76,1.556c-0.459,0.777-0.818,0.418-0.858,1.396l-8.173,0.06
	c-0.2,0-0.4,0.041-0.58,0.061h-1.459c0-0.938,0.16-1.695,0.08-2.672c-0.061-0.838,0.619-1.975,0.9-2.772l0.438-1.057
	c0.5-1.396,0.88-2.832,1.379-4.228c0.521-1.416,0.521-0.817,1.56-1.654c0.898-0.698,1.099-1.018,1.598,0.378l0.9,1.196
	c0.119,0.16,0.278,0.34,0.418,0.479l0.68,0.758C58.17,58.008,58.43,58.366,58.79,58.766z"/>
<path fill="none" stroke="#000000" stroke-width="0.2" stroke-miterlimit="3.863" d="M58.79,58.766c0,0,0.381,0.537,0.42,0.578
	c0.219,0.278,0.439,0.559,0.659,0.857l0.601,0.957c0.519,0.777,1.357,2.034,1.258,3.011c-0.04,0.498-0.499,1.116-0.76,1.556
	c-0.459,0.777-0.818,0.418-0.858,1.396l-8.173,0.06c-0.2,0-0.4,0.041-0.58,0.061h-1.459c0-0.938,0.16-1.695,0.08-2.672
	c-0.061-0.838,0.619-1.975,0.9-2.772l0.438-1.057c0.5-1.396,0.88-2.832,1.379-4.228c0.521-1.416,0.521-0.817,1.56-1.654
	c0.898-0.698,1.099-1.018,1.598,0.378l0.9,1.196c0.119,0.16,0.278,0.34,0.418,0.479l0.68,0.758
	C58.17,58.008,58.43,58.366,58.79,58.766z"/>
<path fill="#FFF200" d="M60.189,41.756c0.12,0,0.04,0.678-0.04,0.737c-0.1,0.02-0.46,0.04-0.52,0.1l-1.26,0.08
	c-0.279,0-0.08-1.137-0.061-1.276c0.041-0.559,0.16-1.077,0.421-1.576C59.348,38.685,60.049,41.317,60.189,41.756z"/>
<path fill="none" stroke="#000000" stroke-width="0.2" stroke-miterlimit="3.863" d="M60.189,41.756c0.12,0,0.04,0.678-0.04,0.737
	c-0.1,0.02-0.46,0.04-0.52,0.1l-1.26,0.08c-0.279,0-0.08-1.137-0.061-1.276c0.041-0.559,0.16-1.077,0.421-1.576
	C59.348,38.685,60.049,41.317,60.189,41.756z"/>
<path fill="#FFF200" d="M41.585,51.227c0,0,0.139,0.679,0.159,0.738c0.08,0.279,0.16,0.578,0.26,0.879
	c0.16,0.438,0.799,1.793,1.379,1.035c0.639-0.857-0.44-2.871-0.799-3.648l-0.84-1.057c-0.04-0.039-0.139,0-0.199,0
	C41.225,49.532,41.565,51.227,41.585,51.227z"/>
<path fill="none" stroke="#000000" stroke-width="0.2" stroke-miterlimit="3.863" d="M41.585,51.227c0,0,0.139,0.679,0.159,0.738
	c0.08,0.279,0.16,0.578,0.26,0.879c0.16,0.438,0.799,1.793,1.379,1.035c0.639-0.857-0.44-2.871-0.799-3.648l-0.84-1.057
	c-0.04-0.039-0.139,0-0.199,0C41.225,49.532,41.565,51.227,41.585,51.227z"/>
<path fill="#FFF200" d="M38.827,63.012c0.28,0,0.2,1.756,0.02,2.135c-0.18,0.379-0.44,0.697-0.74,0.977
	c-0.399,0.359-0.559,0.738-0.859,1.156l-2.078,0.08c-0.36-0.399,0.12-3.23,0.2-3.889l0.04-0.996c0-0.738,0.22-5.305,1.119-5.205
	c0.539,0.638,0.28,1.953,0.619,2.731c0.22,0.479,0.56,0.917,0.84,1.356c0.139,0.22,0.299,0.438,0.419,0.658
	C38.467,62.115,38.787,62.893,38.827,63.012z"/>
<path fill="none" stroke="#000000" stroke-width="0.2" stroke-miterlimit="3.863" d="M38.827,63.012c0.28,0,0.2,1.756,0.02,2.135
	c-0.18,0.379-0.44,0.697-0.74,0.977c-0.399,0.359-0.559,0.738-0.859,1.156l-2.078,0.08c-0.36-0.399,0.12-3.23,0.2-3.889l0.04-0.996
	c0-0.738,0.22-5.305,1.119-5.205c0.539,0.638,0.28,1.953,0.619,2.731c0.22,0.479,0.56,0.917,0.84,1.356
	c0.139,0.22,0.299,0.438,0.419,0.658C38.467,62.115,38.787,62.893,38.827,63.012z"/>
</svg>
