<?xml version="1.0" encoding="utf-8"?>
<!-- Generator: Adobe Illustrator 14.0.0, SVG Export Plug-In . SVG Version: 6.00 Build 43363)  -->
<!DOCTYPE svg PUBLIC "-//W3C//DTD SVG 1.1//EN" "http://www.w3.org/Graphics/SVG/1.1/DTD/svg11.dtd">
<svg version="1.1" id="Calque_1" xmlns="http://www.w3.org/2000/svg" xmlns:xlink="http://www.w3.org/1999/xlink" x="0px" y="0px"
	 width="79.336px" height="79.103px" viewBox="0 0 79.336 79.103" enable-background="new 0 0 79.336 79.103" xml:space="preserve">
<path fill="#FFFFFF" d="M0,5.182C0,1.794,1.704,0.1,5.109,0.1L73.766,0c3.646,0.08,5.57,1.794,5.57,5.421V73.9
	c0,3.587-1.963,5.202-5.57,5.202H5.109C1.684,79.103,0,77.348,0,73.94V5.182z"/>
<path fill="none" stroke="#120C0E" stroke-width="0" stroke-miterlimit="3.863" d="M0,5.182C0,1.794,1.704,0.1,5.109,0.1L73.766,0
	c3.646,0.08,5.57,1.794,5.57,5.421V73.9c0,3.587-1.963,5.202-5.57,5.202H5.109C1.684,79.103,0,77.348,0,73.94V5.182z"/>
<rect x="10.118" y="4.345" fill="#120C0E" width="7.934" height="15.825"/>
<rect x="10.118" y="4.345" fill="none" stroke="#120C0E" stroke-width="0" stroke-miterlimit="3.863" width="7.934" height="15.825"/>
<polygon fill="#120C0E" points="15.728,14.609 56.096,54.747 49.565,59.472 10.118,20.169 "/>
<polygon fill="none" stroke="#120C0E" stroke-width="0" stroke-miterlimit="3.863" points="15.728,14.609 56.096,54.747 
	49.565,59.472 10.118,20.169 "/>
<polygon fill-rule="evenodd" clip-rule="evenodd" fill="#120C0E" points="41.632,66.925 62.667,45.999 68.999,73.223 "/>
<polygon fill="none" stroke="#120C0E" stroke-width="0" stroke-miterlimit="3.863" points="41.632,66.925 62.667,45.999 
	68.999,73.222 "/>
</svg>
