<?xml version="1.0" encoding="UTF-8" standalone="no"?>
<!-- Created with Inkscape (http://www.inkscape.org/) -->

<svg
   xmlns:dc="http://purl.org/dc/elements/1.1/"
   xmlns:cc="http://creativecommons.org/ns#"
   xmlns:rdf="http://www.w3.org/1999/02/22-rdf-syntax-ns#"
   xmlns:svg="http://www.w3.org/2000/svg"
   xmlns="http://www.w3.org/2000/svg"
   xmlns:sodipodi="http://sodipodi.sourceforge.net/DTD/sodipodi-0.dtd"
   xmlns:inkscape="http://www.inkscape.org/namespaces/inkscape"
   width="1000.4"
   height="1000.4"
   viewBox="0 0 1000.4 1000.4"
   id="svg4141"
   version="1.1"
   inkscape:version="0.91 r13725"
   sodipodi:docname="Belgian_road_sign_B5_(old).svg">
  <defs
     id="defs4143" />
  <sodipodi:namedview
     id="base"
     pagecolor="#ffffff"
     bordercolor="#666666"
     borderopacity="1.0"
     inkscape:pageopacity="0.0"
     inkscape:pageshadow="2"
     inkscape:zoom="0.35"
     inkscape:cx="375"
     inkscape:cy="520"
     inkscape:document-units="px"
     inkscape:current-layer="layer1"
     showgrid="false"
     units="px"
     inkscape:window-width="1920"
     inkscape:window-height="1057"
     inkscape:window-x="-8"
     inkscape:window-y="-8"
     inkscape:window-maximized="1" />
  <metadata
     id="metadata4146">
    <rdf:RDF>
      <cc:Work
         rdf:about="">
        <dc:format>image/svg+xml</dc:format>
        <dc:type
           rdf:resource="http://purl.org/dc/dcmitype/StillImage" />
        <dc:title></dc:title>
      </cc:Work>
    </rdf:RDF>
  </metadata>
  <g
     inkscape:label="Layer 1"
     inkscape:groupmode="layer"
     id="layer1"
     transform="translate(0,-51.962158)">
    <path
       inkscape:connector-curvature="0"
       d="m 0.2,552.16215 c 0,-276.1268 223.85885,-499.999995 499.99998,-499.999995 276.14114,0 500.00002,223.873195 500.00002,499.999995 0,276.141 -223.85888,500.00005 -500.00002,500.00005 C 224.05885,1052.1622 0.2,828.30315 0.2,552.16215 Z"
       style="fill:#ed1c24;fill-opacity:1;fill-rule:nonzero;stroke:none"
       id="path2387" />
    <path
       d="m 500.20003,907.16212 c 196.05878,0 355,-158.94121 355,-355 0,-196.05879 -158.94122,-355 -355,-355 -196.05879,0 -355.00003,158.94121 -355.00003,355 0,196.05879 158.94124,355 355.00003,355"
       style="fill:#ffffff;fill-rule:nonzero;stroke:none"
       id="path78"
       inkscape:connector-curvature="0" />
    <path
       inkscape:connector-curvature="0"
       d="m 519.92331,954.35985 c -10.83689,18.403 -28.58314,18.403 -39.43116,0 L 118.7247,340.66262 c -10.8369,-18.40306 -1.9694,-33.45514 19.7155,-33.45514 l 723.51278,-0.0109 c 21.69606,0 30.56358,15.05208 19.71559,33.45515 L 519.92331,954.35985 Z"
       style="fill:#ed1c24;fill-opacity:1;fill-rule:nonzero;stroke:none"
       id="path11039" />
    <path
       style="fill:#ffffff;fill-rule:nonzero;stroke:none"
       d="m 762.10042,385.91211 -523.80082,0 261.90043,444.31 z"
       id="path10308"
       inkscape:connector-curvature="0"
       sodipodi:nodetypes="cccc" />
    <path
       inkscape:connector-curvature="0"
       id="path10314"
       style="fill:#000000;fill-rule:nonzero;stroke:none"
       d="m 509.55151,439.82403 c 0,-25.65131 18.85109,-38.47013 36.63327,-38.47013 17.78217,0 36.63985,12.81882 36.63985,38.47013 l 0,83.12469 c 0,25.64449 -18.85768,38.46333 -36.63985,38.46333 -17.78218,0 -36.63327,-12.81884 -36.63327,-38.46333 l 0,-83.12469 z m 21.85327,83.12469 c 0,10.83465 6.85554,15.91444 14.78,15.91444 7.93105,0 14.78659,-5.07979 14.78659,-15.91444 l 0,-83.12469 c 0,-10.83465 -6.85554,-15.92127 -14.78659,-15.92127 -7.92446,0 -14.78,5.08662 -14.78,15.92127 l 0,83.12469" />
    <path
       inkscape:connector-curvature="0"
       id="path10316"
       style="fill:#000000;fill-rule:nonzero;stroke:none"
       d="m 604.88248,402.34258 32.7799,0 c 12.00214,0 20.78436,2.87742 28.27991,11.05964 7.50217,8.17543 9.85774,18.12366 9.85774,36.91552 0,13.71207 -1.06894,26.05361 -6.2155,34.67223 -5.9978,10.17324 -15.63778,16.36447 -31.7044,16.36447 l -11.14441,0 0,58.4007 -21.85324,0 0,-157.41256 z m 21.85324,77.78578 10.49779,0 c 17.78218,0 17.99989,-13.88934 17.99989,-29.5856 0,-14.81666 0,-26.9741 -17.14215,-26.9741 l -11.35553,0 0,56.5597" />
    <path
       inkscape:connector-curvature="0"
       id="path10318"
       style="fill:#000000;fill-rule:nonzero;stroke:none"
       d="m 451.90294,423.93004 -23.06075,0 0,-21.22608 67.97477,0 0,21.22608 -23.06075,0 0,136.18649 -21.85327,0 0,-136.18649" />
    <path
       inkscape:connector-curvature="0"
       id="path10320"
       style="fill:#000000;fill-rule:nonzero;stroke:none"
       d="m 382.78668,478.51947 c -17.78219,0 -35.76891,-12.76427 -35.76891,-38.41559 l 0,-0.94124 c 0,-25.64448 18.85768,-38.46333 36.63987,-38.46333 17.78217,0 36.63327,12.81885 36.63327,38.46333 l -21.85328,0 c 0,-10.82783 -6.85554,-15.91445 -14.77999,-15.91445 -7.93106,0 -14.78659,5.08662 -14.78659,15.91445 l 0,0.94124 c 0,10.83465 5.98457,15.83945 13.91563,15.83945 l 1.30644,0.17047 c 17.78218,0 35.98004,12.662 35.98004,38.30649 l 0,29.27165 c 0,25.64449 -18.85109,38.47014 -36.63326,38.47014 -17.78218,0 -36.63987,-12.82565 -36.63987,-38.47014 l 21.85328,0 c 0,10.83464 6.85554,15.91445 14.78659,15.91445 7.92445,0 14.77999,-5.07981 14.77999,-15.91445 l 0,-29.27165 c 0,-10.82782 -6.85554,-15.91445 -14.77999,-15.91445 l -0.65322,0.0137"
       sodipodi:nodetypes="csssccsssccsssccssscc" />
  </g>
</svg>
